Literata-M6.ufo
<glyph name="ampersand" format="2">
	<unicode hex="0026"/>
	<advance width="875"/>
	<outline>
		<contour>
			<point x="303" y="-14" type="curve" smooth="yes"/>
			<point x="409" y="-14"/>
			<point x="451" y="20"/>
			<point x="487" y="67" type="curve"/>
			<point x="542" y="12"/>
			<point x="580" y="-14"/>
			<point x="659" y="-14" type="curve" smooth="yes"/>
			<point x="741" y="-14"/>
			<point x="794" y="52"/>
			<point x="845" y="126" type="curve"/>
			<point x="838" y="133" type="line"/>
			<point x="817" y="113"/>
			<point x="802" y="108"/>
			<point x="775" y="108" type="curve" smooth="yes"/>
			<point x="739" y="108"/>
			<point x="670" y="167"/>
			<point x="572" y="268" type="curve"/>
			<point x="590" y="336"/>
			<point x="611" y="387"/>
			<point x="647" y="430" type="curve"/>
			<point x="679" y="358"/>
			<point x="703" y="310"/>
			<point x="747" y="310" type="curve" smooth="yes"/>
			<point x="803" y="310"/>
			<point x="816" y="364"/>
			<point x="816" y="401" type="curve" smooth="yes"/>
			<point x="816" y="453"/>
			<point x="787" y="495"/>
			<point x="717" y="495" type="curve" smooth="yes"/>
			<point x="638" y="495"/>
			<point x="589" y="400"/>
			<point x="557" y="285" type="curve"/>
			<point x="430" y="433" type="line"/>
			<point x="484" y="483"/>
			<point x="514" y="523"/>
			<point x="514" y="586" type="curve" smooth="yes"/>
			<point x="514" y="666"/>
			<point x="468" y="714"/>
			<point x="354" y="714" type="curve" smooth="yes"/>
			<point x="228" y="714"/>
			<point x="143" y="656"/>
			<point x="143" y="524" type="curve" smooth="yes"/>
			<point x="143" y="468"/>
			<point x="174" y="415"/>
			<point x="215" y="369" type="curve"/>
			<point x="101" y="331"/>
			<point x="40" y="275"/>
			<point x="40" y="181" type="curve" smooth="yes"/>
			<point x="40" y="53"/>
			<point x="157" y="-14"/>
		</contour>
		<contour>
			<point x="342" y="12" type="curve" smooth="yes"/>
			<point x="251" y="12"/>
			<point x="216" y="117"/>
			<point x="216" y="227" type="curve" smooth="yes"/>
			<point x="216" y="272"/>
			<point x="220" y="313"/>
			<point x="227" y="354" type="curve"/>
			<point x="471" y="80" type="line"/>
			<point x="444" y="43"/>
			<point x="407" y="12"/>
		</contour>
		<contour>
			<point x="418" y="447" type="curve"/>
			<point x="348" y="530"/>
			<point x="318" y="576"/>
			<point x="318" y="628" type="curve" smooth="yes"/>
			<point x="318" y="664"/>
			<point x="347" y="689"/>
			<point x="387" y="689" type="curve" smooth="yes"/>
			<point x="456" y="689"/>
			<point x="496" y="650"/>
			<point x="496" y="585" type="curve" smooth="yes"/>
			<point x="496" y="531"/>
			<point x="468" y="493"/>
		</contour>
	</outline>
</glyph>
<glyph name="quotesingle" format="2">
	<unicode hex="0027"/>
	<advance width="272"/>
	<outline>
		<contour>
			<point x="136" y="469" type="line"/>
			<point x="148" y="469" type="line"/>
			<point x="204" y="637" type="line" smooth="yes"/>
			<point x="214" y="668"/>
			<point x="227" y="709"/>
			<point x="227" y="733" type="curve" smooth="yes"/>
			<point x="227" y="773"/>
			<point x="199" y="800"/>
			<point x="146" y="800" type="curve" smooth="yes"/>
			<point x="82" y="800"/>
			<point x="45" y="757"/>
			<point x="45" y="709" type="curve" smooth="yes"/>
			<point x="45" y="672"/>
			<point x="60" y="634"/>
			<point x="72" y="608" type="curve" smooth="yes"/>
		</contour>
	</outline>
</glyph>
<glyph name="parenleft" format="2">
	<unicode hex="0028"/>
	<advance width="455"/>
	<outline>
		<contour>
			<point x="411" y="-189" type="curve"/>
			<point x="420" y="-181" type="line"/>
			<point x="324" y="-77"/>
			<point x="294" y="88"/>
			<point x="294" y="309" type="curve" smooth="yes"/>
			<point x="294" y="531"/>
			<point x="331" y="735"/>
			<point x="399" y="807" type="curve"/>
			<point x="391" y="814" type="line"/>
			<point x="211" y="687"/>
			<point x="85" y="512"/>
			<point x="85" y="329" type="curve" smooth="yes"/>
			<point x="85" y="115"/>
			<point x="216" y="-33"/>
		</contour>
	</outline>
</glyph>
<glyph name="asterisk" format="2">
	<unicode hex="002A"/>
	<advance width="483"/>
	<outline>
		<contour>
			<point x="239" y="379" type="curve" smooth="yes"/>
			<point x="275" y="379"/>
			<point x="299" y="397"/>
			<point x="287" y="442" type="curve" smooth="yes"/>
			<point x="250" y="580" type="line"/>
			<point x="360" y="465" type="line" smooth="yes"/>
			<point x="387" y="437"/>
			<point x="407" y="446"/>
			<point x="427" y="482" type="curve" smooth="yes"/>
			<point x="444" y="513"/>
			<point x="442" y="543"/>
			<point x="397" y="555" type="curve" smooth="yes"/>
			<point x="259" y="592" type="line"/>
			<point x="411" y="628" type="line" smooth="yes"/>
			<point x="449" y="637"/>
			<point x="451" y="659"/>
			<point x="430" y="695" type="curve" smooth="yes"/>
			<point x="412" y="726"/>
			<point x="384" y="738"/>
			<point x="351" y="705" type="curve" smooth="yes"/>
			<point x="250" y="604" type="line"/>
			<point x="292" y="755" type="line" smooth="yes"/>
			<point x="303" y="793"/>
			<point x="285" y="805"/>
			<point x="244" y="805" type="curve" smooth="yes"/>
			<point x="208" y="805"/>
			<point x="184" y="787"/>
			<point x="196" y="742" type="curve" smooth="yes"/>
			<point x="233" y="604" type="line"/>
			<point x="123" y="719" type="line" smooth="yes"/>
			<point x="96" y="747"/>
			<point x="76" y="738"/>
			<point x="56" y="702" type="curve" smooth="yes"/>
			<point x="39" y="671"/>
			<point x="41" y="641"/>
			<point x="86" y="629" type="curve" smooth="yes"/>
			<point x="224" y="592" type="line"/>
			<point x="72" y="556" type="line" smooth="yes"/>
			<point x="34" y="547"/>
			<point x="32" y="525"/>
			<point x="53" y="489" type="curve" smooth="yes"/>
			<point x="71" y="458"/>
			<point x="99" y="446"/>
			<point x="132" y="479" type="curve" smooth="yes"/>
			<point x="233" y="580" type="line"/>
			<point x="191" y="429" type="line" smooth="yes"/>
			<point x="180" y="391"/>
			<point x="198" y="379"/>
		</contour>
	</outline>
</glyph>
<glyph name="comma" format="2">
	<unicode hex="002C"/>
	<advance width="303"/>
	<outline>
		<contour>
			<point x="105" y="-178" type="line"/>
			<point x="187" y="-124"/>
			<point x="248" y="-25"/>
			<point x="248" y="77" type="curve" smooth="yes"/>
			<point x="248" y="126"/>
			<point x="216" y="173"/>
			<point x="152" y="173" type="curve" smooth="yes"/>
			<point x="93" y="173"/>
			<point x="55" y="126"/>
			<point x="55" y="78" type="curve" smooth="yes"/>
			<point x="55" y="32"/>
			<point x="87" y="0"/>
			<point x="159" y="0" type="curve" smooth="yes"/>
			<point x="175" y="0" type="line"/>
			<point x="177" y="-54"/>
			<point x="158" y="-105"/>
			<point x="93" y="-163" type="curve"/>
		</contour>
	</outline>
</glyph>
<glyph name="hyphen" format="2">
	<unicode hex="002D"/>
	<advance width="377"/>
	<outline>
		<contour>
			<point x="30" y="270" type="line"/>
			<point x="347" y="270" type="line"/>
			<point x="347" y="332" type="line"/>
			<point x="30" y="332" type="line"/>
		</contour>
	</outline>
</glyph>
<glyph name="three" format="2">
	<unicode hex="0033"/>
	<advance width="617"/>
	<outline>
		<contour>
			<point x="279" y="-14" type="curve" smooth="yes"/>
			<point x="426" y="-14"/>
			<point x="582" y="45"/>
			<point x="582" y="202" type="curve" smooth="yes"/>
			<point x="582" y="310"/>
			<point x="504" y="366"/>
			<point x="365" y="382" type="curve"/>
			<point x="365" y="386" type="line"/>
			<point x="493" y="414"/>
			<point x="563" y="477"/>
			<point x="563" y="576" type="curve" smooth="yes"/>
			<point x="563" y="689"/>
			<point x="451" y="744"/>
			<point x="314" y="744" type="curve" smooth="yes"/>
			<point x="134" y="744"/>
			<point x="39" y="652"/>
			<point x="39" y="565" type="curve" smooth="yes"/>
			<point x="39" y="521"/>
			<point x="63" y="471"/>
			<point x="131" y="471" type="curve" smooth="yes"/>
			<point x="193" y="471"/>
			<point x="217" y="512"/>
			<point x="217" y="546" type="curve" smooth="yes"/>
			<point x="217" y="578"/>
			<point x="196" y="610"/>
			<point x="129" y="681" type="curve"/>
			<point x="147" y="695"/>
			<point x="187" y="715"/>
			<point x="231" y="715" type="curve" smooth="yes"/>
			<point x="310" y="715"/>
			<point x="352" y="653"/>
			<point x="352" y="559" type="curve" smooth="yes"/>
			<point x="352" y="434"/>
			<point x="309" y="389"/>
			<point x="179" y="378" type="curve"/>
			<point x="177" y="358" type="line"/>
			<point x="303" y="372"/>
			<point x="350" y="321"/>
			<point x="350" y="198" type="curve" smooth="yes"/>
			<point x="350" y="102"/>
			<point x="307" y="25"/>
			<point x="208" y="25" type="curve" smooth="yes"/>
			<point x="151" y="25"/>
			<point x="88" y="52"/>
			<point x="43" y="124" type="curve"/>
			<point x="30" y="117" type="line"/>
			<point x="68" y="48"/>
			<point x="126" y="-14"/>
		</contour>
	</outline>
</glyph>
<glyph name="colon" format="2">
	<unicode hex="003A"/>
	<advance width="323"/>
	<outline>
		<contour>
			<point x="162" y="-14" type="curve" smooth="yes"/>
			<point x="226" y="-14"/>
			<point x="268" y="25"/>
			<point x="268" y="81" type="curve" smooth="yes"/>
			<point x="268" y="135"/>
			<point x="227" y="173"/>
			<point x="162" y="173" type="curve" smooth="yes"/>
			<point x="97" y="173"/>
			<point x="55" y="135"/>
			<point x="55" y="81" type="curve" smooth="yes"/>
			<point x="55" y="25"/>
			<point x="97" y="-14"/>
		</contour>
		<contour>
			<point x="162" y="350" type="curve" smooth="yes"/>
			<point x="226" y="350"/>
			<point x="268" y="389"/>
			<point x="268" y="445" type="curve" smooth="yes"/>
			<point x="268" y="499"/>
			<point x="227" y="537"/>
			<point x="162" y="537" type="curve" smooth="yes"/>
			<point x="97" y="537"/>
			<point x="55" y="499"/>
			<point x="55" y="445" type="curve" smooth="yes"/>
			<point x="55" y="389"/>
			<point x="97" y="350"/>
		</contour>
	</outline>
</glyph>
<glyph name="semicolon" format="2">
	<unicode hex="003B"/>
	<advance width="303"/>
	<outline>
		<contour>
			<point x="105" y="-178" type="line"/>
			<point x="187" y="-124"/>
			<point x="248" y="-25"/>
			<point x="248" y="77" type="curve" smooth="yes"/>
			<point x="248" y="126"/>
			<point x="216" y="173"/>
			<point x="152" y="173" type="curve" smooth="yes"/>
			<point x="93" y="173"/>
			<point x="55" y="126"/>
			<point x="55" y="78" type="curve" smooth="yes"/>
			<point x="55" y="32"/>
			<point x="87" y="0"/>
			<point x="159" y="0" type="curve" smooth="yes"/>
			<point x="175" y="0" type="line"/>
			<point x="177" y="-54"/>
			<point x="158" y="-105"/>
			<point x="93" y="-163" type="curve"/>
		</contour>
		<contour>
			<point x="152" y="350" type="curve" smooth="yes"/>
			<point x="206" y="350"/>
			<point x="248" y="389"/>
			<point x="248" y="445" type="curve" smooth="yes"/>
			<point x="248" y="499"/>
			<point x="207" y="537"/>
			<point x="152" y="537" type="curve" smooth="yes"/>
			<point x="97" y="537"/>
			<point x="55" y="499"/>
			<point x="55" y="445" type="curve" smooth="yes"/>
			<point x="55" y="389"/>
			<point x="97" y="350"/>
		</contour>
	</outline>
</glyph>
<glyph name="C" format="2">
	<unicode hex="0043"/>
	<advance width="689"/>
	<outline>
		<contour>
			<point x="401" y="-14" type="curve" smooth="yes"/>
			<point x="578" y="-14"/>
			<point x="634" y="90"/>
			<point x="668" y="154" type="curve"/>
			<point x="658" y="160" type="line"/>
			<point x="603" y="70"/>
			<point x="528" y="30"/>
			<point x="454" y="30" type="curve" smooth="yes"/>
			<point x="352" y="30"/>
			<point x="279" y="122"/>
			<point x="279" y="377" type="curve" smooth="yes"/>
			<point x="279" y="590"/>
			<point x="310" y="727"/>
			<point x="414" y="727" type="curve" smooth="yes"/>
			<point x="500" y="727"/>
			<point x="574" y="665"/>
			<point x="634" y="488" type="curve"/>
			<point x="652" y="494" type="line"/>
			<point x="609" y="744" type="line"/>
			<point x="594" y="744" type="line"/>
			<point x="578" y="674" type="line"/>
			<point x="538" y="709"/>
			<point x="481" y="744"/>
			<point x="393" y="744" type="curve" smooth="yes"/>
			<point x="195" y="744"/>
			<point x="32" y="597"/>
			<point x="32" y="372" type="curve" smooth="yes"/>
			<point x="32" y="118"/>
			<point x="162" y="-14"/>
		</contour>
	</outline>
	<anchor name="bottom" x="394" y="-30"/>
	<anchor name="top" x="382" y="730"/>
</glyph>
<glyph name="E" format="2">
	<unicode hex="0045"/>
	<advance width="628"/>
	<outline>
		<contour>
			<point x="37" y="0" type="line"/>
			<point x="584" y="0" type="line"/>
			<point x="603" y="201" type="line"/>
			<point x="589" y="201" type="line"/>
			<point x="524" y="47"/>
			<point x="486" y="16"/>
			<point x="396" y="16" type="curve" smooth="yes"/>
			<point x="336" y="16" type="line"/>
			<point x="336" y="366" type="line"/>
			<point x="393" y="366" type="line" smooth="yes"/>
			<point x="430" y="366"/>
			<point x="448" y="336"/>
			<point x="466" y="254" type="curve"/>
			<point x="479" y="256" type="line"/>
			<point x="479" y="482" type="line"/>
			<point x="466" y="480" type="line"/>
			<point x="444" y="403"/>
			<point x="432" y="382"/>
			<point x="392" y="382" type="curve" smooth="yes"/>
			<point x="336" y="382" type="line"/>
			<point x="336" y="714" type="line"/>
			<point x="373" y="714" type="line" smooth="yes"/>
			<point x="460" y="714"/>
			<point x="506" y="693"/>
			<point x="572" y="531" type="curve"/>
			<point x="585" y="535" type="line"/>
			<point x="557" y="730" type="line"/>
			<point x="37" y="730" type="line"/>
			<point x="37" y="718" type="line"/>
			<point x="66" y="717" type="line" smooth="yes"/>
			<point x="96" y="716"/>
			<point x="102" y="706"/>
			<point x="102" y="673" type="curve" smooth="yes"/>
			<point x="102" y="70" type="line" smooth="yes"/>
			<point x="102" y="26"/>
			<point x="96" y="15"/>
			<point x="71" y="14" type="curve" smooth="yes"/>
			<point x="37" y="12" type="line"/>
		</contour>
	</outline>
	<anchor name="bottom" x="333" y="-30"/>
	<anchor name="top" x="325" y="730"/>
</glyph>
<glyph name="F" format="2">
	<unicode hex="0046"/>
	<advance width="605"/>
	<outline>
		<contour>
			<point x="37" y="0" type="line"/>
			<point x="421" y="0" type="line"/>
			<point x="421" y="12" type="line"/>
			<point x="379" y="14" type="line" smooth="yes"/>
			<point x="336" y="16"/>
			<point x="336" y="33"/>
			<point x="336" y="66" type="curve" smooth="yes"/>
			<point x="336" y="358" type="line"/>
			<point x="392" y="358" type="line" smooth="yes"/>
			<point x="432" y="358"/>
			<point x="450" y="335"/>
			<point x="471" y="246" type="curve"/>
			<point x="484" y="248" type="line"/>
			<point x="484" y="474" type="line"/>
			<point x="471" y="472" type="line"/>
			<point x="446" y="395"/>
			<point x="434" y="374"/>
			<point x="391" y="374" type="curve" smooth="yes"/>
			<point x="336" y="374" type="line"/>
			<point x="336" y="714" type="line"/>
			<point x="376" y="714" type="line" smooth="yes"/>
			<point x="466" y="714"/>
			<point x="503" y="689"/>
			<point x="572" y="516" type="curve"/>
			<point x="585" y="520" type="line"/>
			<point x="557" y="730" type="line"/>
			<point x="37" y="730" type="line"/>
			<point x="37" y="718" type="line"/>
			<point x="66" y="717" type="line" smooth="yes"/>
			<point x="96" y="716"/>
			<point x="102" y="706"/>
			<point x="102" y="673" type="curve" smooth="yes"/>
			<point x="102" y="70" type="line" smooth="yes"/>
			<point x="102" y="26"/>
			<point x="96" y="15"/>
			<point x="71" y="14" type="curve" smooth="yes"/>
			<point x="37" y="12" type="line"/>
		</contour>
	</outline>
</glyph>
<glyph name="G" format="2">
	<unicode hex="0047"/>
	<advance width="763"/>
	<outline>
		<contour>
			<point x="361" y="-14" type="curve" smooth="yes"/>
			<point x="422" y="-14"/>
			<point x="463" y="0"/>
			<point x="516" y="34" type="curve"/>
			<point x="680" y="-8" type="line"/>
			<point x="690" y="-8" type="line"/>
			<point x="690" y="291" type="line" smooth="yes"/>
			<point x="690" y="331"/>
			<point x="696" y="340"/>
			<point x="726" y="341" type="curve" smooth="yes"/>
			<point x="753" y="342" type="line"/>
			<point x="753" y="354" type="line"/>
			<point x="422" y="354" type="line"/>
			<point x="422" y="342" type="line"/>
			<point x="453" y="341" type="line" smooth="yes"/>
			<point x="481" y="340"/>
			<point x="486" y="332"/>
			<point x="486" y="291" type="curve" smooth="yes"/>
			<point x="486" y="39" type="line"/>
			<point x="465" y="25"/>
			<point x="439" y="18"/>
			<point x="415" y="18" type="curve" smooth="yes"/>
			<point x="346" y="18"/>
			<point x="279" y="82"/>
			<point x="279" y="367" type="curve" smooth="yes"/>
			<point x="279" y="635"/>
			<point x="320" y="727"/>
			<point x="407" y="727" type="curve" smooth="yes"/>
			<point x="522" y="727"/>
			<point x="591" y="622"/>
			<point x="645" y="489" type="curve"/>
			<point x="661" y="494" type="line"/>
			<point x="618" y="744" type="line"/>
			<point x="603" y="744" type="line"/>
			<point x="587" y="673" type="line"/>
			<point x="553" y="706"/>
			<point x="489" y="744"/>
			<point x="406" y="744" type="curve" smooth="yes"/>
			<point x="192" y="744"/>
			<point x="32" y="619"/>
			<point x="32" y="346" type="curve" smooth="yes"/>
			<point x="32" y="101"/>
			<point x="173" y="-14"/>
		</contour>
	</outline>
	<anchor name="bottom" x="386" y="-30"/>
	<anchor name="top" x="375" y="730"/>
</glyph>
<glyph name="H" format="2">
	<unicode hex="0048"/>
	<advance width="856"/>
	<outline>
		<contour>
			<point x="37" y="0" type="line"/>
			<point x="396" y="0" type="line"/>
			<point x="396" y="12" type="line"/>
			<point x="370" y="14" type="line" smooth="yes"/>
			<point x="344" y="16"/>
			<point x="336" y="24"/>
			<point x="336" y="66" type="curve" smooth="yes"/>
			<point x="336" y="365" type="line"/>
			<point x="520" y="365" type="line"/>
			<point x="520" y="70" type="line" smooth="yes"/>
			<point x="520" y="26"/>
			<point x="514" y="16"/>
			<point x="489" y="14" type="curve" smooth="yes"/>
			<point x="460" y="12" type="line"/>
			<point x="460" y="0" type="line"/>
			<point x="819" y="0" type="line"/>
			<point x="819" y="12" type="line"/>
			<point x="787" y="14" type="line" smooth="yes"/>
			<point x="754" y="16"/>
			<point x="754" y="33"/>
			<point x="754" y="66" type="curve" smooth="yes"/>
			<point x="754" y="667" type="line" smooth="yes"/>
			<point x="754" y="705"/>
			<point x="760" y="716"/>
			<point x="785" y="717" type="curve" smooth="yes"/>
			<point x="819" y="718" type="line"/>
			<point x="819" y="730" type="line"/>
			<point x="460" y="730" type="line"/>
			<point x="460" y="718" type="line"/>
			<point x="487" y="717" type="line" smooth="yes"/>
			<point x="516" y="716"/>
			<point x="520" y="701"/>
			<point x="520" y="673" type="curve" smooth="yes"/>
			<point x="520" y="382" type="line"/>
			<point x="336" y="382" type="line"/>
			<point x="336" y="667" type="line" smooth="yes"/>
			<point x="336" y="703"/>
			<point x="344" y="716"/>
			<point x="368" y="717" type="curve" smooth="yes"/>
			<point x="396" y="718" type="line"/>
			<point x="396" y="730" type="line"/>
			<point x="37" y="730" type="line"/>
			<point x="37" y="718" type="line"/>
			<point x="66" y="717" type="line" smooth="yes"/>
			<point x="96" y="716"/>
			<point x="102" y="706"/>
			<point x="102" y="673" type="curve" smooth="yes"/>
			<point x="102" y="70" type="line" smooth="yes"/>
			<point x="102" y="26"/>
			<point x="96" y="15"/>
			<point x="71" y="14" type="curve" smooth="yes"/>
			<point x="37" y="12" type="line"/>
		</contour>
	</outline>
	<anchor name="bottom" x="427" y="-30"/>
	<anchor name="top" x="429" y="730"/>
</glyph>
<glyph name="K" format="2">
	<unicode hex="004B"/>
	<advance width="841"/>
	<outline>
		<contour>
			<point x="681" y="-14" type="curve" smooth="yes"/>
			<point x="761" y="-14"/>
			<point x="821" y="16"/>
			<point x="861" y="69" type="curve"/>
			<point x="855" y="77" type="line"/>
			<point x="839" y="67"/>
			<point x="819" y="64"/>
			<point x="808" y="64" type="curve" smooth="yes"/>
			<point x="781" y="64"/>
			<point x="749" y="80"/>
			<point x="718" y="142" type="curve" smooth="yes"/>
			<point x="535" y="509" type="line"/>
			<point x="671" y="643" type="line" smooth="yes"/>
			<point x="737" y="708"/>
			<point x="748" y="707"/>
			<point x="768" y="711" type="curve" smooth="yes"/>
			<point x="802" y="718" type="line"/>
			<point x="802" y="730" type="line"/>
			<point x="590" y="730" type="line"/>
			<point x="590" y="718" type="line"/>
			<point x="626" y="714" type="line" smooth="yes"/>
			<point x="669" y="709"/>
			<point x="676" y="680"/>
			<point x="647" y="652" type="curve" smooth="yes"/>
			<point x="336" y="347" type="line"/>
			<point x="336" y="667" type="line" smooth="yes"/>
			<point x="336" y="704"/>
			<point x="344" y="716"/>
			<point x="368" y="717" type="curve" smooth="yes"/>
			<point x="401" y="718" type="line"/>
			<point x="401" y="730" type="line"/>
			<point x="37" y="730" type="line"/>
			<point x="37" y="718" type="line"/>
			<point x="66" y="717" type="line" smooth="yes"/>
			<point x="96" y="716"/>
			<point x="102" y="705"/>
			<point x="102" y="673" type="curve" smooth="yes"/>
			<point x="102" y="70" type="line" smooth="yes"/>
			<point x="102" y="26"/>
			<point x="96" y="15"/>
			<point x="71" y="14" type="curve" smooth="yes"/>
			<point x="37" y="12" type="line"/>
			<point x="37" y="0" type="line"/>
			<point x="396" y="0" type="line"/>
			<point x="396" y="12" type="line"/>
			<point x="370" y="14" type="line" smooth="yes"/>
			<point x="344" y="16"/>
			<point x="336" y="24"/>
			<point x="336" y="66" type="curve" smooth="yes"/>
			<point x="336" y="313" type="line"/>
			<point x="376" y="355" type="line"/>
			<point x="473" y="129" type="line" smooth="yes"/>
			<point x="500" y="67"/>
			<point x="539" y="-14"/>
		</contour>
	</outline>
	<anchor name="bottom" x="427" y="-30"/>
	<anchor name="top" x="433" y="730"/>
</glyph>
<glyph name="L" format="2">
	<unicode hex="004C"/>
	<advance width="648"/>
	<outline>
		<contour>
			<point x="37" y="0" type="line"/>
			<point x="603" y="0" type="line"/>
			<point x="628" y="235" type="line"/>
			<point x="612" y="235" type="line"/>
			<point x="562" y="87"/>
			<point x="505" y="16"/>
			<point x="399" y="16" type="curve" smooth="yes"/>
			<point x="336" y="16" type="line"/>
			<point x="336" y="667" type="line" smooth="yes"/>
			<point x="336" y="703"/>
			<point x="344" y="716"/>
			<point x="378" y="717" type="curve" smooth="yes"/>
			<point x="416" y="718" type="line"/>
			<point x="416" y="730" type="line"/>
			<point x="37" y="730" type="line"/>
			<point x="37" y="718" type="line"/>
			<point x="66" y="717" type="line" smooth="yes"/>
			<point x="96" y="716"/>
			<point x="102" y="706"/>
			<point x="102" y="673" type="curve" smooth="yes"/>
			<point x="102" y="70" type="line" smooth="yes"/>
			<point x="102" y="26"/>
			<point x="96" y="15"/>
			<point x="71" y="14" type="curve" smooth="yes"/>
			<point x="37" y="12" type="line"/>
		</contour>
	</outline>
	<anchor name="bottom" x="336" y="-30"/>
	<anchor name="top" x="223" y="730"/>
</glyph>
<glyph name="O" format="2">
	<unicode hex="004F"/>
	<advance width="792"/>
	<outline>
		<contour>
			<point x="392" y="-14" type="curve" smooth="yes"/>
			<point x="633" y="-14"/>
			<point x="760" y="150"/>
			<point x="760" y="383" type="curve" smooth="yes"/>
			<point x="760" y="620"/>
			<point x="613" y="744"/>
			<point x="409" y="744" type="curve" smooth="yes"/>
			<point x="180" y="744"/>
			<point x="32" y="613"/>
			<point x="32" y="352" type="curve" smooth="yes"/>
			<point x="32" y="130"/>
			<point x="171" y="-14"/>
		</contour>
		<contour>
			<point x="410" y="3" type="curve" smooth="yes"/>
			<point x="332" y="3"/>
			<point x="277" y="79"/>
			<point x="277" y="377" type="curve" smooth="yes"/>
			<point x="277" y="658"/>
			<point x="317" y="727"/>
			<point x="390" y="727" type="curve" smooth="yes"/>
			<point x="472" y="727"/>
			<point x="515" y="650"/>
			<point x="515" y="355" type="curve" smooth="yes"/>
			<point x="515" y="68"/>
			<point x="485" y="3"/>
		</contour>
	</outline>
	<anchor name="bottom" x="401" y="-30"/>
	<anchor name="top" x="398" y="730"/>
	<guideline x="399" y="103" angle="90"/>
</glyph>
<glyph name="Q" format="2">
	<unicode hex="0051"/>
	<advance width="795"/>
	<outline>
		<contour>
			<point x="697" y="-192" type="curve" smooth="yes"/>
			<point x="777" y="-192"/>
			<point x="845" y="-124"/>
			<point x="871" y="0" type="curve"/>
			<point x="863" y="2" type="line"/>
			<point x="845" y="-34"/>
			<point x="819" y="-53"/>
			<point x="768" y="-53" type="curve" smooth="yes"/>
			<point x="712" y="-53"/>
			<point x="665" y="-2"/>
			<point x="618" y="59" type="curve"/>
			<point x="707" y="129"/>
			<point x="760" y="244"/>
			<point x="760" y="383" type="curve" smooth="yes"/>
			<point x="760" y="620"/>
			<point x="613" y="744"/>
			<point x="409" y="744" type="curve" smooth="yes"/>
			<point x="180" y="744"/>
			<point x="32" y="613"/>
			<point x="32" y="352" type="curve" smooth="yes"/>
			<point x="32" y="122"/>
			<point x="171" y="-14"/>
			<point x="392" y="-14" type="curve" smooth="yes"/>
			<point x="430" y="-14"/>
			<point x="467" y="-9"/>
			<point x="500" y="0" type="curve"/>
			<point x="546" y="-100"/>
			<point x="603" y="-192"/>
		</contour>
		<contour>
			<point x="408" y="3" type="curve" smooth="yes"/>
			<point x="345" y="3"/>
			<point x="298" y="53"/>
			<point x="282" y="232" type="curve"/>
			<point x="297" y="247"/>
			<point x="316" y="259"/>
			<point x="339" y="259" type="curve" smooth="yes"/>
			<point x="398" y="259"/>
			<point x="435" y="155"/>
			<point x="480" y="48" type="curve"/>
			<point x="463" y="14"/>
			<point x="439" y="3"/>
		</contour>
		<contour>
			<point x="509" y="182" type="curve"/>
			<point x="469" y="242"/>
			<point x="413" y="284"/>
			<point x="358" y="284" type="curve" smooth="yes"/>
			<point x="327" y="284"/>
			<point x="301" y="269"/>
			<point x="281" y="251" type="curve"/>
			<point x="278" y="288"/>
			<point x="277" y="330"/>
			<point x="277" y="377" type="curve" smooth="yes"/>
			<point x="277" y="658"/>
			<point x="317" y="727"/>
			<point x="390" y="727" type="curve" smooth="yes"/>
			<point x="472" y="727"/>
			<point x="515" y="650"/>
			<point x="515" y="355" type="curve" smooth="yes"/>
			<point x="515" y="285"/>
			<point x="513" y="228"/>
		</contour>
	</outline>
</glyph>
<glyph name="S" format="2">
	<unicode hex="0053"/>
	<advance width="602"/>
	<outline>
		<contour>
			<point x="298" y="-14" type="curve" smooth="yes"/>
			<point x="427" y="-14"/>
			<point x="585" y="63"/>
			<point x="585" y="232" type="curve" smooth="yes"/>
			<point x="585" y="379"/>
			<point x="452" y="431"/>
			<point x="354" y="466" type="curve" smooth="yes"/>
			<point x="279" y="493"/>
			<point x="204" y="519"/>
			<point x="204" y="620" type="curve" smooth="yes"/>
			<point x="204" y="693"/>
			<point x="249" y="727"/>
			<point x="318" y="727" type="curve" smooth="yes"/>
			<point x="415" y="727"/>
			<point x="473" y="655"/>
			<point x="527" y="519" type="curve"/>
			<point x="543" y="523" type="line"/>
			<point x="505" y="744" type="line"/>
			<point x="491" y="744" type="line"/>
			<point x="485" y="690" type="line"/>
			<point x="434" y="723"/>
			<point x="380" y="744"/>
			<point x="304" y="744" type="curve" smooth="yes"/>
			<point x="175" y="744"/>
			<point x="29" y="664"/>
			<point x="29" y="496" type="curve" smooth="yes"/>
			<point x="29" y="344"/>
			<point x="166" y="291"/>
			<point x="238" y="266" type="curve" smooth="yes"/>
			<point x="341" y="230"/>
			<point x="404" y="199"/>
			<point x="404" y="122" type="curve" smooth="yes"/>
			<point x="404" y="48"/>
			<point x="355" y="4"/>
			<point x="281" y="4" type="curve" smooth="yes"/>
			<point x="155" y="4"/>
			<point x="83" y="120"/>
			<point x="48" y="241" type="curve"/>
			<point x="33" y="237" type="line"/>
			<point x="44" y="-19" type="line"/>
			<point x="60" y="-19" type="line"/>
			<point x="86" y="55" type="line"/>
			<point x="155" y="7"/>
			<point x="230" y="-14"/>
		</contour>
	</outline>
	<anchor name="bottom" x="304" y="-30"/>
	<anchor name="top" x="302" y="730"/>
</glyph>
<glyph name="T" format="2">
	<unicode hex="0054"/>
	<advance width="741"/>
	<outline>
		<contour>
			<point x="170" y="0" type="line"/>
			<point x="574" y="0" type="line"/>
			<point x="574" y="12" type="line"/>
			<point x="533" y="14" type="line" smooth="yes"/>
			<point x="507" y="15"/>
			<point x="489" y="25"/>
			<point x="489" y="66" type="curve" smooth="yes"/>
			<point x="489" y="714" type="line"/>
			<point x="518" y="714" type="line" smooth="yes"/>
			<point x="605" y="714"/>
			<point x="651" y="655"/>
			<point x="703" y="506" type="curve"/>
			<point x="716" y="511" type="line"/>
			<point x="695" y="730" type="line"/>
			<point x="46" y="730" type="line"/>
			<point x="25" y="511" type="line"/>
			<point x="38" y="506" type="line"/>
			<point x="90" y="655"/>
			<point x="136" y="714"/>
			<point x="223" y="714" type="curve" smooth="yes"/>
			<point x="255" y="714" type="line"/>
			<point x="255" y="70" type="line" smooth="yes"/>
			<point x="255" y="26"/>
			<point x="239" y="15"/>
			<point x="214" y="14" type="curve" smooth="yes"/>
			<point x="170" y="12" type="line"/>
		</contour>
	</outline>
	<anchor name="bottom" x="370" y="-30"/>
	<anchor name="top" x="372" y="730"/>
</glyph>
<glyph name="Y" format="2">
	<unicode hex="0059"/>
	<advance width="771"/>
	<outline>
		<contour>
			<point x="205" y="0" type="line"/>
			<point x="564" y="0" type="line"/>
			<point x="564" y="12" type="line"/>
			<point x="538" y="14" type="line" smooth="yes"/>
			<point x="512" y="16"/>
			<point x="504" y="24"/>
			<point x="504" y="66" type="curve" smooth="yes"/>
			<point x="504" y="285" type="line"/>
			<point x="699" y="657" type="line" smooth="yes"/>
			<point x="719" y="695"/>
			<point x="732" y="709"/>
			<point x="764" y="714" type="curve" smooth="yes"/>
			<point x="796" y="718" type="line"/>
			<point x="796" y="730" type="line"/>
			<point x="603" y="730" type="line"/>
			<point x="603" y="718" type="line"/>
			<point x="648" y="713" type="line" smooth="yes"/>
			<point x="679" y="710"/>
			<point x="690" y="696"/>
			<point x="670" y="657" type="curve" smooth="yes"/>
			<point x="498" y="328" type="line"/>
			<point x="495" y="328" type="line"/>
			<point x="331" y="655" type="line" smooth="yes"/>
			<point x="309" y="698"/>
			<point x="324" y="711"/>
			<point x="356" y="714" type="curve" smooth="yes"/>
			<point x="400" y="718" type="line"/>
			<point x="400" y="730" type="line"/>
			<point x="-20" y="730" type="line"/>
			<point x="-20" y="718" type="line"/>
			<point x="10" y="713" type="line" smooth="yes"/>
			<point x="49" y="706"/>
			<point x="66" y="685"/>
			<point x="88" y="642" type="curve" smooth="yes"/>
			<point x="270" y="285" type="line"/>
			<point x="270" y="70" type="line" smooth="yes"/>
			<point x="270" y="26"/>
			<point x="264" y="15"/>
			<point x="239" y="14" type="curve" smooth="yes"/>
			<point x="205" y="12" type="line"/>
		</contour>
	</outline>
	<anchor name="bottom" x="387" y="-30"/>
	<anchor name="top" x="426" y="730"/>
</glyph>
<glyph name="bracketright" format="2">
	<unicode hex="005D"/>
	<advance width="417"/>
	<outline>
		<contour>
			<point x="56" y="-212" type="line"/>
			<point x="317" y="-212" type="line"/>
			<point x="317" y="812" type="line"/>
			<point x="56" y="812" type="line"/>
			<point x="55" y="800" type="line"/>
			<point x="126" y="794" type="line" smooth="yes"/>
			<point x="140" y="793"/>
			<point x="152" y="793"/>
			<point x="152" y="766" type="curve" smooth="yes"/>
			<point x="152" y="-161" type="line" smooth="yes"/>
			<point x="152" y="-190"/>
			<point x="145" y="-192"/>
			<point x="124" y="-194" type="curve" smooth="yes"/>
			<point x="55" y="-200" type="line"/>
		</contour>
	</outline>
</glyph>
<glyph name="asciicircum" format="2">
	<unicode hex="005E"/>
	<advance width="562"/>
	<outline>
		<contour>
			<point x="65" y="396" type="line"/>
			<point x="281" y="724" type="line"/>
			<point x="497" y="395" type="line"/>
			<point x="515" y="406" type="line"/>
			<point x="293" y="744" type="line"/>
			<point x="269" y="744" type="line"/>
			<point x="47" y="406" type="line"/>
		</contour>
	</outline>
</glyph>
<glyph name="b" format="2">
	<unicode hex="0062"/>
	<advance width="703"/>
	<outline>
		<contour>
			<point x="94" y="-12" type="line"/>
			<point x="237" y="35" type="line"/>
			<point x="284" y="8"/>
			<point x="331" y="-14"/>
			<point x="402" y="-14" type="curve" smooth="yes"/>
			<point x="575" y="-14"/>
			<point x="676" y="100"/>
			<point x="676" y="277" type="curve" smooth="yes"/>
			<point x="676" y="458"/>
			<point x="580" y="537"/>
			<point x="446" y="537" type="curve" smooth="yes"/>
			<point x="360" y="537"/>
			<point x="320" y="492"/>
			<point x="298" y="456" type="curve"/>
			<point x="297" y="456" type="line"/>
			<point x="297" y="761" type="line"/>
			<point x="290" y="769" type="line"/>
			<point x="11" y="757" type="line"/>
			<point x="10" y="745" type="line"/>
			<point x="37" y="742" type="line" smooth="yes"/>
			<point x="68" y="739"/>
			<point x="73" y="723"/>
			<point x="73" y="685" type="curve" smooth="yes"/>
			<point x="73" y="2" type="line"/>
		</contour>
		<contour>
			<point x="368" y="9" type="curve" smooth="yes"/>
			<point x="344" y="9"/>
			<point x="318" y="22"/>
			<point x="297" y="45" type="curve"/>
			<point x="297" y="376" type="line" smooth="yes"/>
			<point x="297" y="453"/>
			<point x="332" y="468"/>
			<point x="360" y="468" type="curve" smooth="yes"/>
			<point x="410" y="468"/>
			<point x="441" y="411"/>
			<point x="441" y="246" type="curve" smooth="yes"/>
			<point x="441" y="69"/>
			<point x="419" y="9"/>
		</contour>
	</outline>
</glyph>
<glyph name="f" format="2">
	<unicode hex="0066"/>
	<advance width="440"/>
	<outline>
		<contour>
			<point x="26" y="0" type="line"/>
			<point x="364" y="0" type="line"/>
			<point x="364" y="12" type="line"/>
			<point x="333" y="14" type="line" smooth="yes"/>
			<point x="303" y="16"/>
			<point x="303" y="27"/>
			<point x="303" y="58" type="curve" smooth="yes"/>
			<point x="303" y="507" type="line"/>
			<point x="444" y="507" type="line"/>
			<point x="444" y="523" type="line"/>
			<point x="303" y="523" type="line"/>
			<point x="303" y="663" type="line" smooth="yes"/>
			<point x="303" y="720"/>
			<point x="308" y="766"/>
			<point x="362" y="766" type="curve" smooth="yes"/>
			<point x="383" y="766"/>
			<point x="414" y="757"/>
			<point x="432" y="747" type="curve"/>
			<point x="385" y="683"/>
			<point x="368" y="654"/>
			<point x="368" y="628" type="curve" smooth="yes"/>
			<point x="368" y="592"/>
			<point x="401" y="570"/>
			<point x="449" y="570" type="curve" smooth="yes"/>
			<point x="513" y="570"/>
			<point x="540" y="608"/>
			<point x="540" y="652" type="curve" smooth="yes"/>
			<point x="540" y="715"/>
			<point x="486" y="782"/>
			<point x="344" y="782" type="curve" smooth="yes"/>
			<point x="138" y="782"/>
			<point x="80" y="640"/>
			<point x="80" y="530" type="curve" smooth="yes"/>
			<point x="80" y="523" type="line"/>
			<point x="26" y="517" type="line"/>
			<point x="26" y="507" type="line"/>
			<point x="80" y="507" type="line"/>
			<point x="80" y="57" type="line" smooth="yes"/>
			<point x="80" y="24"/>
			<point x="76" y="15"/>
			<point x="57" y="14" type="curve" smooth="yes"/>
			<point x="26" y="12" type="line"/>
		</contour>
	</outline>
</glyph>
<glyph name="h" format="2">
	<unicode hex="0068"/>
	<advance width="705"/>
	<outline>
		<contour>
			<point x="24" y="0" type="line"/>
			<point x="342" y="0" type="line"/>
			<point x="342" y="12" type="line"/>
			<point x="321" y="14" type="line" smooth="yes"/>
			<point x="304" y="16"/>
			<point x="301" y="23"/>
			<point x="301" y="58" type="curve" smooth="yes"/>
			<point x="301" y="364" type="line" smooth="yes"/>
			<point x="301" y="431"/>
			<point x="334" y="479"/>
			<point x="373" y="479" type="curve" smooth="yes"/>
			<point x="407" y="479"/>
			<point x="418" y="464"/>
			<point x="418" y="363" type="curve" smooth="yes"/>
			<point x="418" y="58" type="line" smooth="yes"/>
			<point x="418" y="25"/>
			<point x="414" y="16"/>
			<point x="395" y="14" type="curve" smooth="yes"/>
			<point x="374" y="12" type="line"/>
			<point x="374" y="0" type="line"/>
			<point x="695" y="0" type="line"/>
			<point x="695" y="12" type="line"/>
			<point x="671" y="14" type="line" smooth="yes"/>
			<point x="647" y="16"/>
			<point x="641" y="23"/>
			<point x="641" y="58" type="curve" smooth="yes"/>
			<point x="641" y="341" type="line" smooth="yes"/>
			<point x="641" y="474"/>
			<point x="577" y="537"/>
			<point x="462" y="537" type="curve" smooth="yes"/>
			<point x="381" y="537"/>
			<point x="326" y="498"/>
			<point x="302" y="439" type="curve"/>
			<point x="301" y="439" type="line"/>
			<point x="301" y="761" type="line"/>
			<point x="294" y="769" type="line"/>
			<point x="16" y="757" type="line"/>
			<point x="15" y="745" type="line"/>
			<point x="42" y="742" type="line" smooth="yes"/>
			<point x="73" y="739"/>
			<point x="78" y="723"/>
			<point x="78" y="685" type="curve" smooth="yes"/>
			<point x="78" y="57" type="line" smooth="yes"/>
			<point x="78" y="23"/>
			<point x="73" y="15"/>
			<point x="55" y="14" type="curve" smooth="yes"/>
			<point x="24" y="12" type="line"/>
		</contour>
	</outline>
	<anchor name="bottom" x="355" y="-30"/>
	<anchor name="top" x="175" y="782"/>
</glyph>
<glyph name="i" format="2">
	<unicode hex="0069"/>
	<advance width="379"/>
	<outline>
		<contour>
			<point x="28" y="0" type="line"/>
			<point x="360" y="0" type="line"/>
			<point x="360" y="12" type="line"/>
			<point x="336" y="14" type="line" smooth="yes"/>
			<point x="312" y="16"/>
			<point x="306" y="23"/>
			<point x="306" y="58" type="curve" smooth="yes"/>
			<point x="306" y="523" type="line"/>
			<point x="299" y="531" type="line"/>
			<point x="20" y="519" type="line"/>
			<point x="19" y="507" type="line"/>
			<point x="46" y="504" type="line" smooth="yes"/>
			<point x="77" y="501"/>
			<point x="82" y="485"/>
			<point x="82" y="447" type="curve" smooth="yes"/>
			<point x="82" y="57" type="line" smooth="yes"/>
			<point x="82" y="23"/>
			<point x="77" y="15"/>
			<point x="59" y="14" type="curve" smooth="yes"/>
			<point x="28" y="12" type="line"/>
		</contour>
		<contour>
			<point x="186" y="594" type="curve" smooth="yes"/>
			<point x="268" y="594"/>
			<point x="314" y="633"/>
			<point x="314" y="698" type="curve" smooth="yes"/>
			<point x="314" y="764"/>
			<point x="275" y="802"/>
			<point x="186" y="802" type="curve" smooth="yes"/>
			<point x="99" y="802"/>
			<point x="57" y="763"/>
			<point x="57" y="699" type="curve" smooth="yes"/>
			<point x="57" y="632"/>
			<point x="102" y="594"/>
		</contour>
	</outline>
	<anchor name="bottom" x="194" y="-30"/>
</glyph>
<glyph name="k" format="2">
	<unicode hex="006B"/>
	<advance width="729"/>
	<outline>
		<contour>
			<point x="564" y="-13" type="curve" smooth="yes"/>
			<point x="644" y="-13"/>
			<point x="702" y="19"/>
			<point x="742" y="72" type="curve"/>
			<point x="735" y="81" type="line"/>
			<point x="720" y="70"/>
			<point x="709" y="67"/>
			<point x="698" y="67" type="curve" smooth="yes"/>
			<point x="668" y="67"/>
			<point x="652" y="95"/>
			<point x="612" y="164" type="curve" smooth="yes"/>
			<point x="479" y="394" type="line"/>
			<point x="557" y="467" type="line" smooth="yes"/>
			<point x="592" y="500"/>
			<point x="621" y="504"/>
			<point x="646" y="508" type="curve" smooth="yes"/>
			<point x="668" y="511" type="line"/>
			<point x="668" y="523" type="line"/>
			<point x="481" y="523" type="line"/>
			<point x="481" y="511" type="line"/>
			<point x="526" y="506" type="line" smooth="yes"/>
			<point x="561" y="502"/>
			<point x="543" y="483"/>
			<point x="517" y="459" type="curve" smooth="yes"/>
			<point x="316" y="276" type="line"/>
			<point x="316" y="266" type="line"/>
			<point x="420" y="82" type="line" smooth="yes"/>
			<point x="457" y="16"/>
			<point x="502" y="-13"/>
		</contour>
		<contour>
			<point x="24" y="0" type="line"/>
			<point x="356" y="0" type="line"/>
			<point x="356" y="12" type="line"/>
			<point x="332" y="14" type="line" smooth="yes"/>
			<point x="308" y="16"/>
			<point x="302" y="23"/>
			<point x="302" y="58" type="curve" smooth="yes"/>
			<point x="302" y="761" type="line"/>
			<point x="295" y="769" type="line"/>
			<point x="16" y="757" type="line"/>
			<point x="15" y="745" type="line"/>
			<point x="42" y="742" type="line" smooth="yes"/>
			<point x="73" y="739"/>
			<point x="78" y="723"/>
			<point x="78" y="685" type="curve" smooth="yes"/>
			<point x="78" y="57" type="line" smooth="yes"/>
			<point x="78" y="23"/>
			<point x="73" y="15"/>
			<point x="55" y="14" type="curve" smooth="yes"/>
			<point x="24" y="12" type="line"/>
		</contour>
	</outline>
	<anchor name="bottom" x="342" y="-30"/>
	<anchor name="top" x="164" y="780"/>
</glyph>
<glyph name="l" format="2">
	<unicode hex="006C"/>
	<advance width="375"/>
	<outline>
		<contour>
			<point x="24" y="0" type="line"/>
			<point x="356" y="0" type="line"/>
			<point x="356" y="12" type="line"/>
			<point x="332" y="14" type="line" smooth="yes"/>
			<point x="308" y="16"/>
			<point x="302" y="23"/>
			<point x="302" y="58" type="curve" smooth="yes"/>
			<point x="302" y="761" type="line"/>
			<point x="295" y="769" type="line"/>
			<point x="16" y="757" type="line"/>
			<point x="15" y="745" type="line"/>
			<point x="42" y="742" type="line" smooth="yes"/>
			<point x="73" y="739"/>
			<point x="78" y="723"/>
			<point x="78" y="685" type="curve" smooth="yes"/>
			<point x="78" y="57" type="line" smooth="yes"/>
			<point x="78" y="23"/>
			<point x="73" y="15"/>
			<point x="55" y="14" type="curve" smooth="yes"/>
			<point x="24" y="12" type="line"/>
		</contour>
	</outline>
	<anchor name="bottom" x="188" y="-30"/>
	<anchor name="top" x="178" y="782"/>
</glyph>
<glyph name="m" format="2">
	<unicode hex="006D"/>
	<advance width="1033"/>
	<outline>
		<contour>
			<point x="24" y="0" type="line"/>
			<point x="338" y="0" type="line"/>
			<point x="338" y="12" type="line"/>
			<point x="321" y="14" type="line" smooth="yes"/>
			<point x="304" y="16"/>
			<point x="301" y="23"/>
			<point x="301" y="58" type="curve" smooth="yes"/>
			<point x="301" y="362" type="line" smooth="yes"/>
			<point x="301" y="423"/>
			<point x="334" y="479"/>
			<point x="370" y="479" type="curve" smooth="yes"/>
			<point x="401" y="479"/>
			<point x="412" y="464"/>
			<point x="412" y="363" type="curve" smooth="yes"/>
			<point x="412" y="58" type="line" smooth="yes"/>
			<point x="412" y="26"/>
			<point x="411" y="16"/>
			<point x="392" y="14" type="curve" smooth="yes"/>
			<point x="375" y="12" type="line"/>
			<point x="375" y="0" type="line"/>
			<point x="672" y="0" type="line"/>
			<point x="672" y="12" type="line"/>
			<point x="655" y="14" type="line" smooth="yes"/>
			<point x="638" y="16"/>
			<point x="635" y="23"/>
			<point x="635" y="58" type="curve" smooth="yes"/>
			<point x="635" y="356" type="line" smooth="yes"/>
			<point x="635" y="426"/>
			<point x="668" y="479"/>
			<point x="704" y="479" type="curve" smooth="yes"/>
			<point x="735" y="479"/>
			<point x="746" y="464"/>
			<point x="746" y="363" type="curve" smooth="yes"/>
			<point x="746" y="58" type="line" smooth="yes"/>
			<point x="746" y="26"/>
			<point x="745" y="16"/>
			<point x="726" y="14" type="curve" smooth="yes"/>
			<point x="709" y="12" type="line"/>
			<point x="709" y="0" type="line"/>
			<point x="1023" y="0" type="line"/>
			<point x="1023" y="12" type="line"/>
			<point x="999" y="14" type="line" smooth="yes"/>
			<point x="975" y="16"/>
			<point x="969" y="23"/>
			<point x="969" y="58" type="curve" smooth="yes"/>
			<point x="969" y="341" type="line" smooth="yes"/>
			<point x="969" y="474"/>
			<point x="905" y="537"/>
			<point x="793" y="537" type="curve" smooth="yes"/>
			<point x="709" y="537"/>
			<point x="655" y="496"/>
			<point x="627" y="416" type="curve"/>
			<point x="607" y="494"/>
			<point x="550" y="537"/>
			<point x="459" y="537" type="curve" smooth="yes"/>
			<point x="379" y="537"/>
			<point x="321" y="498"/>
			<point x="294" y="418" type="curve"/>
			<point x="293" y="418" type="line"/>
			<point x="294" y="523" type="line"/>
			<point x="287" y="531" type="line"/>
			<point x="16" y="519" type="line"/>
			<point x="15" y="507" type="line"/>
			<point x="42" y="504" type="line" smooth="yes"/>
			<point x="73" y="501"/>
			<point x="78" y="485"/>
			<point x="78" y="447" type="curve" smooth="yes"/>
			<point x="78" y="57" type="line" smooth="yes"/>
			<point x="78" y="23"/>
			<point x="73" y="15"/>
			<point x="55" y="14" type="curve" smooth="yes"/>
			<point x="24" y="12" type="line"/>
		</contour>
	</outline>
	<anchor name="bottom" x="519" y="-30"/>
</glyph>
<glyph name="n" format="2">
	<unicode hex="006E"/>
	<advance width="705"/>
	<outline>
		<contour>
			<point x="24" y="0" type="line"/>
			<point x="342" y="0" type="line"/>
			<point x="342" y="12" type="line"/>
			<point x="321" y="14" type="line" smooth="yes"/>
			<point x="304" y="16"/>
			<point x="301" y="23"/>
			<point x="301" y="58" type="curve" smooth="yes"/>
			<point x="301" y="362" type="line" smooth="yes"/>
			<point x="301" y="423"/>
			<point x="334" y="479"/>
			<point x="373" y="479" type="curve" smooth="yes"/>
			<point x="407" y="479"/>
			<point x="418" y="464"/>
			<point x="418" y="363" type="curve" smooth="yes"/>
			<point x="418" y="58" type="line" smooth="yes"/>
			<point x="418" y="25"/>
			<point x="414" y="16"/>
			<point x="395" y="14" type="curve" smooth="yes"/>
			<point x="374" y="12" type="line"/>
			<point x="374" y="0" type="line"/>
			<point x="695" y="0" type="line"/>
			<point x="695" y="12" type="line"/>
			<point x="671" y="14" type="line" smooth="yes"/>
			<point x="647" y="16"/>
			<point x="641" y="23"/>
			<point x="641" y="58" type="curve" smooth="yes"/>
			<point x="641" y="341" type="line" smooth="yes"/>
			<point x="641" y="474"/>
			<point x="577" y="537"/>
			<point x="462" y="537" type="curve" smooth="yes"/>
			<point x="379" y="537"/>
			<point x="321" y="498"/>
			<point x="294" y="418" type="curve"/>
			<point x="293" y="418" type="line"/>
			<point x="294" y="523" type="line"/>
			<point x="287" y="531" type="line"/>
			<point x="16" y="519" type="line"/>
			<point x="15" y="507" type="line"/>
			<point x="42" y="504" type="line" smooth="yes"/>
			<point x="73" y="501"/>
			<point x="78" y="485"/>
			<point x="78" y="447" type="curve" smooth="yes"/>
			<point x="78" y="57" type="line" smooth="yes"/>
			<point x="78" y="23"/>
			<point x="73" y="15"/>
			<point x="55" y="14" type="curve" smooth="yes"/>
			<point x="24" y="12" type="line"/>
		</contour>
	</outline>
	<anchor name="bottom" x="355" y="-30"/>
	<anchor name="top" x="372" y="550"/>
</glyph>
<glyph name="o" format="2">
	<unicode hex="006F"/>
	<advance width="671"/>
	<outline>
		<contour>
			<point x="327" y="-14" type="curve" smooth="yes"/>
			<point x="523" y="-14"/>
			<point x="644" y="94"/>
			<point x="644" y="273" type="curve" smooth="yes"/>
			<point x="644" y="455"/>
			<point x="525" y="537"/>
			<point x="347" y="537" type="curve" smooth="yes"/>
			<point x="153" y="537"/>
			<point x="27" y="439"/>
			<point x="27" y="249" type="curve" smooth="yes"/>
			<point x="27" y="78"/>
			<point x="146" y="-14"/>
		</contour>
		<contour>
			<point x="342" y="3" type="curve" smooth="yes"/>
			<point x="293" y="3"/>
			<point x="262" y="53"/>
			<point x="262" y="280" type="curve" smooth="yes"/>
			<point x="262" y="469"/>
			<point x="282" y="520"/>
			<point x="335" y="520" type="curve" smooth="yes"/>
			<point x="380" y="520"/>
			<point x="409" y="480"/>
			<point x="409" y="256" type="curve" smooth="yes"/>
			<point x="409" y="53"/>
			<point x="393" y="3"/>
		</contour>
	</outline>
	<anchor name="bottom" x="336" y="-30"/>
	<anchor name="top" x="332" y="550"/>
</glyph>
<glyph name="q" format="2">
	<unicode hex="0071"/>
	<advance width="696"/>
	<outline>
		<contour>
			<point x="335" y="-216" type="line"/>
			<point x="683" y="-216" type="line"/>
			<point x="683" y="-204" type="line"/>
			<point x="653" y="-202" type="line" smooth="yes"/>
			<point x="635" y="-201"/>
			<point x="630" y="-192"/>
			<point x="630" y="-159" type="curve" smooth="yes"/>
			<point x="630" y="527" type="line"/>
			<point x="617" y="535" type="line"/>
			<point x="476" y="493" type="line"/>
			<point x="408" y="522"/>
			<point x="372" y="537"/>
			<point x="301" y="537" type="curve" smooth="yes"/>
			<point x="128" y="537"/>
			<point x="27" y="423"/>
			<point x="27" y="246" type="curve" smooth="yes"/>
			<point x="27" y="65"/>
			<point x="123" y="-14"/>
			<point x="257" y="-14" type="curve" smooth="yes"/>
			<point x="343" y="-14"/>
			<point x="383" y="31"/>
			<point x="405" y="67" type="curve"/>
			<point x="406" y="67" type="line"/>
			<point x="406" y="-158" type="line" smooth="yes"/>
			<point x="406" y="-194"/>
			<point x="403" y="-200"/>
			<point x="371" y="-202" type="curve" smooth="yes"/>
			<point x="335" y="-204" type="line"/>
		</contour>
		<contour>
			<point x="343" y="55" type="curve" smooth="yes"/>
			<point x="293" y="55"/>
			<point x="262" y="112"/>
			<point x="262" y="277" type="curve" smooth="yes"/>
			<point x="262" y="454"/>
			<point x="284" y="514"/>
			<point x="335" y="514" type="curve" smooth="yes"/>
			<point x="356" y="514"/>
			<point x="382" y="502"/>
			<point x="406" y="477" type="curve"/>
			<point x="406" y="147" type="line" smooth="yes"/>
			<point x="406" y="70"/>
			<point x="371" y="55"/>
		</contour>
	</outline>
</glyph>
<glyph name="r" format="2">
	<unicode hex="0072"/>
	<advance width="585"/>
	<outline>
		<contour>
			<point x="24" y="0" type="line"/>
			<point x="372" y="0" type="line"/>
			<point x="372" y="12" type="line"/>
			<point x="331" y="14" type="line" smooth="yes"/>
			<point x="301" y="15"/>
			<point x="301" y="27"/>
			<point x="301" y="58" type="curve" smooth="yes"/>
			<point x="301" y="341" type="line" smooth="yes"/>
			<point x="301" y="464"/>
			<point x="397" y="523"/>
			<point x="457" y="497" type="curve"/>
			<point x="398" y="420"/>
			<point x="387" y="393"/>
			<point x="387" y="361" type="curve" smooth="yes"/>
			<point x="387" y="320"/>
			<point x="418" y="290"/>
			<point x="474" y="290" type="curve" smooth="yes"/>
			<point x="553" y="290"/>
			<point x="575" y="343"/>
			<point x="575" y="399" type="curve" smooth="yes"/>
			<point x="575" y="484"/>
			<point x="528" y="537"/>
			<point x="448" y="537" type="curve" smooth="yes"/>
			<point x="383" y="537"/>
			<point x="318" y="498"/>
			<point x="294" y="408" type="curve"/>
			<point x="292" y="408" type="line"/>
			<point x="291" y="523" type="line"/>
			<point x="284" y="531" type="line"/>
			<point x="16" y="519" type="line"/>
			<point x="15" y="507" type="line"/>
			<point x="42" y="504" type="line" smooth="yes"/>
			<point x="73" y="501"/>
			<point x="78" y="484"/>
			<point x="78" y="447" type="curve" smooth="yes"/>
			<point x="78" y="57" type="line" smooth="yes"/>
			<point x="78" y="24"/>
			<point x="74" y="15"/>
			<point x="55" y="14" type="curve" smooth="yes"/>
			<point x="24" y="12" type="line"/>
		</contour>
	</outline>
	<anchor name="bottom" x="194" y="-30"/>
	<anchor name="top" x="296" y="550"/>
</glyph>
<glyph name="s" format="2">
	<unicode hex="0073"/>
	<advance width="507"/>
	<outline>
		<contour>
			<point x="58" y="-19" type="line"/>
			<point x="72" y="-19" type="line"/>
			<point x="87" y="29" type="line"/>
			<point x="126" y="4"/>
			<point x="189" y="-14"/>
			<point x="244" y="-14" type="curve" smooth="yes"/>
			<point x="378" y="-14"/>
			<point x="482" y="57"/>
			<point x="482" y="184" type="curve" smooth="yes"/>
			<point x="482" y="296"/>
			<point x="422" y="331"/>
			<point x="311" y="368" type="curve" smooth="yes"/>
			<point x="243" y="391"/>
			<point x="184" y="405"/>
			<point x="184" y="458" type="curve" smooth="yes"/>
			<point x="184" y="498"/>
			<point x="216" y="520"/>
			<point x="272" y="520" type="curve" smooth="yes"/>
			<point x="345" y="520"/>
			<point x="393" y="483"/>
			<point x="429" y="365" type="curve"/>
			<point x="448" y="363" type="line"/>
			<point x="431" y="537" type="line"/>
			<point x="418" y="537" type="line"/>
			<point x="407" y="500" type="line"/>
			<point x="356" y="529"/>
			<point x="313" y="537"/>
			<point x="264" y="537" type="curve" smooth="yes"/>
			<point x="128" y="537"/>
			<point x="42" y="470"/>
			<point x="42" y="359" type="curve" smooth="yes"/>
			<point x="42" y="255"/>
			<point x="93" y="218"/>
			<point x="228" y="175" type="curve" smooth="yes"/>
			<point x="278" y="159"/>
			<point x="340" y="149"/>
			<point x="340" y="91" type="curve" smooth="yes"/>
			<point x="340" y="31"/>
			<point x="296" y="5"/>
			<point x="241" y="5" type="curve" smooth="yes"/>
			<point x="142" y="5"/>
			<point x="91" y="55"/>
			<point x="56" y="197" type="curve"/>
			<point x="40" y="194" type="line"/>
		</contour>
	</outline>
	<anchor name="bottom" x="253" y="-30"/>
	<anchor name="top" x="251" y="550"/>
</glyph>
<glyph name="u" format="2">
	<unicode hex="0075"/>
	<advance width="699"/>
	<outline>
		<contour>
			<point x="243" y="-14" type="curve" smooth="yes"/>
			<point x="328" y="-14"/>
			<point x="376" y="20"/>
			<point x="403" y="96" type="curve"/>
			<point x="405" y="96" type="line"/>
			<point x="434" y="-8" type="line"/>
			<point x="683" y="4" type="line"/>
			<point x="684" y="16" type="line"/>
			<point x="657" y="19" type="line" smooth="yes"/>
			<point x="626" y="22"/>
			<point x="621" y="38"/>
			<point x="621" y="76" type="curve" smooth="yes"/>
			<point x="621" y="523" type="line"/>
			<point x="612" y="531" type="line"/>
			<point x="348" y="523" type="line"/>
			<point x="348" y="511" type="line"/>
			<point x="372" y="509" type="line" smooth="yes"/>
			<point x="395" y="507"/>
			<point x="398" y="490"/>
			<point x="398" y="463" type="curve" smooth="yes"/>
			<point x="398" y="161" type="line" smooth="yes"/>
			<point x="398" y="100"/>
			<point x="368" y="44"/>
			<point x="332" y="44" type="curve" smooth="yes"/>
			<point x="298" y="44"/>
			<point x="287" y="59"/>
			<point x="287" y="160" type="curve" smooth="yes"/>
			<point x="287" y="523" type="line"/>
			<point x="278" y="531" type="line"/>
			<point x="10" y="523" type="line"/>
			<point x="10" y="511" type="line"/>
			<point x="34" y="509" type="line" smooth="yes"/>
			<point x="58" y="507"/>
			<point x="64" y="500"/>
			<point x="64" y="465" type="curve" smooth="yes"/>
			<point x="64" y="182" type="line" smooth="yes"/>
			<point x="64" y="49"/>
			<point x="128" y="-14"/>
		</contour>
	</outline>
	<anchor name="bottom" x="344" y="-30"/>
	<anchor name="top" x="332" y="550"/>
</glyph>
<glyph name="braceleft" format="2">
	<unicode hex="007B"/>
	<advance width="472"/>
	<outline>
		<contour>
			<point x="279" y="-222" type="curve" smooth="yes"/>
			<point x="342" y="-222"/>
			<point x="378" y="-220"/>
			<point x="417" y="-214" type="curve"/>
			<point x="415" y="-202" type="line"/>
			<point x="394" y="-205"/>
			<point x="378" y="-206"/>
			<point x="364" y="-206" type="curve" smooth="yes"/>
			<point x="346" y="-206"/>
			<point x="317" y="-206"/>
			<point x="317" y="-140" type="curve" smooth="yes"/>
			<point x="317" y="-37"/>
			<point x="336" y="94"/>
			<point x="336" y="179" type="curve" smooth="yes"/>
			<point x="336" y="293"/>
			<point x="242" y="313"/>
			<point x="136" y="323" type="curve"/>
			<point x="242" y="333"/>
			<point x="336" y="353"/>
			<point x="336" y="467" type="curve" smooth="yes"/>
			<point x="336" y="532"/>
			<point x="317" y="652"/>
			<point x="317" y="735" type="curve" smooth="yes"/>
			<point x="317" y="801"/>
			<point x="346" y="801"/>
			<point x="364" y="801" type="curve" smooth="yes"/>
			<point x="378" y="801"/>
			<point x="394" y="800"/>
			<point x="415" y="797" type="curve"/>
			<point x="417" y="809" type="line"/>
			<point x="378" y="815"/>
			<point x="342" y="817"/>
			<point x="279" y="817" type="curve" smooth="yes"/>
			<point x="154" y="817"/>
			<point x="117" y="783"/>
			<point x="117" y="709" type="curve" smooth="yes"/>
			<point x="117" y="643"/>
			<point x="141" y="497"/>
			<point x="141" y="420" type="curve" smooth="yes"/>
			<point x="141" y="336"/>
			<point x="117" y="330"/>
			<point x="45" y="329" type="curve"/>
			<point x="45" y="317" type="line"/>
			<point x="117" y="316"/>
			<point x="141" y="310"/>
			<point x="141" y="226" type="curve" smooth="yes"/>
			<point x="141" y="129"/>
			<point x="117" y="-28"/>
			<point x="117" y="-114" type="curve" smooth="yes"/>
			<point x="117" y="-188"/>
			<point x="154" y="-222"/>
		</contour>
	</outline>
</glyph>
<glyph name="braceright" format="2">
	<unicode hex="007D"/>
	<advance width="472"/>
	<outline>
		<contour>
			<point x="193" y="-222" type="curve" smooth="yes"/>
			<point x="318" y="-222"/>
			<point x="355" y="-188"/>
			<point x="355" y="-114" type="curve" smooth="yes"/>
			<point x="355" y="-28"/>
			<point x="331" y="129"/>
			<point x="331" y="226" type="curve" smooth="yes"/>
			<point x="331" y="310"/>
			<point x="355" y="316"/>
			<point x="427" y="317" type="curve"/>
			<point x="427" y="329" type="line"/>
			<point x="355" y="330"/>
			<point x="331" y="336"/>
			<point x="331" y="420" type="curve" smooth="yes"/>
			<point x="331" y="497"/>
			<point x="355" y="643"/>
			<point x="355" y="709" type="curve" smooth="yes"/>
			<point x="355" y="783"/>
			<point x="318" y="817"/>
			<point x="193" y="817" type="curve" smooth="yes"/>
			<point x="130" y="817"/>
			<point x="94" y="815"/>
			<point x="55" y="809" type="curve"/>
			<point x="57" y="797" type="line"/>
			<point x="78" y="800"/>
			<point x="94" y="801"/>
			<point x="108" y="801" type="curve" smooth="yes"/>
			<point x="126" y="801"/>
			<point x="155" y="801"/>
			<point x="155" y="735" type="curve" smooth="yes"/>
			<point x="155" y="652"/>
			<point x="136" y="532"/>
			<point x="136" y="467" type="curve" smooth="yes"/>
			<point x="136" y="353"/>
			<point x="230" y="333"/>
			<point x="336" y="323" type="curve"/>
			<point x="230" y="313"/>
			<point x="136" y="293"/>
			<point x="136" y="179" type="curve" smooth="yes"/>
			<point x="136" y="94"/>
			<point x="155" y="-37"/>
			<point x="155" y="-140" type="curve" smooth="yes"/>
			<point x="155" y="-206"/>
			<point x="126" y="-206"/>
			<point x="108" y="-206" type="curve" smooth="yes"/>
			<point x="94" y="-206"/>
			<point x="78" y="-205"/>
			<point x="57" y="-202" type="curve"/>
			<point x="55" y="-214" type="line"/>
			<point x="94" y="-220"/>
			<point x="130" y="-222"/>
		</contour>
	</outline>
</glyph>
<glyph name="asciitilde" format="2">
	<unicode hex="007E"/>
	<advance width="597"/>
	<outline>
		<contour>
			<point x="77" y="231" type="line"/>
			<point x="93" y="262"/>
			<point x="112" y="275"/>
			<point x="149" y="275" type="curve" smooth="yes"/>
			<point x="186" y="275"/>
			<point x="244" y="258"/>
			<point x="297" y="241" type="curve" smooth="yes"/>
			<point x="356" y="222"/>
			<point x="391" y="214"/>
			<point x="427" y="214" type="curve" smooth="yes"/>
			<point x="474" y="214"/>
			<point x="501" y="259"/>
			<point x="539" y="384" type="curve"/>
			<point x="520" y="390" type="line"/>
			<point x="504" y="359"/>
			<point x="485" y="346"/>
			<point x="448" y="346" type="curve" smooth="yes"/>
			<point x="414" y="346"/>
			<point x="370" y="360"/>
			<point x="320" y="375" type="curve" smooth="yes"/>
			<point x="269" y="390"/>
			<point x="219" y="407"/>
			<point x="177" y="407" type="curve" smooth="yes"/>
			<point x="117" y="407"/>
			<point x="89" y="353"/>
			<point x="58" y="237" type="curve"/>
		</contour>
	</outline>
</glyph>
<glyph name="yen" format="2">
	<unicode hex="00A5"/>
	<advance width="796"/>
	<outline>
		<contour>
			<point x="215" y="0" type="line"/>
			<point x="574" y="0" type="line"/>
			<point x="574" y="12" type="line"/>
			<point x="548" y="14" type="line" smooth="yes"/>
			<point x="522" y="16"/>
			<point x="514" y="24"/>
			<point x="514" y="66" type="curve" smooth="yes"/>
			<point x="514" y="245" type="line"/>
			<point x="709" y="245" type="line"/>
			<point x="709" y="269" type="line"/>
			<point x="514" y="269" type="line"/>
			<point x="514" y="285" type="line"/>
			<point x="559" y="370" type="line"/>
			<point x="711" y="370" type="line"/>
			<point x="711" y="395" type="line"/>
			<point x="572" y="395" type="line"/>
			<point x="709" y="657" type="line" smooth="yes"/>
			<point x="729" y="695"/>
			<point x="742" y="709"/>
			<point x="774" y="714" type="curve" smooth="yes"/>
			<point x="806" y="718" type="line"/>
			<point x="806" y="730" type="line"/>
			<point x="613" y="730" type="line"/>
			<point x="613" y="718" type="line"/>
			<point x="658" y="713" type="line" smooth="yes"/>
			<point x="689" y="710"/>
			<point x="700" y="696"/>
			<point x="680" y="657" type="curve" smooth="yes"/>
			<point x="508" y="328" type="line"/>
			<point x="505" y="328" type="line"/>
			<point x="341" y="655" type="line" smooth="yes"/>
			<point x="319" y="698"/>
			<point x="334" y="711"/>
			<point x="366" y="714" type="curve" smooth="yes"/>
			<point x="410" y="718" type="line"/>
			<point x="410" y="730" type="line"/>
			<point x="-10" y="730" type="line"/>
			<point x="-10" y="718" type="line"/>
			<point x="20" y="713" type="line" smooth="yes"/>
			<point x="59" y="706"/>
			<point x="76" y="685"/>
			<point x="98" y="642" type="curve" smooth="yes"/>
			<point x="224" y="395" type="line"/>
			<point x="86" y="395" type="line"/>
			<point x="83" y="371" type="line"/>
			<point x="236" y="371" type="line"/>
			<point x="280" y="285" type="line"/>
			<point x="280" y="269" type="line"/>
			<point x="83" y="269" type="line"/>
			<point x="80" y="245" type="line"/>
			<point x="280" y="245" type="line"/>
			<point x="280" y="70" type="line" smooth="yes"/>
			<point x="280" y="26"/>
			<point x="274" y="15"/>
			<point x="249" y="14" type="curve" smooth="yes"/>
			<point x="215" y="12" type="line"/>
		</contour>
	</outline>
	<anchor name="bottom" x="397" y="-30"/>
	<anchor name="top" x="436" y="730"/>
</glyph>
<glyph name="copyright" format="2">
	<unicode hex="00A9"/>
	<advance width="815"/>
	<outline>
		<contour>
			<point x="407" y="-13" type="curve" smooth="yes"/>
			<point x="621" y="-13"/>
			<point x="765" y="122"/>
			<point x="765" y="334" type="curve" smooth="yes"/>
			<point x="765" y="540"/>
			<point x="622" y="666"/>
			<point x="409" y="666" type="curve" smooth="yes"/>
			<point x="215" y="666"/>
			<point x="50" y="541"/>
			<point x="50" y="320" type="curve" smooth="yes"/>
			<point x="50" y="127"/>
			<point x="171" y="-13"/>
		</contour>
		<contour>
			<point x="409" y="14" type="curve" smooth="yes"/>
			<point x="197" y="14"/>
			<point x="79" y="128"/>
			<point x="79" y="320" type="curve" smooth="yes"/>
			<point x="79" y="523"/>
			<point x="226" y="639"/>
			<point x="409" y="639" type="curve" smooth="yes"/>
			<point x="598" y="639"/>
			<point x="736" y="534"/>
			<point x="736" y="328" type="curve" smooth="yes"/>
			<point x="736" y="136"/>
			<point x="605" y="14"/>
		</contour>
		<contour>
			<point x="422" y="110" type="curve" smooth="yes"/>
			<point x="523" y="110"/>
			<point x="565" y="155"/>
			<point x="605" y="208" type="curve"/>
			<point x="595" y="218" type="line"/>
			<point x="566" y="184"/>
			<point x="530" y="155"/>
			<point x="487" y="155" type="curve" smooth="yes"/>
			<point x="402" y="155"/>
			<point x="389" y="256"/>
			<point x="389" y="326" type="curve" smooth="yes"/>
			<point x="389" y="426"/>
			<point x="408" y="517"/>
			<point x="458" y="517" type="curve" smooth="yes"/>
			<point x="513" y="517"/>
			<point x="541" y="465"/>
			<point x="578" y="380" type="curve"/>
			<point x="592" y="384" type="line"/>
			<point x="560" y="542" type="line"/>
			<point x="548" y="542" type="line"/>
			<point x="543" y="500" type="line"/>
			<point x="518" y="517"/>
			<point x="492" y="536"/>
			<point x="426" y="536" type="curve" smooth="yes"/>
			<point x="294" y="536"/>
			<point x="200" y="464"/>
			<point x="200" y="320" type="curve" smooth="yes"/>
			<point x="200" y="212"/>
			<point x="277" y="110"/>
		</contour>
	</outline>
</glyph>
<glyph name="macron" format="2">
	<unicode hex="00AF"/>
	<advance width="500"/>
	<outline>
		<contour>
			<point x="76" y="625" type="line"/>
			<point x="424" y="625" type="line"/>
			<point x="424" y="749" type="line"/>
			<point x="76" y="749" type="line"/>
		</contour>
	</outline>
	<anchor name="_top" x="250" y="550"/>
</glyph>
<glyph name="degree" format="2">
	<unicode hex="00B0"/>
	<advance width="313"/>
	<outline>
		<contour>
			<point x="153" y="546" type="curve" smooth="yes"/>
			<point x="229" y="546"/>
			<point x="272" y="600"/>
			<point x="272" y="666" type="curve" smooth="yes"/>
			<point x="272" y="734"/>
			<point x="229" y="781"/>
			<point x="154" y="781" type="curve" smooth="yes"/>
			<point x="76" y="781"/>
			<point x="36" y="726"/>
			<point x="36" y="664" type="curve" smooth="yes"/>
			<point x="36" y="597"/>
			<point x="74" y="546"/>
		</contour>
		<contour>
			<point x="155" y="579" type="curve" smooth="yes"/>
			<point x="99" y="579"/>
			<point x="72" y="615"/>
			<point x="72" y="664" type="curve" smooth="yes"/>
			<point x="72" y="714"/>
			<point x="103" y="748"/>
			<point x="151" y="748" type="curve" smooth="yes"/>
			<point x="204" y="748"/>
			<point x="236" y="715"/>
			<point x="236" y="664" type="curve" smooth="yes"/>
			<point x="236" y="615"/>
			<point x="204" y="579"/>
		</contour>
	</outline>
</glyph>
<glyph name="threesuperior" format="2">
	<unicode hex="00B3"/>
	<advance width="427"/>
	<outline>
		<contour>
			<point x="204" y="362" type="curve" smooth="yes"/>
			<point x="331" y="362"/>
			<point x="402" y="423"/>
			<point x="402" y="498" type="curve" smooth="yes"/>
			<point x="402" y="577"/>
			<point x="336" y="623"/>
			<point x="243" y="618" type="curve"/>
			<point x="243" y="620" type="line"/>
			<point x="338" y="635"/>
			<point x="391" y="671"/>
			<point x="391" y="733" type="curve" smooth="yes"/>
			<point x="391" y="821"/>
			<point x="312" y="851"/>
			<point x="206" y="851" type="curve" smooth="yes"/>
			<point x="91" y="851"/>
			<point x="25" y="801"/>
			<point x="25" y="743" type="curve" smooth="yes"/>
			<point x="25" y="707"/>
			<point x="50" y="680"/>
			<point x="95" y="680" type="curve" smooth="yes"/>
			<point x="130" y="680"/>
			<point x="150" y="699"/>
			<point x="150" y="724" type="curve" smooth="yes"/>
			<point x="150" y="748"/>
			<point x="123" y="784"/>
			<point x="103" y="818" type="curve"/>
			<point x="123" y="827"/>
			<point x="140" y="832"/>
			<point x="165" y="832" type="curve" smooth="yes"/>
			<point x="204" y="832"/>
			<point x="228" y="795"/>
			<point x="228" y="729" type="curve" smooth="yes"/>
			<point x="228" y="655"/>
			<point x="204" y="621"/>
			<point x="130" y="614" type="curve"/>
			<point x="128" y="599" type="line"/>
			<point x="190" y="602"/>
			<point x="222" y="587"/>
			<point x="222" y="485" type="curve" smooth="yes"/>
			<point x="222" y="433"/>
			<point x="201" y="392"/>
			<point x="147" y="392" type="curve" smooth="yes"/>
			<point x="88" y="392"/>
			<point x="49" y="433"/>
			<point x="32" y="462" type="curve"/>
			<point x="20" y="455" type="line"/>
			<point x="40" y="422"/>
			<point x="73" y="362"/>
		</contour>
	</outline>
</glyph>
<glyph name="paragraph" format="2">
	<unicode hex="00B6"/>
	<advance width="659"/>
	<outline>
		<contour>
			<point x="247" y="-114" type="line"/>
			<point x="559" y="-114" type="line"/>
			<point x="559" y="667" type="line" smooth="yes"/>
			<point x="559" y="704"/>
			<point x="565" y="716"/>
			<point x="590" y="717" type="curve" smooth="yes"/>
			<point x="624" y="718" type="line"/>
			<point x="624" y="730" type="line"/>
			<point x="379" y="730" type="line"/>
			<point x="379" y="-41" type="line" smooth="yes"/>
			<point x="379" y="-85"/>
			<point x="373" y="-96"/>
			<point x="348" y="-97" type="curve" smooth="yes"/>
			<point x="247" y="-102" type="line"/>
		</contour>
		<contour>
			<point x="293" y="271" type="curve" smooth="yes"/>
			<point x="316" y="271" type="line"/>
			<point x="316" y="730" type="line"/>
			<point x="302" y="730" type="line" smooth="yes"/>
			<point x="118" y="730"/>
			<point x="45" y="635"/>
			<point x="45" y="493" type="curve" smooth="yes"/>
			<point x="45" y="352"/>
			<point x="139" y="271"/>
		</contour>
	</outline>
</glyph>
<glyph name="ordmasculine" format="2">
	<unicode hex="00BA"/>
	<advance width="480"/>
	<outline>
		<contour>
			<point x="234" y="361" type="curve" smooth="yes"/>
			<point x="365" y="362"/>
			<point x="462" y="436"/>
			<point x="462" y="560" type="curve" smooth="yes"/>
			<point x="462" y="686"/>
			<point x="366" y="744"/>
			<point x="248" y="743" type="curve" smooth="yes"/>
			<point x="118" y="742"/>
			<point x="18" y="675"/>
			<point x="18" y="544" type="curve" smooth="yes"/>
			<point x="18" y="425"/>
			<point x="113" y="361"/>
		</contour>
		<contour>
			<point x="244" y="378" type="curve" smooth="yes"/>
			<point x="215" y="378"/>
			<point x="196" y="414"/>
			<point x="196" y="565" type="curve" smooth="yes"/>
			<point x="196" y="691"/>
			<point x="207" y="727"/>
			<point x="239" y="727" type="curve" smooth="yes"/>
			<point x="265" y="728"/>
			<point x="284" y="699"/>
			<point x="284" y="548" type="curve" smooth="yes"/>
			<point x="284" y="414"/>
			<point x="274" y="378"/>
		</contour>
	</outline>
</glyph>
<glyph name="Oslash" format="2">
	<unicode hex="00D8"/>
	<advance width="792"/>
	<outline>
		<contour>
			<point x="94" y="-14" type="line"/>
			<point x="125" y="-14" type="line"/>
			<point x="173" y="49" type="line"/>
			<point x="231" y="8"/>
			<point x="305" y="-14"/>
			<point x="392" y="-14" type="curve" smooth="yes"/>
			<point x="633" y="-14"/>
			<point x="760" y="150"/>
			<point x="760" y="383" type="curve" smooth="yes"/>
			<point x="760" y="511"/>
			<point x="717" y="606"/>
			<point x="645" y="667" type="curve"/>
			<point x="704" y="744" type="line"/>
			<point x="673" y="744" type="line"/>
			<point x="626" y="682" type="line"/>
			<point x="567" y="723"/>
			<point x="493" y="744"/>
			<point x="409" y="744" type="curve" smooth="yes"/>
			<point x="180" y="744"/>
			<point x="32" y="613"/>
			<point x="32" y="352" type="curve" smooth="yes"/>
			<point x="32" y="227"/>
			<point x="76" y="127"/>
			<point x="153" y="64" type="curve"/>
		</contour>
		<contour>
			<point x="410" y="3" type="curve" smooth="yes"/>
			<point x="351" y="3"/>
			<point x="305" y="47"/>
			<point x="286" y="197" type="curve"/>
			<point x="511" y="491" type="line"/>
			<point x="514" y="452"/>
			<point x="515" y="407"/>
			<point x="515" y="355" type="curve" smooth="yes"/>
			<point x="515" y="68"/>
			<point x="485" y="3"/>
		</contour>
		<contour>
			<point x="283" y="233" type="line"/>
			<point x="279" y="274"/>
			<point x="277" y="322"/>
			<point x="277" y="377" type="curve" smooth="yes"/>
			<point x="277" y="658"/>
			<point x="317" y="727"/>
			<point x="390" y="727" type="curve" smooth="yes"/>
			<point x="453" y="727"/>
			<point x="493" y="682"/>
			<point x="508" y="528" type="curve"/>
		</contour>
	</outline>
	<anchor name="bottom" x="401" y="-30"/>
	<anchor name="top" x="398" y="730"/>
</glyph>
<glyph name="ccedilla" format="2">
	<unicode hex="00E7"/>
	<advance width="575"/>
	<outline>
		<contour>
			<point x="319" y="-258" type="curve" smooth="yes"/>
			<point x="398" y="-258"/>
			<point x="447" y="-215"/>
			<point x="447" y="-142" type="curve" smooth="yes"/>
			<point x="447" y="-65"/>
			<point x="358" y="-15"/>
			<point x="257" y="-71" type="curve"/>
			<point x="283" y="-14" type="line"/>
			<point x="422" y="-14"/>
			<point x="506" y="33"/>
			<point x="560" y="160" type="curve"/>
			<point x="552" y="167" type="line"/>
			<point x="502" y="135"/>
			<point x="459" y="116"/>
			<point x="398" y="116" type="curve" smooth="yes"/>
			<point x="299" y="116"/>
			<point x="255" y="186"/>
			<point x="255" y="307" type="curve" smooth="yes"/>
			<point x="255" y="463"/>
			<point x="290" y="520"/>
			<point x="351" y="520" type="curve" smooth="yes"/>
			<point x="380" y="520"/>
			<point x="417" y="507"/>
			<point x="438" y="489" type="curve"/>
			<point x="390" y="415"/>
			<point x="379" y="382"/>
			<point x="379" y="355" type="curve" smooth="yes"/>
			<point x="379" y="318"/>
			<point x="410" y="292"/>
			<point x="461" y="292" type="curve" smooth="yes"/>
			<point x="529" y="292"/>
			<point x="556" y="344"/>
			<point x="556" y="382" type="curve" smooth="yes"/>
			<point x="556" y="459"/>
			<point x="480" y="537"/>
			<point x="342" y="537" type="curve" smooth="yes"/>
			<point x="136" y="537"/>
			<point x="27" y="409"/>
			<point x="27" y="247" type="curve" smooth="yes"/>
			<point x="27" y="99"/>
			<point x="113" y="2"/>
			<point x="264" y="-12" type="curve"/>
			<point x="231" y="-85" type="line"/>
			<point x="238" y="-96" type="line"/>
			<point x="251" y="-92"/>
			<point x="263" y="-88"/>
			<point x="278" y="-88" type="curve" smooth="yes"/>
			<point x="304" y="-88"/>
			<point x="319" y="-109"/>
			<point x="319" y="-140" type="curve" smooth="yes"/>
			<point x="319" y="-170"/>
			<point x="301" y="-195"/>
			<point x="260" y="-195" type="curve" smooth="yes"/>
			<point x="234" y="-195"/>
			<point x="201" y="-185"/>
			<point x="169" y="-161" type="curve"/>
			<point x="157" y="-172" type="line"/>
			<point x="202" y="-235"/>
			<point x="256" y="-258"/>
		</contour>
	</outline>
	<anchor name="bottom" x="312" y="-30"/>
	<anchor name="top" x="319" y="550"/>
</glyph>
<glyph name="divide" format="2">
	<unicode hex="00F7"/>
	<advance width="582"/>
	<outline>
		<contour>
			<point x="67" y="295" type="line"/>
			<point x="515" y="295" type="line"/>
			<point x="515" y="318" type="line"/>
			<point x="67" y="318" type="line"/>
		</contour>
		<contour>
			<point x="290" y="73" type="curve" smooth="yes"/>
			<point x="337" y="73"/>
			<point x="370" y="105"/>
			<point x="370" y="147" type="curve" smooth="yes"/>
			<point x="370" y="190"/>
			<point x="337" y="222"/>
			<point x="290" y="222" type="curve" smooth="yes"/>
			<point x="244" y="222"/>
			<point x="211" y="188"/>
			<point x="211" y="147" type="curve" smooth="yes"/>
			<point x="211" y="105"/>
			<point x="244" y="73"/>
		</contour>
		<contour>
			<point x="290" y="388" type="curve" smooth="yes"/>
			<point x="337" y="388"/>
			<point x="370" y="420"/>
			<point x="370" y="463" type="curve" smooth="yes"/>
			<point x="370" y="505"/>
			<point x="337" y="537"/>
			<point x="290" y="537" type="curve" smooth="yes"/>
			<point x="244" y="537"/>
			<point x="211" y="503"/>
			<point x="211" y="462" type="curve" smooth="yes"/>
			<point x="211" y="420"/>
			<point x="244" y="388"/>
		</contour>
	</outline>
</glyph>
<glyph name="aogonek" format="2">
	<unicode hex="0105"/>
	<advance width="609"/>
	<outline>
		<contour>
			<point x="443" y="-252" type="curve" smooth="yes"/>
			<point x="505" y="-252"/>
			<point x="571" y="-206"/>
			<point x="604" y="-141" type="curve"/>
			<point x="597" y="-134" type="line"/>
			<point x="573" y="-151"/>
			<point x="549" y="-161"/>
			<point x="527" y="-161" type="curve" smooth="yes"/>
			<point x="499" y="-161"/>
			<point x="481" y="-141"/>
			<point x="481" y="-110" type="curve" smooth="yes"/>
			<point x="481" y="-63"/>
			<point x="521" y="-15"/>
			<point x="613" y="48" type="curve"/>
			<point x="608" y="56" type="line"/>
			<point x="595" y="50"/>
			<point x="586" y="48"/>
			<point x="572" y="48" type="curve" smooth="yes"/>
			<point x="552" y="48"/>
			<point x="542" y="63"/>
			<point x="542" y="95" type="curve" smooth="yes"/>
			<point x="542" y="322" type="line" smooth="yes"/>
			<point x="542" y="472"/>
			<point x="465" y="537"/>
			<point x="289" y="537" type="curve" smooth="yes"/>
			<point x="152" y="537"/>
			<point x="39" y="467"/>
			<point x="39" y="383" type="curve" smooth="yes"/>
			<point x="39" y="334"/>
			<point x="71" y="306"/>
			<point x="128" y="306" type="curve" smooth="yes"/>
			<point x="177" y="306"/>
			<point x="210" y="331"/>
			<point x="210" y="367" type="curve" smooth="yes"/>
			<point x="210" y="392"/>
			<point x="191" y="423"/>
			<point x="139" y="482" type="curve"/>
			<point x="157" y="500"/>
			<point x="205" y="517"/>
			<point x="239" y="517" type="curve" smooth="yes"/>
			<point x="297" y="517"/>
			<point x="318" y="490"/>
			<point x="318" y="416" type="curve" smooth="yes"/>
			<point x="318" y="280" type="line"/>
			<point x="94" y="265"/>
			<point x="27" y="229"/>
			<point x="27" y="123" type="curve" smooth="yes"/>
			<point x="27" y="36"/>
			<point x="81" y="-14"/>
			<point x="176" y="-14" type="curve" smooth="yes"/>
			<point x="259" y="-14"/>
			<point x="306" y="15"/>
			<point x="329" y="79" type="curve"/>
			<point x="352" y="4"/>
			<point x="415" y="-23"/>
			<point x="498" y="-12" type="curve"/>
			<point x="371" y="-68"/>
			<point x="330" y="-105"/>
			<point x="330" y="-164" type="curve" smooth="yes"/>
			<point x="330" y="-219"/>
			<point x="372" y="-252"/>
		</contour>
		<contour>
			<point x="280" y="57" type="curve" smooth="yes"/>
			<point x="253" y="57"/>
			<point x="244" y="80"/>
			<point x="244" y="147" type="curve" smooth="yes"/>
			<point x="244" y="234"/>
			<point x="260" y="259"/>
			<point x="318" y="264" type="curve"/>
			<point x="318" y="118" type="line" smooth="yes"/>
			<point x="318" y="78"/>
			<point x="305" y="57"/>
		</contour>
	</outline>
	<anchor name="bottom" x="302" y="-30"/>
	<anchor name="top" x="287" y="550"/>
</glyph>
<glyph name="Dcroat" format="2">
	<unicode hex="0110"/>
	<advance width="820"/>
	<outline>
		<contour>
			<point x="37" y="0" type="line"/>
			<point x="365" y="0" type="line" smooth="yes"/>
			<point x="643" y="0"/>
			<point x="788" y="115"/>
			<point x="788" y="376" type="curve" smooth="yes"/>
			<point x="788" y="650"/>
			<point x="583" y="730"/>
			<point x="383" y="730" type="curve" smooth="yes"/>
			<point x="37" y="730" type="line"/>
			<point x="37" y="718" type="line"/>
			<point x="66" y="717" type="line" smooth="yes"/>
			<point x="96" y="716"/>
			<point x="102" y="706"/>
			<point x="102" y="673" type="curve" smooth="yes"/>
			<point x="102" y="387" type="line"/>
			<point x="22" y="387" type="line"/>
			<point x="19" y="362" type="line"/>
			<point x="102" y="362" type="line"/>
			<point x="102" y="70" type="line" smooth="yes"/>
			<point x="102" y="26"/>
			<point x="96" y="15"/>
			<point x="71" y="14" type="curve" smooth="yes"/>
			<point x="37" y="12" type="line"/>
		</contour>
		<contour>
			<point x="369" y="16" type="curve" smooth="yes"/>
			<point x="355" y="16"/>
			<point x="346" y="17"/>
			<point x="336" y="18" type="curve"/>
			<point x="336" y="362" type="line"/>
			<point x="459" y="362" type="line"/>
			<point x="459" y="387" type="line"/>
			<point x="336" y="387" type="line"/>
			<point x="336" y="714" type="line"/>
			<point x="374" y="714" type="line" smooth="yes"/>
			<point x="474" y="714"/>
			<point x="543" y="619"/>
			<point x="543" y="372" type="curve" smooth="yes"/>
			<point x="543" y="82"/>
			<point x="480" y="16"/>
		</contour>
	</outline>
	<anchor name="bottom" x="377" y="-30"/>
	<anchor name="top" x="378" y="730"/>
</glyph>
<glyph name="eogonek" format="2">
	<unicode hex="0119"/>
	<advance width="600"/>
	<outline>
		<contour>
			<point x="351" y="-252" type="curve" smooth="yes"/>
			<point x="397" y="-252"/>
			<point x="471" y="-223"/>
			<point x="512" y="-141" type="curve"/>
			<point x="505" y="-134" type="line"/>
			<point x="479" y="-154"/>
			<point x="454" y="-161"/>
			<point x="435" y="-161" type="curve" smooth="yes"/>
			<point x="413" y="-161"/>
			<point x="389" y="-148"/>
			<point x="389" y="-110" type="curve" smooth="yes"/>
			<point x="389" y="-59"/>
			<point x="421" y="-12"/>
			<point x="480" y="38" type="curve"/>
			<point x="525" y="70"/>
			<point x="559" y="115"/>
			<point x="578" y="167" type="curve"/>
			<point x="568" y="173" type="line"/>
			<point x="503" y="128"/>
			<point x="452" y="116"/>
			<point x="398" y="116" type="curve" smooth="yes"/>
			<point x="295" y="116"/>
			<point x="257" y="186"/>
			<point x="256" y="287" type="curve"/>
			<point x="575" y="287" type="line"/>
			<point x="576" y="307"/>
			<point x="577" y="322"/>
			<point x="577" y="336" type="curve" smooth="yes"/>
			<point x="577" y="462"/>
			<point x="479" y="537"/>
			<point x="332" y="537" type="curve" smooth="yes"/>
			<point x="167" y="537"/>
			<point x="27" y="434"/>
			<point x="27" y="252" type="curve" smooth="yes"/>
			<point x="27" y="85"/>
			<point x="128" y="-14"/>
			<point x="307" y="-14" type="curve" smooth="yes"/>
			<point x="339" y="-14"/>
			<point x="368" y="-10"/>
			<point x="396" y="-2" type="curve"/>
			<point x="291" y="-63"/>
			<point x="238" y="-104"/>
			<point x="238" y="-164" type="curve" smooth="yes"/>
			<point x="238" y="-207"/>
			<point x="265" y="-252"/>
		</contour>
		<contour>
			<point x="256" y="303" type="line"/>
			<point x="260" y="481"/>
			<point x="291" y="518"/>
			<point x="325" y="518" type="curve" smooth="yes"/>
			<point x="357" y="518"/>
			<point x="371" y="476"/>
			<point x="371" y="381" type="curve" smooth="yes"/>
			<point x="371" y="356"/>
			<point x="370" y="331"/>
			<point x="367" y="303" type="curve"/>
		</contour>
	</outline>
	<anchor name="bottom" x="325" y="-30"/>
	<anchor name="top" x="320" y="550"/>
</glyph>
<glyph name="kgreenlandic" format="2">
	<unicode hex="0138"/>
	<advance width="733"/>
	<outline>
		<contour>
			<point x="579" y="-12" type="curve" smooth="yes"/>
			<point x="648" y="-12"/>
			<point x="707" y="25"/>
			<point x="746" y="72" type="curve"/>
			<point x="739" y="81" type="line"/>
			<point x="724" y="70"/>
			<point x="713" y="67"/>
			<point x="702" y="67" type="curve" smooth="yes"/>
			<point x="672" y="67"/>
			<point x="656" y="95"/>
			<point x="616" y="164" type="curve" smooth="yes"/>
			<point x="483" y="394" type="line"/>
			<point x="561" y="467" type="line" smooth="yes"/>
			<point x="591" y="496"/>
			<point x="618" y="504"/>
			<point x="650" y="508" type="curve" smooth="yes"/>
			<point x="672" y="511" type="line"/>
			<point x="672" y="523" type="line"/>
			<point x="485" y="523" type="line"/>
			<point x="485" y="511" type="line"/>
			<point x="530" y="506" type="line" smooth="yes"/>
			<point x="561" y="503"/>
			<point x="550" y="485"/>
			<point x="521" y="459" type="curve" smooth="yes"/>
			<point x="320" y="276" type="line"/>
			<point x="320" y="266" type="line"/>
			<point x="421" y="82" type="line" smooth="yes"/>
			<point x="460" y="11"/>
			<point x="506" y="-12"/>
		</contour>
		<contour>
			<point x="28" y="0" type="line"/>
			<point x="360" y="0" type="line"/>
			<point x="360" y="12" type="line"/>
			<point x="336" y="14" type="line" smooth="yes"/>
			<point x="312" y="16"/>
			<point x="306" y="23"/>
			<point x="306" y="58" type="curve" smooth="yes"/>
			<point x="306" y="523" type="line"/>
			<point x="299" y="531" type="line"/>
			<point x="20" y="519" type="line"/>
			<point x="19" y="507" type="line"/>
			<point x="46" y="504" type="line" smooth="yes"/>
			<point x="77" y="501"/>
			<point x="82" y="486"/>
			<point x="82" y="447" type="curve" smooth="yes"/>
			<point x="82" y="57" type="line" smooth="yes"/>
			<point x="82" y="22"/>
			<point x="76" y="15"/>
			<point x="59" y="14" type="curve" smooth="yes"/>
			<point x="28" y="12" type="line"/>
		</contour>
	</outline>
</glyph>
<glyph name="Lslash" format="2">
	<unicode hex="0141"/>
	<advance width="648"/>
	<outline>
		<contour>
			<point x="612" y="235" type="line"/>
			<point x="562" y="87"/>
			<point x="505" y="16"/>
			<point x="399" y="16" type="curve" smooth="yes"/>
			<point x="336" y="16" type="line"/>
			<point x="336" y="365" type="line"/>
			<point x="465" y="438" type="line"/>
			<point x="465" y="471" type="line"/>
			<point x="336" y="398" type="line"/>
			<point x="336" y="667" type="line" smooth="yes"/>
			<point x="336" y="703"/>
			<point x="344" y="716"/>
			<point x="378" y="717" type="curve" smooth="yes"/>
			<point x="416" y="718" type="line"/>
			<point x="416" y="730" type="line"/>
			<point x="37" y="730" type="line"/>
			<point x="37" y="718" type="line"/>
			<point x="66" y="717" type="line" smooth="yes"/>
			<point x="96" y="716"/>
			<point x="102" y="706"/>
			<point x="102" y="673" type="curve" smooth="yes"/>
			<point x="102" y="311" type="line"/>
			<point x="-1" y="255" type="line"/>
			<point x="-1" y="219" type="line"/>
			<point x="102" y="278" type="line"/>
			<point x="102" y="70" type="line" smooth="yes"/>
			<point x="102" y="26"/>
			<point x="96" y="15"/>
			<point x="71" y="14" type="curve" smooth="yes"/>
			<point x="37" y="12" type="line"/>
			<point x="37" y="0" type="line"/>
			<point x="603" y="0" type="line"/>
			<point x="628" y="235" type="line"/>
		</contour>
	</outline>
	<anchor name="bottom" x="336" y="-30"/>
	<anchor name="top" x="223" y="730"/>
</glyph>
<glyph name="lslash" format="2">
	<unicode hex="0142"/>
	<advance width="394.5"/>
	<outline>
		<contour>
			<point x="24" y="0" type="line"/>
			<point x="356" y="0" type="line"/>
			<point x="356" y="12" type="line"/>
			<point x="332" y="14" type="line" smooth="yes"/>
			<point x="308" y="16"/>
			<point x="302" y="23"/>
			<point x="302" y="58" type="curve" smooth="yes"/>
			<point x="302" y="436" type="line"/>
			<point x="382" y="476" type="line"/>
			<point x="382" y="506" type="line"/>
			<point x="302" y="467" type="line"/>
			<point x="302" y="761" type="line"/>
			<point x="295" y="769" type="line"/>
			<point x="16" y="757" type="line"/>
			<point x="15" y="745" type="line"/>
			<point x="42" y="742" type="line" smooth="yes"/>
			<point x="73" y="739"/>
			<point x="78" y="723"/>
			<point x="78" y="685" type="curve" smooth="yes"/>
			<point x="78" y="398" type="line"/>
			<point x="0" y="359" type="line"/>
			<point x="0" y="326" type="line"/>
			<point x="78" y="368" type="line"/>
			<point x="78" y="57" type="line" smooth="yes"/>
			<point x="78" y="23"/>
			<point x="73" y="15"/>
			<point x="55" y="14" type="curve" smooth="yes"/>
			<point x="24" y="12" type="line"/>
		</contour>
	</outline>
	<anchor name="bottom" x="188" y="-30"/>
	<anchor name="top" x="178" y="782"/>
</glyph>
<glyph name="OE" format="2">
	<unicode hex="0152"/>
	<advance width="1040"/>
	<outline>
		<contour>
			<point x="392" y="-14" type="curve" smooth="yes"/>
			<point x="475" y="-14"/>
			<point x="535" y="10"/>
			<point x="585" y="55" type="curve"/>
			<point x="585" y="0" type="line"/>
			<point x="996" y="0" type="line"/>
			<point x="1015" y="201" type="line"/>
			<point x="1001" y="201" type="line"/>
			<point x="934" y="47"/>
			<point x="906" y="16"/>
			<point x="816" y="16" type="curve" smooth="yes"/>
			<point x="748" y="16" type="line"/>
			<point x="748" y="366" type="line"/>
			<point x="802" y="366" type="line" smooth="yes"/>
			<point x="839" y="366"/>
			<point x="856" y="336"/>
			<point x="877" y="254" type="curve"/>
			<point x="891" y="256" type="line"/>
			<point x="891" y="482" type="line"/>
			<point x="877" y="480" type="line"/>
			<point x="852" y="403"/>
			<point x="841" y="382"/>
			<point x="801" y="382" type="curve" smooth="yes"/>
			<point x="748" y="382" type="line"/>
			<point x="748" y="714" type="line"/>
			<point x="793" y="714" type="line" smooth="yes"/>
			<point x="880" y="714"/>
			<point x="918" y="693"/>
			<point x="984" y="531" type="curve"/>
			<point x="997" y="535" type="line"/>
			<point x="969" y="730" type="line"/>
			<point x="585" y="730" type="line"/>
			<point x="585" y="685" type="line"/>
			<point x="534" y="720"/>
			<point x="470" y="744"/>
			<point x="396" y="744" type="curve" smooth="yes"/>
			<point x="185" y="744"/>
			<point x="32" y="613"/>
			<point x="32" y="352" type="curve" smooth="yes"/>
			<point x="32" y="131"/>
			<point x="171" y="-14"/>
		</contour>
		<contour>
			<point x="410" y="3" type="curve" smooth="yes"/>
			<point x="332" y="3"/>
			<point x="277" y="79"/>
			<point x="277" y="377" type="curve" smooth="yes"/>
			<point x="277" y="658"/>
			<point x="317" y="727"/>
			<point x="390" y="727" type="curve" smooth="yes"/>
			<point x="472" y="727"/>
			<point x="515" y="650"/>
			<point x="515" y="355" type="curve" smooth="yes"/>
			<point x="515" y="68"/>
			<point x="485" y="3"/>
		</contour>
	</outline>
</glyph>
<glyph name="Scedilla" format="2">
	<unicode hex="015E"/>
	<advance width="602"/>
	<outline>
		<contour>
			<point x="311" y="-258" type="curve" smooth="yes"/>
			<point x="390" y="-258"/>
			<point x="439" y="-215"/>
			<point x="439" y="-142" type="curve" smooth="yes"/>
			<point x="439" y="-65"/>
			<point x="350" y="-15"/>
			<point x="249" y="-71" type="curve"/>
			<point x="275" y="-13" type="line"/>
			<point x="428" y="-32"/>
			<point x="585" y="76"/>
			<point x="585" y="232" type="curve" smooth="yes"/>
			<point x="585" y="379"/>
			<point x="452" y="431"/>
			<point x="354" y="466" type="curve" smooth="yes"/>
			<point x="279" y="493"/>
			<point x="204" y="519"/>
			<point x="204" y="620" type="curve" smooth="yes"/>
			<point x="204" y="693"/>
			<point x="249" y="727"/>
			<point x="318" y="727" type="curve" smooth="yes"/>
			<point x="415" y="727"/>
			<point x="473" y="655"/>
			<point x="527" y="519" type="curve"/>
			<point x="543" y="523" type="line"/>
			<point x="505" y="744" type="line"/>
			<point x="491" y="744" type="line"/>
			<point x="485" y="690" type="line"/>
			<point x="434" y="723"/>
			<point x="380" y="744"/>
			<point x="304" y="744" type="curve" smooth="yes"/>
			<point x="175" y="744"/>
			<point x="29" y="664"/>
			<point x="29" y="496" type="curve" smooth="yes"/>
			<point x="29" y="344"/>
			<point x="166" y="291"/>
			<point x="238" y="266" type="curve" smooth="yes"/>
			<point x="341" y="230"/>
			<point x="404" y="199"/>
			<point x="404" y="122" type="curve" smooth="yes"/>
			<point x="404" y="48"/>
			<point x="355" y="4"/>
			<point x="281" y="4" type="curve" smooth="yes"/>
			<point x="155" y="4"/>
			<point x="83" y="120"/>
			<point x="48" y="241" type="curve"/>
			<point x="33" y="237" type="line"/>
			<point x="44" y="-19" type="line"/>
			<point x="60" y="-19" type="line"/>
			<point x="86" y="55" type="line"/>
			<point x="141" y="17"/>
			<point x="200" y="-5"/>
			<point x="257" y="-11" type="curve"/>
			<point x="223" y="-85" type="line"/>
			<point x="230" y="-96" type="line"/>
			<point x="243" y="-92"/>
			<point x="255" y="-88"/>
			<point x="270" y="-88" type="curve" smooth="yes"/>
			<point x="296" y="-88"/>
			<point x="311" y="-109"/>
			<point x="311" y="-140" type="curve" smooth="yes"/>
			<point x="311" y="-170"/>
			<point x="293" y="-195"/>
			<point x="252" y="-195" type="curve" smooth="yes"/>
			<point x="226" y="-195"/>
			<point x="193" y="-185"/>
			<point x="161" y="-161" type="curve"/>
			<point x="149" y="-172" type="line"/>
			<point x="194" y="-235"/>
			<point x="248" y="-258"/>
		</contour>
	</outline>
	<anchor name="bottom" x="304" y="-30"/>
	<anchor name="top" x="302" y="730"/>
</glyph>
<glyph name="scedilla" format="2">
	<unicode hex="015F"/>
	<advance width="507"/>
	<outline>
		<contour>
			<point x="260" y="-258" type="curve" smooth="yes"/>
			<point x="339" y="-258"/>
			<point x="388" y="-215"/>
			<point x="388" y="-142" type="curve" smooth="yes"/>
			<point x="388" y="-65"/>
			<point x="299" y="-15"/>
			<point x="198" y="-71" type="curve"/>
			<point x="224" y="-13" type="line"/>
			<point x="352" y="-31"/>
			<point x="482" y="51"/>
			<point x="482" y="184" type="curve" smooth="yes"/>
			<point x="482" y="296"/>
			<point x="422" y="331"/>
			<point x="311" y="368" type="curve" smooth="yes"/>
			<point x="243" y="391"/>
			<point x="184" y="405"/>
			<point x="184" y="458" type="curve" smooth="yes"/>
			<point x="184" y="498"/>
			<point x="216" y="520"/>
			<point x="272" y="520" type="curve" smooth="yes"/>
			<point x="345" y="520"/>
			<point x="393" y="483"/>
			<point x="429" y="365" type="curve"/>
			<point x="448" y="363" type="line"/>
			<point x="431" y="537" type="line"/>
			<point x="418" y="537" type="line"/>
			<point x="407" y="500" type="line"/>
			<point x="356" y="529"/>
			<point x="313" y="537"/>
			<point x="264" y="537" type="curve" smooth="yes"/>
			<point x="128" y="537"/>
			<point x="42" y="470"/>
			<point x="42" y="359" type="curve" smooth="yes"/>
			<point x="42" y="255"/>
			<point x="93" y="218"/>
			<point x="228" y="175" type="curve" smooth="yes"/>
			<point x="278" y="159"/>
			<point x="340" y="149"/>
			<point x="340" y="91" type="curve" smooth="yes"/>
			<point x="340" y="31"/>
			<point x="296" y="5"/>
			<point x="241" y="5" type="curve" smooth="yes"/>
			<point x="142" y="5"/>
			<point x="91" y="55"/>
			<point x="56" y="197" type="curve"/>
			<point x="40" y="194" type="line"/>
			<point x="58" y="-19" type="line"/>
			<point x="72" y="-19" type="line"/>
			<point x="87" y="29" type="line"/>
			<point x="117" y="10"/>
			<point x="162" y="-5"/>
			<point x="206" y="-11" type="curve"/>
			<point x="172" y="-85" type="line"/>
			<point x="179" y="-96" type="line"/>
			<point x="192" y="-92"/>
			<point x="204" y="-88"/>
			<point x="219" y="-88" type="curve" smooth="yes"/>
			<point x="245" y="-88"/>
			<point x="260" y="-109"/>
			<point x="260" y="-140" type="curve" smooth="yes"/>
			<point x="260" y="-170"/>
			<point x="242" y="-195"/>
			<point x="201" y="-195" type="curve" smooth="yes"/>
			<point x="175" y="-195"/>
			<point x="142" y="-185"/>
			<point x="110" y="-161" type="curve"/>
			<point x="98" y="-172" type="line"/>
			<point x="143" y="-235"/>
			<point x="197" y="-258"/>
		</contour>
	</outline>
	<anchor name="bottom" x="253" y="-30"/>
	<anchor name="top" x="251" y="550"/>
</glyph>
<glyph name="tcedilla" format="2">
	<unicode hex="0163"/>
	<advance width="429"/>
	<outline>
		<contour>
			<point x="245" y="-258" type="curve" smooth="yes"/>
			<point x="324" y="-258"/>
			<point x="373" y="-215"/>
			<point x="373" y="-142" type="curve" smooth="yes"/>
			<point x="373" y="-65"/>
			<point x="284" y="-15"/>
			<point x="183" y="-71" type="curve"/>
			<point x="209" y="-13" type="line"/>
			<point x="315" y="-25"/>
			<point x="383" y="26"/>
			<point x="440" y="117" type="curve"/>
			<point x="433" y="125" type="line"/>
			<point x="407" y="100"/>
			<point x="382" y="86"/>
			<point x="352" y="86" type="curve" smooth="yes"/>
			<point x="313" y="86"/>
			<point x="297" y="120"/>
			<point x="297" y="173" type="curve" smooth="yes"/>
			<point x="297" y="507" type="line"/>
			<point x="418" y="507" type="line"/>
			<point x="418" y="523" type="line"/>
			<point x="297" y="523" type="line"/>
			<point x="297" y="686" type="line"/>
			<point x="279" y="697" type="line"/>
			<point x="170" y="682" type="line"/>
			<point x="147" y="579"/>
			<point x="126" y="528"/>
			<point x="10" y="517" type="curve"/>
			<point x="10" y="507" type="line"/>
			<point x="74" y="507" type="line"/>
			<point x="74" y="138" type="line" smooth="yes"/>
			<point x="74" y="43"/>
			<point x="121" y="1"/>
			<point x="191" y="-11" type="curve"/>
			<point x="157" y="-85" type="line"/>
			<point x="164" y="-96" type="line"/>
			<point x="177" y="-92"/>
			<point x="189" y="-88"/>
			<point x="204" y="-88" type="curve" smooth="yes"/>
			<point x="230" y="-88"/>
			<point x="245" y="-109"/>
			<point x="245" y="-140" type="curve" smooth="yes"/>
			<point x="245" y="-170"/>
			<point x="227" y="-195"/>
			<point x="186" y="-195" type="curve" smooth="yes"/>
			<point x="160" y="-195"/>
			<point x="127" y="-185"/>
			<point x="95" y="-161" type="curve"/>
			<point x="83" y="-172" type="line"/>
			<point x="128" y="-235"/>
			<point x="182" y="-258"/>
		</contour>
	</outline>
	<anchor name="bottom" x="238" y="-30"/>
</glyph>
<glyph name="Tbar" format="2">
	<unicode hex="0166"/>
	<advance width="741"/>
	<outline>
		<contour>
			<point x="170" y="0" type="line"/>
			<point x="574" y="0" type="line"/>
			<point x="574" y="12" type="line"/>
			<point x="533" y="14" type="line" smooth="yes"/>
			<point x="507" y="15"/>
			<point x="489" y="25"/>
			<point x="489" y="66" type="curve" smooth="yes"/>
			<point x="489" y="351" type="line"/>
			<point x="621" y="351" type="line"/>
			<point x="621" y="376" type="line"/>
			<point x="489" y="376" type="line"/>
			<point x="489" y="714" type="line"/>
			<point x="518" y="714" type="line" smooth="yes"/>
			<point x="605" y="714"/>
			<point x="651" y="655"/>
			<point x="703" y="506" type="curve"/>
			<point x="716" y="511" type="line"/>
			<point x="695" y="730" type="line"/>
			<point x="46" y="730" type="line"/>
			<point x="25" y="511" type="line"/>
			<point x="38" y="506" type="line"/>
			<point x="90" y="655"/>
			<point x="136" y="714"/>
			<point x="223" y="714" type="curve" smooth="yes"/>
			<point x="255" y="714" type="line"/>
			<point x="255" y="376" type="line"/>
			<point x="127" y="376" type="line"/>
			<point x="122" y="351" type="line"/>
			<point x="255" y="351" type="line"/>
			<point x="255" y="70" type="line" smooth="yes"/>
			<point x="255" y="26"/>
			<point x="239" y="15"/>
			<point x="214" y="14" type="curve" smooth="yes"/>
			<point x="170" y="12" type="line"/>
		</contour>
	</outline>
	<anchor name="bottom" x="370" y="-30"/>
	<anchor name="top" x="372" y="730"/>
</glyph>
<glyph name="tbar" format="2">
	<unicode hex="0167"/>
	<advance width="429"/>
	<outline>
		<contour>
			<point x="236" y="-14" type="curve" smooth="yes"/>
			<point x="332" y="-14"/>
			<point x="389" y="35"/>
			<point x="440" y="117" type="curve"/>
			<point x="433" y="125" type="line"/>
			<point x="407" y="100"/>
			<point x="382" y="86"/>
			<point x="352" y="86" type="curve" smooth="yes"/>
			<point x="313" y="86"/>
			<point x="297" y="120"/>
			<point x="297" y="173" type="curve" smooth="yes"/>
			<point x="297" y="314" type="line"/>
			<point x="411" y="314" type="line"/>
			<point x="411" y="339" type="line"/>
			<point x="297" y="339" type="line"/>
			<point x="297" y="507" type="line"/>
			<point x="418" y="507" type="line"/>
			<point x="418" y="523" type="line"/>
			<point x="297" y="523" type="line"/>
			<point x="297" y="686" type="line"/>
			<point x="279" y="697" type="line"/>
			<point x="170" y="682" type="line"/>
			<point x="147" y="579"/>
			<point x="126" y="528"/>
			<point x="10" y="517" type="curve"/>
			<point x="10" y="507" type="line"/>
			<point x="74" y="507" type="line"/>
			<point x="74" y="339" type="line"/>
			<point x="15" y="339" type="line"/>
			<point x="12" y="314" type="line"/>
			<point x="74" y="314" type="line"/>
			<point x="74" y="138" type="line" smooth="yes"/>
			<point x="74" y="24"/>
			<point x="141" y="-14"/>
		</contour>
	</outline>
	<anchor name="bottom" x="238" y="-30"/>
</glyph>
<glyph name="Uogonek" format="2">
	<unicode hex="0172"/>
	<advance width="736"/>
	<outline>
		<contour>
			<point x="433" y="-252" type="curve" smooth="yes"/>
			<point x="479" y="-252"/>
			<point x="553" y="-223"/>
			<point x="594" y="-141" type="curve"/>
			<point x="587" y="-134" type="line"/>
			<point x="561" y="-154"/>
			<point x="536" y="-161"/>
			<point x="517" y="-161" type="curve" smooth="yes"/>
			<point x="495" y="-161"/>
			<point x="471" y="-148"/>
			<point x="471" y="-110" type="curve" smooth="yes"/>
			<point x="471" y="-63"/>
			<point x="492" y="-19"/>
			<point x="545" y="17" type="curve"/>
			<point x="609" y="51"/>
			<point x="646" y="116"/>
			<point x="646" y="229" type="curve" smooth="yes"/>
			<point x="646" y="668" type="line" smooth="yes"/>
			<point x="646" y="707"/>
			<point x="654" y="716"/>
			<point x="682" y="717" type="curve" smooth="yes"/>
			<point x="711" y="718" type="line"/>
			<point x="711" y="730" type="line"/>
			<point x="559" y="730" type="line"/>
			<point x="559" y="718" type="line"/>
			<point x="586" y="717" type="line" smooth="yes"/>
			<point x="617" y="716"/>
			<point x="624" y="706"/>
			<point x="624" y="668" type="curve" smooth="yes"/>
			<point x="624" y="228" type="line" smooth="yes"/>
			<point x="624" y="92"/>
			<point x="562" y="28"/>
			<point x="475" y="28" type="curve" smooth="yes"/>
			<point x="358" y="28"/>
			<point x="319" y="101"/>
			<point x="319" y="221" type="curve" smooth="yes"/>
			<point x="319" y="668" type="line" smooth="yes"/>
			<point x="319" y="704"/>
			<point x="325" y="716"/>
			<point x="349" y="717" type="curve" smooth="yes"/>
			<point x="384" y="718" type="line"/>
			<point x="384" y="730" type="line"/>
			<point x="25" y="730" type="line"/>
			<point x="25" y="718" type="line"/>
			<point x="54" y="717" type="line" smooth="yes"/>
			<point x="84" y="716"/>
			<point x="90" y="701"/>
			<point x="90" y="668" type="curve" smooth="yes"/>
			<point x="90" y="240" type="line" smooth="yes"/>
			<point x="90" y="61"/>
			<point x="193" y="-14"/>
			<point x="388" y="-14" type="curve" smooth="yes"/>
			<point x="423" y="-14"/>
			<point x="456" y="-11"/>
			<point x="485" y="-4" type="curve"/>
			<point x="374" y="-62"/>
			<point x="320" y="-99"/>
			<point x="320" y="-164" type="curve" smooth="yes"/>
			<point x="320" y="-207"/>
			<point x="347" y="-252"/>
		</contour>
	</outline>
	<anchor name="bottom" x="397" y="-30"/>
	<anchor name="top" x="393" y="730"/>
</glyph>
<glyph name="uogonek" format="2">
	<unicode hex="0173"/>
	<advance width="701.5"/>
	<outline>
		<contour>
			<point x="514" y="-252" type="curve" smooth="yes"/>
			<point x="560" y="-252"/>
			<point x="634" y="-223"/>
			<point x="675" y="-141" type="curve"/>
			<point x="668" y="-134" type="line"/>
			<point x="642" y="-154"/>
			<point x="617" y="-161"/>
			<point x="598" y="-161" type="curve" smooth="yes"/>
			<point x="576" y="-161"/>
			<point x="552" y="-148"/>
			<point x="552" y="-110" type="curve" smooth="yes"/>
			<point x="552" y="-68"/>
			<point x="569" y="-41"/>
			<point x="628" y="1" type="curve"/>
			<point x="683" y="4" type="line"/>
			<point x="684" y="16" type="line"/>
			<point x="657" y="19" type="line" smooth="yes"/>
			<point x="626" y="22"/>
			<point x="621" y="38"/>
			<point x="621" y="76" type="curve" smooth="yes"/>
			<point x="621" y="523" type="line"/>
			<point x="612" y="531" type="line"/>
			<point x="348" y="523" type="line"/>
			<point x="348" y="511" type="line"/>
			<point x="372" y="509" type="line" smooth="yes"/>
			<point x="395" y="507"/>
			<point x="398" y="490"/>
			<point x="398" y="463" type="curve" smooth="yes"/>
			<point x="398" y="161" type="line" smooth="yes"/>
			<point x="398" y="100"/>
			<point x="368" y="44"/>
			<point x="332" y="44" type="curve" smooth="yes"/>
			<point x="298" y="44"/>
			<point x="287" y="59"/>
			<point x="287" y="160" type="curve" smooth="yes"/>
			<point x="287" y="523" type="line"/>
			<point x="278" y="531" type="line"/>
			<point x="10" y="523" type="line"/>
			<point x="10" y="511" type="line"/>
			<point x="34" y="509" type="line" smooth="yes"/>
			<point x="58" y="507"/>
			<point x="64" y="500"/>
			<point x="64" y="465" type="curve" smooth="yes"/>
			<point x="64" y="182" type="line" smooth="yes"/>
			<point x="64" y="49"/>
			<point x="128" y="-14"/>
			<point x="243" y="-14" type="curve" smooth="yes"/>
			<point x="328" y="-14"/>
			<point x="376" y="20"/>
			<point x="403" y="96" type="curve"/>
			<point x="405" y="96" type="line"/>
			<point x="434" y="-8" type="line"/>
			<point x="602" y="0" type="line"/>
			<point x="470" y="-54"/>
			<point x="401" y="-96"/>
			<point x="401" y="-164" type="curve" smooth="yes"/>
			<point x="401" y="-207"/>
			<point x="428" y="-252"/>
		</contour>
	</outline>
	<anchor name="bottom" x="344" y="-30"/>
	<anchor name="top" x="332" y="550"/>
</glyph>
<glyph name="Schwa" format="2">
	<unicode hex="018F"/>
	<advance width="756"/>
	<outline>
		<contour>
			<point x="354" y="-14" type="curve" smooth="yes"/>
			<point x="589" y="-14"/>
			<point x="724" y="136"/>
			<point x="724" y="367" type="curve" smooth="yes"/>
			<point x="724" y="586"/>
			<point x="594" y="744"/>
			<point x="356" y="744" type="curve" smooth="yes"/>
			<point x="211" y="744"/>
			<point x="87" y="681"/>
			<point x="32" y="556" type="curve"/>
			<point x="44" y="550" type="line"/>
			<point x="116" y="621"/>
			<point x="203" y="653"/>
			<point x="280" y="653" type="curve" smooth="yes"/>
			<point x="443" y="653"/>
			<point x="482" y="533"/>
			<point x="481" y="339" type="curve"/>
			<point x="46" y="339" type="line"/>
			<point x="42" y="310"/>
			<point x="41" y="282"/>
			<point x="41" y="265" type="curve" smooth="yes"/>
			<point x="45" y="94"/>
			<point x="159" y="-14"/>
		</contour>
		<contour>
			<point x="369" y="5" type="curve" smooth="yes"/>
			<point x="322" y="5"/>
			<point x="280" y="37"/>
			<point x="280" y="222" type="curve" smooth="yes"/>
			<point x="280" y="262"/>
			<point x="282" y="289"/>
			<point x="283" y="309" type="curve"/>
			<point x="481" y="309" type="line"/>
			<point x="472" y="94"/>
			<point x="455" y="5"/>
		</contour>
	</outline>
</glyph>
<glyph name="florin" format="2">
	<unicode hex="0192"/>
	<advance width="701"/>
	<outline>
		<contour>
			<point x="83" y="-192" type="curve" smooth="yes"/>
			<point x="262" y="-192"/>
			<point x="367" y="-74"/>
			<point x="384" y="56" type="curve" smooth="yes"/>
			<point x="436" y="451" type="line"/>
			<point x="588" y="451" type="line"/>
			<point x="590" y="469" type="line"/>
			<point x="438" y="469" type="line"/>
			<point x="452" y="567" type="line" smooth="yes"/>
			<point x="471" y="698"/>
			<point x="503" y="726"/>
			<point x="542" y="726" type="curve" smooth="yes"/>
			<point x="554" y="726"/>
			<point x="570" y="724"/>
			<point x="585" y="719" type="curve"/>
			<point x="548" y="659"/>
			<point x="539" y="637"/>
			<point x="539" y="609" type="curve" smooth="yes"/>
			<point x="539" y="577"/>
			<point x="559" y="550"/>
			<point x="619" y="550" type="curve" smooth="yes"/>
			<point x="679" y="550"/>
			<point x="708" y="591"/>
			<point x="708" y="629" type="curve" smooth="yes"/>
			<point x="708" y="699"/>
			<point x="651" y="744"/>
			<point x="538" y="744" type="curve" smooth="yes"/>
			<point x="350" y="744"/>
			<point x="250" y="610"/>
			<point x="227" y="475" type="curve" smooth="yes"/>
			<point x="226" y="469" type="line"/>
			<point x="141" y="469" type="line"/>
			<point x="139" y="451" type="line"/>
			<point x="224" y="451" type="line"/>
			<point x="164" y="-4" type="line" smooth="yes"/>
			<point x="146" y="-142"/>
			<point x="113" y="-174"/>
			<point x="74" y="-174" type="curve" smooth="yes"/>
			<point x="61" y="-174"/>
			<point x="48" y="-172"/>
			<point x="32" y="-166" type="curve"/>
			<point x="71" y="-105"/>
			<point x="80" y="-86"/>
			<point x="80" y="-65" type="curve" smooth="yes"/>
			<point x="80" y="-24"/>
			<point x="57" y="-1"/>
			<point x="1" y="-1" type="curve" smooth="yes"/>
			<point x="-63" y="-1"/>
			<point x="-88" y="-40"/>
			<point x="-88" y="-77" type="curve" smooth="yes"/>
			<point x="-88" y="-124"/>
			<point x="-44" y="-192"/>
		</contour>
	</outline>
</glyph>
<glyph name="Ohorn" format="2">
	<unicode hex="01A0"/>
	<advance width="969"/>
	<outline>
		<contour>
			<point x="392" y="-14" type="curve" smooth="yes"/>
			<point x="633" y="-14"/>
			<point x="760" y="150"/>
			<point x="760" y="383" type="curve" smooth="yes"/>
			<point x="760" y="401"/>
			<point x="759" y="418"/>
			<point x="758" y="434" type="curve"/>
			<point x="927" y="470"/>
			<point x="969" y="552"/>
			<point x="969" y="637" type="curve" smooth="yes"/>
			<point x="969" y="698"/>
			<point x="938" y="760"/>
			<point x="859" y="760" type="curve" smooth="yes"/>
			<point x="802" y="760"/>
			<point x="767" y="724"/>
			<point x="767" y="677" type="curve" smooth="yes"/>
			<point x="767" y="634"/>
			<point x="791" y="599"/>
			<point x="867" y="599" type="curve" smooth="yes"/>
			<point x="894" y="599" type="line"/>
			<point x="889" y="538"/>
			<point x="876" y="483"/>
			<point x="755" y="454" type="curve"/>
			<point x="728" y="645"/>
			<point x="592" y="744"/>
			<point x="409" y="744" type="curve" smooth="yes"/>
			<point x="180" y="744"/>
			<point x="32" y="613"/>
			<point x="32" y="352" type="curve" smooth="yes"/>
			<point x="32" y="130"/>
			<point x="171" y="-14"/>
		</contour>
		<contour>
			<point x="410" y="3" type="curve" smooth="yes"/>
			<point x="332" y="3"/>
			<point x="277" y="79"/>
			<point x="277" y="377" type="curve" smooth="yes"/>
			<point x="277" y="658"/>
			<point x="317" y="727"/>
			<point x="390" y="727" type="curve" smooth="yes"/>
			<point x="472" y="727"/>
			<point x="515" y="650"/>
			<point x="515" y="355" type="curve" smooth="yes"/>
			<point x="515" y="68"/>
			<point x="485" y="3"/>
		</contour>
	</outline>
	<anchor name="bottom" x="401" y="-30"/>
	<anchor name="top" x="398" y="730"/>
</glyph>
<glyph name="ohorn" format="2">
	<unicode hex="01A1"/>
	<advance width="783"/>
	<outline>
		<contour>
			<point x="327" y="-14" type="curve" smooth="yes"/>
			<point x="523" y="-14"/>
			<point x="644" y="94"/>
			<point x="644" y="273" type="curve" smooth="yes"/>
			<point x="644" y="311"/>
			<point x="639" y="345"/>
			<point x="629" y="374" type="curve"/>
			<point x="748" y="415"/>
			<point x="783" y="487"/>
			<point x="783" y="561" type="curve" smooth="yes"/>
			<point x="783" y="622"/>
			<point x="752" y="684"/>
			<point x="673" y="684" type="curve" smooth="yes"/>
			<point x="616" y="684"/>
			<point x="581" y="648"/>
			<point x="581" y="601" type="curve" smooth="yes"/>
			<point x="581" y="558"/>
			<point x="605" y="523"/>
			<point x="681" y="523" type="curve" smooth="yes"/>
			<point x="714" y="523" type="line"/>
			<point x="710" y="472"/>
			<point x="699" y="424"/>
			<point x="623" y="390" type="curve"/>
			<point x="581" y="491"/>
			<point x="481" y="537"/>
			<point x="347" y="537" type="curve" smooth="yes"/>
			<point x="153" y="537"/>
			<point x="27" y="437"/>
			<point x="27" y="247" type="curve" smooth="yes"/>
			<point x="27" y="71"/>
			<point x="142" y="-14"/>
		</contour>
		<contour>
			<point x="344" y="3" type="curve" smooth="yes"/>
			<point x="298" y="3"/>
			<point x="262" y="53"/>
			<point x="262" y="280" type="curve" smooth="yes"/>
			<point x="262" y="469"/>
			<point x="282" y="520"/>
			<point x="328" y="520" type="curve" smooth="yes"/>
			<point x="373" y="520"/>
			<point x="409" y="480"/>
			<point x="409" y="256" type="curve" smooth="yes"/>
			<point x="409" y="62"/>
			<point x="392" y="3"/>
		</contour>
	</outline>
	<anchor name="bottom" x="336" y="-30"/>
	<anchor name="top" x="328" y="550"/>
</glyph>
<glyph name="Uhorn" format="2">
	<unicode hex="01AF"/>
	<advance width="907"/>
	<outline>
		<contour>
			<point x="388" y="-14" type="curve" smooth="yes"/>
			<point x="542" y="-14"/>
			<point x="646" y="41"/>
			<point x="646" y="229" type="curve" smooth="yes"/>
			<point x="646" y="427" type="line"/>
			<point x="857" y="456"/>
			<point x="907" y="545"/>
			<point x="907" y="638" type="curve" smooth="yes"/>
			<point x="907" y="699"/>
			<point x="876" y="761"/>
			<point x="797" y="761" type="curve" smooth="yes"/>
			<point x="740" y="761"/>
			<point x="705" y="725"/>
			<point x="705" y="678" type="curve" smooth="yes"/>
			<point x="705" y="635"/>
			<point x="729" y="600"/>
			<point x="805" y="600" type="curve" smooth="yes"/>
			<point x="832" y="600" type="line"/>
			<point x="826" y="532"/>
			<point x="810" y="471"/>
			<point x="646" y="446" type="curve"/>
			<point x="646" y="730" type="line"/>
			<point x="552" y="730" type="line"/>
			<point x="552" y="718" type="line"/>
			<point x="583" y="717" type="line" smooth="yes"/>
			<point x="614" y="716"/>
			<point x="624" y="704"/>
			<point x="624" y="665" type="curve" smooth="yes"/>
			<point x="624" y="228" type="line" smooth="yes"/>
			<point x="624" y="92"/>
			<point x="562" y="28"/>
			<point x="475" y="28" type="curve" smooth="yes"/>
			<point x="358" y="28"/>
			<point x="319" y="101"/>
			<point x="319" y="221" type="curve" smooth="yes"/>
			<point x="319" y="668" type="line" smooth="yes"/>
			<point x="319" y="704"/>
			<point x="325" y="716"/>
			<point x="349" y="717" type="curve" smooth="yes"/>
			<point x="384" y="718" type="line"/>
			<point x="384" y="730" type="line"/>
			<point x="25" y="730" type="line"/>
			<point x="25" y="718" type="line"/>
			<point x="54" y="717" type="line" smooth="yes"/>
			<point x="84" y="716"/>
			<point x="90" y="702"/>
			<point x="90" y="668" type="curve" smooth="yes"/>
			<point x="90" y="240" type="line" smooth="yes"/>
			<point x="90" y="61"/>
			<point x="193" y="-14"/>
		</contour>
	</outline>
	<anchor name="bottom" x="399" y="-30"/>
	<anchor name="top" x="393" y="730"/>
</glyph>
<glyph name="Oogonek" format="2">
	<unicode hex="01EA"/>
	<advance width="792"/>
	<outline>
		<contour>
			<point x="406" y="-252" type="curve" smooth="yes"/>
			<point x="452" y="-252"/>
			<point x="526" y="-223"/>
			<point x="567" y="-141" type="curve"/>
			<point x="560" y="-134" type="line"/>
			<point x="534" y="-154"/>
			<point x="509" y="-161"/>
			<point x="490" y="-161" type="curve" smooth="yes"/>
			<point x="468" y="-161"/>
			<point x="444" y="-148"/>
			<point x="444" y="-110" type="curve" smooth="yes"/>
			<point x="444" y="-67"/>
			<point x="462" y="-39"/>
			<point x="527" y="6" type="curve"/>
			<point x="680" y="57"/>
			<point x="760" y="198"/>
			<point x="760" y="383" type="curve" smooth="yes"/>
			<point x="760" y="620"/>
			<point x="613" y="744"/>
			<point x="409" y="744" type="curve" smooth="yes"/>
			<point x="180" y="744"/>
			<point x="32" y="613"/>
			<point x="32" y="352" type="curve" smooth="yes"/>
			<point x="32" y="130"/>
			<point x="171" y="-14"/>
			<point x="392" y="-14" type="curve" smooth="yes"/>
			<point x="423" y="-14"/>
			<point x="452" y="-11"/>
			<point x="480" y="-6" type="curve"/>
			<point x="357" y="-58"/>
			<point x="293" y="-98"/>
			<point x="293" y="-164" type="curve" smooth="yes"/>
			<point x="293" y="-207"/>
			<point x="320" y="-252"/>
		</contour>
		<contour>
			<point x="410" y="3" type="curve" smooth="yes"/>
			<point x="332" y="3"/>
			<point x="277" y="79"/>
			<point x="277" y="377" type="curve" smooth="yes"/>
			<point x="277" y="658"/>
			<point x="317" y="727"/>
			<point x="390" y="727" type="curve" smooth="yes"/>
			<point x="472" y="727"/>
			<point x="515" y="650"/>
			<point x="515" y="355" type="curve" smooth="yes"/>
			<point x="515" y="68"/>
			<point x="485" y="3"/>
		</contour>
	</outline>
	<anchor name="bottom" x="401" y="-30"/>
	<anchor name="top" x="398" y="730"/>
</glyph>
<glyph name="oogonek" format="2">
	<unicode hex="01EB"/>
	<advance width="671"/>
	<outline>
		<contour>
			<point x="341" y="-252" type="curve" smooth="yes"/>
			<point x="387" y="-252"/>
			<point x="461" y="-223"/>
			<point x="502" y="-141" type="curve"/>
			<point x="495" y="-134" type="line"/>
			<point x="469" y="-154"/>
			<point x="444" y="-161"/>
			<point x="425" y="-161" type="curve" smooth="yes"/>
			<point x="403" y="-161"/>
			<point x="379" y="-148"/>
			<point x="379" y="-110" type="curve" smooth="yes"/>
			<point x="379" y="-67"/>
			<point x="397" y="-39"/>
			<point x="463" y="7" type="curve"/>
			<point x="577" y="47"/>
			<point x="644" y="140"/>
			<point x="644" y="273" type="curve" smooth="yes"/>
			<point x="644" y="455"/>
			<point x="525" y="537"/>
			<point x="347" y="537" type="curve" smooth="yes"/>
			<point x="153" y="537"/>
			<point x="27" y="439"/>
			<point x="27" y="249" type="curve" smooth="yes"/>
			<point x="27" y="78"/>
			<point x="146" y="-14"/>
			<point x="327" y="-14" type="curve" smooth="yes"/>
			<point x="358" y="-14"/>
			<point x="388" y="-11"/>
			<point x="415" y="-6" type="curve"/>
			<point x="292" y="-57"/>
			<point x="228" y="-98"/>
			<point x="228" y="-164" type="curve" smooth="yes"/>
			<point x="228" y="-207"/>
			<point x="255" y="-252"/>
		</contour>
		<contour>
			<point x="342" y="3" type="curve" smooth="yes"/>
			<point x="293" y="3"/>
			<point x="262" y="53"/>
			<point x="262" y="280" type="curve" smooth="yes"/>
			<point x="262" y="469"/>
			<point x="282" y="520"/>
			<point x="335" y="520" type="curve" smooth="yes"/>
			<point x="380" y="520"/>
			<point x="409" y="480"/>
			<point x="409" y="256" type="curve" smooth="yes"/>
			<point x="409" y="53"/>
			<point x="393" y="3"/>
		</contour>
	</outline>
	<anchor name="bottom" x="336" y="-30"/>
	<anchor name="top" x="332" y="550"/>
</glyph>
<glyph name="Aringacute" format="2">
	<unicode hex="01FA"/>
	<advance width="780"/>
	<outline>
		<contour>
			<point x="-10" y="0" type="line"/>
			<point x="189" y="0" type="line"/>
			<point x="189" y="12" type="line"/>
			<point x="146" y="17" type="line" smooth="yes"/>
			<point x="113" y="21"/>
			<point x="97" y="33"/>
			<point x="111" y="76" type="curve" smooth="yes"/>
			<point x="167" y="248" type="line"/>
			<point x="404" y="248" type="line"/>
			<point x="456" y="75" type="line" smooth="yes"/>
			<point x="469" y="31"/>
			<point x="464" y="20"/>
			<point x="431" y="16" type="curve" smooth="yes"/>
			<point x="397" y="12" type="line"/>
			<point x="397" y="0" type="line"/>
			<point x="790" y="0" type="line"/>
			<point x="790" y="12" type="line"/>
			<point x="760" y="17" type="line" smooth="yes"/>
			<point x="727" y="23"/>
			<point x="719" y="31"/>
			<point x="703" y="77" type="curve" smooth="yes"/>
			<point x="472" y="725" type="line"/>
			<point x="538" y="741"/>
			<point x="579" y="780"/>
			<point x="579" y="838" type="curve" smooth="yes"/>
			<point x="579" y="921"/>
			<point x="525" y="960"/>
			<point x="411" y="960" type="curve" smooth="yes"/>
			<point x="309" y="960"/>
			<point x="234" y="922"/>
			<point x="234" y="838" type="curve" smooth="yes"/>
			<point x="234" y="786"/>
			<point x="264" y="747"/>
			<point x="310" y="731" type="curve"/>
			<point x="83" y="73" type="line" smooth="yes"/>
			<point x="65" y="22"/>
			<point x="47" y="20"/>
			<point x="22" y="16" type="curve" smooth="yes"/>
			<point x="-10" y="12" type="line"/>
		</contour>
		<contour>
			<point x="175" y="266" type="line"/>
			<point x="288" y="603" type="line"/>
			<point x="291" y="603" type="line"/>
			<point x="398" y="266" type="line"/>
		</contour>
		<contour>
			<point x="406" y="734" type="curve" smooth="yes"/>
			<point x="380" y="734"/>
			<point x="368" y="745"/>
			<point x="368" y="839" type="curve" smooth="yes"/>
			<point x="368" y="926"/>
			<point x="379" y="942"/>
			<point x="405" y="942" type="curve" smooth="yes"/>
			<point x="428" y="942"/>
			<point x="444" y="931"/>
			<point x="444" y="839" type="curve" smooth="yes"/>
			<point x="444" y="750"/>
			<point x="430" y="734"/>
		</contour>
		<contour>
			<point x="302" y="985" type="line"/>
			<point x="498" y="1045" type="line" smooth="yes"/>
			<point x="546" y="1060"/>
			<point x="561" y="1087"/>
			<point x="561" y="1116" type="curve" smooth="yes"/>
			<point x="561" y="1153"/>
			<point x="534" y="1195"/>
			<point x="489" y="1195" type="curve" smooth="yes"/>
			<point x="472" y="1195"/>
			<point x="453" y="1188"/>
			<point x="434" y="1165" type="curve" smooth="yes"/>
			<point x="295" y="995" type="line"/>
		</contour>
	</outline>
	<anchor name="bottom" x="351" y="-30"/>
	<anchor name="top" x="388" y="730"/>
</glyph>
<glyph name="jdotless" format="2">
	<unicode hex="0237"/>
	<advance width="353"/>
	<outline>
		<contour>
			<point x="15" y="-230" type="line"/>
			<point x="270" y="-173"/>
			<point x="298" y="-57"/>
			<point x="298" y="90" type="curve" smooth="yes"/>
			<point x="298" y="523" type="line"/>
			<point x="291" y="531" type="line"/>
			<point x="12" y="519" type="line"/>
			<point x="11" y="507" type="line"/>
			<point x="38" y="504" type="line" smooth="yes"/>
			<point x="69" y="501"/>
			<point x="74" y="486"/>
			<point x="74" y="447" type="curve" smooth="yes"/>
			<point x="74" y="-31" type="line" smooth="yes"/>
			<point x="74" y="-116"/>
			<point x="63" y="-161"/>
			<point x="10" y="-221" type="curve"/>
		</contour>
	</outline>
	<anchor name="top" x="177" y="550"/>
</glyph>
<glyph name="alpha-latin" format="2">
	<unicode hex="0251"/>
	<advance width="713"/>
	<outline>
		<contour>
			<point x="257" y="-14" type="curve" smooth="yes"/>
			<point x="343" y="-14"/>
			<point x="386" y="29"/>
			<point x="413" y="74" type="curve"/>
			<point x="415" y="74" type="line"/>
			<point x="446" y="6"/>
			<point x="483" y="-14"/>
			<point x="565" y="-14" type="curve" smooth="yes"/>
			<point x="620" y="-14"/>
			<point x="680" y="0"/>
			<point x="720" y="33" type="curve"/>
			<point x="715" y="40" type="line"/>
			<point x="703" y="35"/>
			<point x="692" y="31"/>
			<point x="675" y="31" type="curve" smooth="yes"/>
			<point x="636" y="31"/>
			<point x="630" y="53"/>
			<point x="630" y="96" type="curve" smooth="yes"/>
			<point x="630" y="527" type="line"/>
			<point x="617" y="535" type="line"/>
			<point x="476" y="493" type="line"/>
			<point x="408" y="522"/>
			<point x="372" y="537"/>
			<point x="301" y="537" type="curve" smooth="yes"/>
			<point x="128" y="537"/>
			<point x="27" y="423"/>
			<point x="27" y="246" type="curve" smooth="yes"/>
			<point x="27" y="65"/>
			<point x="123" y="-14"/>
		</contour>
		<contour>
			<point x="343" y="55" type="curve" smooth="yes"/>
			<point x="293" y="55"/>
			<point x="262" y="112"/>
			<point x="262" y="277" type="curve" smooth="yes"/>
			<point x="262" y="454"/>
			<point x="284" y="514"/>
			<point x="335" y="514" type="curve" smooth="yes"/>
			<point x="356" y="514"/>
			<point x="382" y="502"/>
			<point x="406" y="477" type="curve"/>
			<point x="406" y="147" type="line" smooth="yes"/>
			<point x="406" y="70"/>
			<point x="371" y="55"/>
		</contour>
	</outline>
</glyph>
<glyph name="schwa" format="2">
	<unicode hex="0259"/>
	<advance width="605"/>
	<outline>
		<contour>
			<point x="273" y="-14" type="curve" smooth="yes"/>
			<point x="438" y="-14"/>
			<point x="578" y="89"/>
			<point x="578" y="271" type="curve" smooth="yes"/>
			<point x="578" y="438"/>
			<point x="477" y="537"/>
			<point x="298" y="537" type="curve" smooth="yes"/>
			<point x="163" y="537"/>
			<point x="66" y="462"/>
			<point x="27" y="356" type="curve"/>
			<point x="37" y="350" type="line"/>
			<point x="102" y="395"/>
			<point x="153" y="407"/>
			<point x="207" y="407" type="curve" smooth="yes"/>
			<point x="310" y="407"/>
			<point x="348" y="337"/>
			<point x="349" y="236" type="curve"/>
			<point x="30" y="236" type="line"/>
			<point x="29" y="216"/>
			<point x="28" y="201"/>
			<point x="28" y="187" type="curve" smooth="yes"/>
			<point x="28" y="61"/>
			<point x="126" y="-14"/>
		</contour>
		<contour>
			<point x="280" y="5" type="curve" smooth="yes"/>
			<point x="248" y="5"/>
			<point x="234" y="47"/>
			<point x="234" y="142" type="curve" smooth="yes"/>
			<point x="234" y="167"/>
			<point x="235" y="192"/>
			<point x="238" y="220" type="curve"/>
			<point x="349" y="220" type="line"/>
			<point x="345" y="42"/>
			<point x="314" y="5"/>
		</contour>
	</outline>
	<anchor name="bottom" x="281" y="-30"/>
	<anchor name="top" x="301" y="550"/>
</glyph>
<glyph name="gsingle" format="2">
	<unicode hex="0261"/>
	<advance width="685"/>
	<outline>
		<contour>
			<point x="307" y="-231" type="curve" smooth="yes"/>
			<point x="572" y="-231"/>
			<point x="630" y="-57"/>
			<point x="630" y="90" type="curve" smooth="yes"/>
			<point x="630" y="527" type="line"/>
			<point x="617" y="535" type="line"/>
			<point x="476" y="493" type="line"/>
			<point x="408" y="522"/>
			<point x="372" y="537"/>
			<point x="301" y="537" type="curve" smooth="yes"/>
			<point x="128" y="537"/>
			<point x="27" y="423"/>
			<point x="27" y="246" type="curve" smooth="yes"/>
			<point x="27" y="65"/>
			<point x="123" y="-14"/>
			<point x="257" y="-14" type="curve" smooth="yes"/>
			<point x="343" y="-14"/>
			<point x="383" y="31"/>
			<point x="405" y="67" type="curve"/>
			<point x="406" y="67" type="line"/>
			<point x="406" y="-71" type="line" smooth="yes"/>
			<point x="406" y="-156"/>
			<point x="376" y="-211"/>
			<point x="302" y="-211" type="curve" smooth="yes"/>
			<point x="272" y="-211"/>
			<point x="240" y="-203"/>
			<point x="214" y="-194" type="curve"/>
			<point x="225" y="-153"/>
			<point x="234" y="-128"/>
			<point x="234" y="-99" type="curve" smooth="yes"/>
			<point x="234" y="-59"/>
			<point x="203" y="-31"/>
			<point x="154" y="-31" type="curve" smooth="yes"/>
			<point x="100" y="-31"/>
			<point x="71" y="-70"/>
			<point x="71" y="-118" type="curve" smooth="yes"/>
			<point x="71" y="-219"/>
			<point x="208" y="-231"/>
		</contour>
		<contour>
			<point x="343" y="55" type="curve" smooth="yes"/>
			<point x="293" y="55"/>
			<point x="262" y="112"/>
			<point x="262" y="277" type="curve" smooth="yes"/>
			<point x="262" y="454"/>
			<point x="284" y="514"/>
			<point x="335" y="514" type="curve" smooth="yes"/>
			<point x="356" y="514"/>
			<point x="382" y="502"/>
			<point x="406" y="477" type="curve"/>
			<point x="406" y="147" type="line" smooth="yes"/>
			<point x="406" y="70"/>
			<point x="371" y="55"/>
		</contour>
	</outline>
</glyph>
<glyph name="ringhalfright" format="2">
	<unicode hex="02BE"/>
	<advance width="500"/>
	<outline>
		<contour>
			<point x="172" y="581" type="line"/>
			<point x="201" y="581" type="line" smooth="yes"/>
			<point x="299" y="581"/>
			<point x="365" y="619"/>
			<point x="365" y="697" type="curve" smooth="yes"/>
			<point x="365" y="767"/>
			<point x="320" y="817"/>
			<point x="198" y="817" type="curve" smooth="yes"/>
			<point x="172" y="817" type="line"/>
			<point x="172" y="800" type="line"/>
			<point x="182" y="800" type="line" smooth="yes"/>
			<point x="213" y="800"/>
			<point x="230" y="781"/>
			<point x="230" y="696" type="curve" smooth="yes"/>
			<point x="230" y="621"/>
			<point x="213" y="598"/>
			<point x="181" y="598" type="curve" smooth="yes"/>
			<point x="172" y="598" type="line"/>
		</contour>
	</outline>
	<anchor name="_top" x="250" y="550"/>
</glyph>
<glyph name="ringhalfleft" format="2">
	<unicode hex="02BF"/>
	<advance width="500"/>
	<outline>
		<contour>
			<point x="301" y="582" type="curve" smooth="yes"/>
			<point x="327" y="582" type="line"/>
			<point x="327" y="599" type="line"/>
			<point x="317" y="599" type="line" smooth="yes"/>
			<point x="286" y="599"/>
			<point x="269" y="618"/>
			<point x="269" y="703" type="curve" smooth="yes"/>
			<point x="269" y="778"/>
			<point x="286" y="801"/>
			<point x="318" y="801" type="curve" smooth="yes"/>
			<point x="327" y="801" type="line"/>
			<point x="327" y="818" type="line"/>
			<point x="298" y="818" type="line" smooth="yes"/>
			<point x="200" y="818"/>
			<point x="134" y="780"/>
			<point x="134" y="702" type="curve" smooth="yes"/>
			<point x="134" y="632"/>
			<point x="179" y="582"/>
		</contour>
	</outline>
	<anchor name="_top" x="250" y="550"/>
</glyph>
<glyph name="caron" format="2">
	<unicode hex="02C7"/>
	<advance width="500"/>
	<outline>
		<contour>
			<point x="250" y="577" type="curve" smooth="yes"/>
			<point x="275" y="577"/>
			<point x="296" y="586"/>
			<point x="321" y="623" type="curve" smooth="yes"/>
			<point x="446" y="810" type="line"/>
			<point x="438" y="819" type="line"/>
			<point x="251" y="712" type="line"/>
			<point x="62" y="819" type="line"/>
			<point x="54" y="810" type="line"/>
			<point x="182" y="625" type="line" smooth="yes"/>
			<point x="207" y="589"/>
			<point x="221" y="577"/>
		</contour>
	</outline>
	<anchor name="_top" x="250" y="550"/>
</glyph>
<glyph name="verticallinelowmod" format="2">
	<unicode hex="02CC"/>
	<advance width="500"/>
	<outline>
		<contour>
			<point x="195" y="-276" type="line"/>
			<point x="306" y="-276" type="line"/>
			<point x="306" y="-50" type="line"/>
			<point x="195" y="-50" type="line"/>
		</contour>
	</outline>
	<anchor name="_bottom" x="250" y="-30"/>
</glyph>
<glyph name="ring" format="2">
	<unicode hex="02DA"/>
	<advance width="500"/>
	<outline>
		<contour>
			<point x="240" y="584" type="curve" smooth="yes"/>
			<point x="348" y="584"/>
			<point x="423" y="628"/>
			<point x="423" y="706" type="curve" smooth="yes"/>
			<point x="423" y="789"/>
			<point x="369" y="828"/>
			<point x="255" y="828" type="curve" smooth="yes"/>
			<point x="153" y="828"/>
			<point x="78" y="790"/>
			<point x="78" y="706" type="curve" smooth="yes"/>
			<point x="78" y="631"/>
			<point x="142" y="584"/>
		</contour>
		<contour>
			<point x="250" y="602" type="curve" smooth="yes"/>
			<point x="224" y="602"/>
			<point x="212" y="613"/>
			<point x="212" y="707" type="curve" smooth="yes"/>
			<point x="212" y="794"/>
			<point x="223" y="810"/>
			<point x="249" y="810" type="curve" smooth="yes"/>
			<point x="272" y="810"/>
			<point x="288" y="799"/>
			<point x="288" y="707" type="curve" smooth="yes"/>
			<point x="288" y="618"/>
			<point x="274" y="602"/>
		</contour>
	</outline>
	<anchor name="_top" x="250" y="550"/>
</glyph>
<glyph name="tilde" format="2">
	<unicode hex="02DC"/>
	<advance width="500"/>
	<outline>
		<contour>
			<point x="325" y="601" type="curve" smooth="yes"/>
			<point x="381" y="601"/>
			<point x="412" y="632"/>
			<point x="448" y="771" type="curve"/>
			<point x="434" y="774" type="line"/>
			<point x="416" y="741"/>
			<point x="402" y="732"/>
			<point x="375" y="732" type="curve" smooth="yes"/>
			<point x="352" y="732"/>
			<point x="325" y="738"/>
			<point x="278" y="759" type="curve" smooth="yes"/>
			<point x="246" y="773"/>
			<point x="207" y="788"/>
			<point x="172" y="788" type="curve" smooth="yes"/>
			<point x="106" y="788"/>
			<point x="66" y="744"/>
			<point x="52" y="618" type="curve"/>
			<point x="65" y="615" type="line"/>
			<point x="85" y="649"/>
			<point x="104" y="656"/>
			<point x="124" y="656" type="curve" smooth="yes"/>
			<point x="145" y="656"/>
			<point x="171" y="650"/>
			<point x="217" y="629" type="curve" smooth="yes"/>
			<point x="260" y="609"/>
			<point x="292" y="601"/>
		</contour>
	</outline>
	<anchor name="_top" x="250" y="550"/>
</glyph>
<glyph name="circumflexcomb" format="2">
	<unicode hex="0302"/>
	<outline>
		<contour>
			<point x="-188" y="572" type="line"/>
			<point x="-1" y="679" type="line"/>
			<point x="188" y="572" type="line"/>
			<point x="196" y="581" type="line"/>
			<point x="68" y="766" type="line" smooth="yes"/>
			<point x="43" y="802"/>
			<point x="29" y="814"/>
			<point x="0" y="814" type="curve" smooth="yes"/>
			<point x="-25" y="814"/>
			<point x="-46" y="805"/>
			<point x="-71" y="768" type="curve" smooth="yes"/>
			<point x="-196" y="581" type="line"/>
		</contour>
	</outline>
	<anchor name="_top" x="0" y="550"/>
</glyph>
<glyph name="tildecomb" format="2">
	<unicode hex="0303"/>
	<outline>
		<contour>
			<point x="75" y="607" type="curve" smooth="yes"/>
			<point x="131" y="607"/>
			<point x="162" y="638"/>
			<point x="198" y="777" type="curve"/>
			<point x="184" y="780" type="line"/>
			<point x="166" y="747"/>
			<point x="152" y="738"/>
			<point x="125" y="738" type="curve" smooth="yes"/>
			<point x="102" y="738"/>
			<point x="75" y="744"/>
			<point x="28" y="765" type="curve" smooth="yes"/>
			<point x="-4" y="779"/>
			<point x="-43" y="794"/>
			<point x="-78" y="794" type="curve" smooth="yes"/>
			<point x="-144" y="794"/>
			<point x="-184" y="750"/>
			<point x="-198" y="624" type="curve"/>
			<point x="-185" y="621" type="line"/>
			<point x="-165" y="655"/>
			<point x="-146" y="662"/>
			<point x="-126" y="662" type="curve" smooth="yes"/>
			<point x="-105" y="662"/>
			<point x="-79" y="656"/>
			<point x="-33" y="635" type="curve" smooth="yes"/>
			<point x="10" y="615"/>
			<point x="42" y="607"/>
		</contour>
	</outline>
	<anchor name="_top" x="0" y="550"/>
</glyph>
<glyph name="macroncomb" format="2">
	<unicode hex="0304"/>
	<outline>
		<contour>
			<point x="-174" y="632" type="line"/>
			<point x="174" y="632" type="line"/>
			<point x="174" y="756" type="line"/>
			<point x="-174" y="756" type="line"/>
		</contour>
	</outline>
	<anchor name="_top" x="0" y="550"/>
</glyph>
<glyph name="dotaccentcomb" format="2">
	<unicode hex="0307"/>
	<outline>
		<contour>
			<point x="0" y="594" type="curve" smooth="yes"/>
			<point x="82" y="594"/>
			<point x="128" y="633"/>
			<point x="128" y="698" type="curve" smooth="yes"/>
			<point x="128" y="764"/>
			<point x="89" y="802"/>
			<point x="0" y="802" type="curve" smooth="yes"/>
			<point x="-87" y="802"/>
			<point x="-129" y="763"/>
			<point x="-129" y="699" type="curve" smooth="yes"/>
			<point x="-129" y="632"/>
			<point x="-84" y="594"/>
		</contour>
	</outline>
	<anchor name="_top" x="0" y="550"/>
</glyph>
<glyph name="hungarumlautcomb" format="2">
	<unicode hex="030B"/>
	<outline>
		<contour>
			<point x="82" y="577" type="line"/>
			<point x="270" y="682" type="line" smooth="yes"/>
			<point x="299" y="698"/>
			<point x="311" y="728"/>
			<point x="311" y="753" type="curve" smooth="yes"/>
			<point x="311" y="778"/>
			<point x="293" y="824"/>
			<point x="246" y="824" type="curve" smooth="yes"/>
			<point x="224" y="824"/>
			<point x="203" y="812"/>
			<point x="187" y="785" type="curve" smooth="yes"/>
			<point x="72" y="587" type="line"/>
		</contour>
		<contour>
			<point x="-132" y="577" type="line"/>
			<point x="49" y="688" type="line" smooth="yes"/>
			<point x="79" y="706"/>
			<point x="87" y="732"/>
			<point x="87" y="754" type="curve" smooth="yes"/>
			<point x="87" y="777"/>
			<point x="73" y="824"/>
			<point x="26" y="824" type="curve" smooth="yes"/>
			<point x="2" y="824"/>
			<point x="-20" y="811"/>
			<point x="-34" y="785" type="curve" smooth="yes"/>
			<point x="-142" y="587" type="line"/>
		</contour>
	</outline>
	<anchor name="_top" x="0" y="550"/>
</glyph>
<glyph name="caroncomb" format="2">
	<unicode hex="030C"/>
	<outline>
		<contour>
			<point x="1" y="577" type="curve" smooth="yes"/>
			<point x="26" y="577"/>
			<point x="47" y="586"/>
			<point x="72" y="623" type="curve" smooth="yes"/>
			<point x="197" y="810" type="line"/>
			<point x="189" y="819" type="line"/>
			<point x="2" y="712" type="line"/>
			<point x="-187" y="819" type="line"/>
			<point x="-195" y="810" type="line"/>
			<point x="-67" y="625" type="line" smooth="yes"/>
			<point x="-42" y="589"/>
			<point x="-28" y="577"/>
		</contour>
	</outline>
	<anchor name="_top" x="0" y="550"/>
</glyph>
<glyph name="commaturnedabovecomb" format="2">
	<unicode hex="0312"/>
	<outline>
		<contour>
			<point x="2" y="576" type="curve" smooth="yes"/>
			<point x="53" y="576"/>
			<point x="87" y="603"/>
			<point x="87" y="641" type="curve" smooth="yes"/>
			<point x="87" y="683"/>
			<point x="62" y="707"/>
			<point x="6" y="707" type="curve" smooth="yes"/>
			<point x="-14" y="707" type="line"/>
			<point x="-14" y="742"/>
			<point x="-4" y="774"/>
			<point x="69" y="826" type="curve"/>
			<point x="60" y="840" type="line"/>
			<point x="-57" y="786"/>
			<point x="-95" y="727"/>
			<point x="-95" y="665" type="curve" smooth="yes"/>
			<point x="-95" y="617"/>
			<point x="-66" y="576"/>
		</contour>
	</outline>
	<anchor name="_top" x="0" y="550"/>
</glyph>
<glyph name="commaaccentcomb" format="2">
	<unicode hex="0326"/>
	<outline>
		<contour>
			<point x="-81" y="-341" type="line"/>
			<point x="78" y="-273"/>
			<point x="96" y="-207"/>
			<point x="96" y="-152" type="curve" smooth="yes"/>
			<point x="96" y="-103"/>
			<point x="62" y="-56"/>
			<point x="-5" y="-56" type="curve" smooth="yes"/>
			<point x="-61" y="-56"/>
			<point x="-103" y="-83"/>
			<point x="-103" y="-132" type="curve" smooth="yes"/>
			<point x="-103" y="-167"/>
			<point x="-79" y="-196"/>
			<point x="-16" y="-196" type="curve" smooth="yes"/>
			<point x="4" y="-196" type="line"/>
			<point x="2" y="-234"/>
			<point x="-1" y="-269"/>
			<point x="-89" y="-329" type="curve"/>
		</contour>
	</outline>
	<anchor name="_bottom" x="0" y="-30"/>
</glyph>
<glyph name="ogonekcomb" format="2">
	<unicode hex="0328"/>
	<outline>
		<contour>
			<point x="-38" y="-252" type="curve" smooth="yes"/>
			<point x="8" y="-252"/>
			<point x="82" y="-223"/>
			<point x="123" y="-141" type="curve"/>
			<point x="116" y="-134" type="line"/>
			<point x="90" y="-154"/>
			<point x="65" y="-161"/>
			<point x="46" y="-161" type="curve" smooth="yes"/>
			<point x="24" y="-161"/>
			<point x="0" y="-148"/>
			<point x="0" y="-110" type="curve" smooth="yes"/>
			<point x="0" y="-66"/>
			<point x="19" y="-38"/>
			<point x="87" y="9" type="curve"/>
			<point x="72" y="9" type="line"/>
			<point x="-74" y="-50"/>
			<point x="-151" y="-92"/>
			<point x="-151" y="-164" type="curve" smooth="yes"/>
			<point x="-151" y="-207"/>
			<point x="-124" y="-252"/>
		</contour>
	</outline>
	<anchor name="_bottom" x="-13" y="-30"/>
</glyph>
<glyph name="ypogegrammeni" format="2">
	<unicode hex="037A"/>
	<advance width="297"/>
	<outline>
		<contour>
			<point x="168" y="-233" type="curve" smooth="yes"/>
			<point x="226" y="-233"/>
			<point x="275" y="-201"/>
			<point x="313" y="-137" type="curve"/>
			<point x="308" y="-131" type="line"/>
			<point x="291" y="-140"/>
			<point x="276" y="-148"/>
			<point x="258" y="-148" type="curve" smooth="yes"/>
			<point x="238" y="-148"/>
			<point x="228" y="-138"/>
			<point x="228" y="-116" type="curve" smooth="yes"/>
			<point x="228" y="-95"/>
			<point x="230" y="-72"/>
			<point x="236" y="-37" type="curve"/>
			<point x="225" y="-32" type="line"/>
			<point x="49" y="-40" type="line"/>
			<point x="49" y="-116" type="line" smooth="yes"/>
			<point x="49" y="-195"/>
			<point x="88" y="-233"/>
		</contour>
	</outline>
	<anchor name="_bottom" x="155" y="-30"/>
</glyph>
<glyph name="Gamma" format="2">
	<unicode hex="0393"/>
	<advance width="595"/>
	<outline>
		<contour>
			<point x="37" y="0" type="line"/>
			<point x="421" y="0" type="line"/>
			<point x="421" y="12" type="line"/>
			<point x="379" y="14" type="line" smooth="yes"/>
			<point x="343" y="15"/>
			<point x="336" y="24"/>
			<point x="336" y="66" type="curve"/>
			<point x="336" y="714" type="line"/>
			<point x="363" y="714" type="line" smooth="yes"/>
			<point x="463" y="714"/>
			<point x="498" y="679"/>
			<point x="562" y="516" type="curve"/>
			<point x="575" y="520" type="line"/>
			<point x="547" y="730" type="line"/>
			<point x="37" y="730" type="line"/>
			<point x="37" y="718" type="line"/>
			<point x="66" y="717" type="line" smooth="yes"/>
			<point x="95" y="716"/>
			<point x="102" y="708"/>
			<point x="102" y="673" type="curve" smooth="yes"/>
			<point x="102" y="70" type="line" smooth="yes"/>
			<point x="102" y="26"/>
			<point x="96" y="15"/>
			<point x="71" y="14" type="curve" smooth="yes"/>
			<point x="37" y="12" type="line"/>
		</contour>
	</outline>
</glyph>
<glyph name="Delta" format="2">
	<unicode hex="0394"/>
	<advance width="644"/>
	<outline>
		<contour>
			<point x="17" y="0" type="line"/>
			<point x="634" y="0" type="line"/>
			<point x="644" y="59" type="line"/>
			<point x="393" y="730" type="line"/>
			<point x="234" y="730" type="line"/>
			<point x="0" y="77" type="line"/>
		</contour>
		<contour>
			<point x="37" y="113" type="line"/>
			<point x="212" y="603" type="line"/>
			<point x="216" y="603" type="line"/>
			<point x="380" y="113" type="line"/>
		</contour>
	</outline>
</glyph>
<glyph name="Pi" format="2">
	<unicode hex="03A0"/>
	<advance width="846"/>
	<outline>
		<contour>
			<point x="37" y="0" type="line"/>
			<point x="396" y="0" type="line"/>
			<point x="396" y="12" type="line"/>
			<point x="370" y="14" type="line" smooth="yes"/>
			<point x="343" y="16"/>
			<point x="336" y="26"/>
			<point x="336" y="66" type="curve" smooth="yes"/>
			<point x="336" y="713" type="line"/>
			<point x="510" y="713" type="line"/>
			<point x="510" y="70" type="line" smooth="yes"/>
			<point x="510" y="26"/>
			<point x="504" y="16"/>
			<point x="479" y="14" type="curve" smooth="yes"/>
			<point x="450" y="12" type="line"/>
			<point x="450" y="0" type="line"/>
			<point x="809" y="0" type="line"/>
			<point x="809" y="12" type="line"/>
			<point x="777" y="14" type="line" smooth="yes"/>
			<point x="750" y="16"/>
			<point x="744" y="25"/>
			<point x="744" y="66" type="curve" smooth="yes"/>
			<point x="744" y="667" type="line" smooth="yes"/>
			<point x="744" y="705"/>
			<point x="751" y="716"/>
			<point x="775" y="717" type="curve" smooth="yes"/>
			<point x="809" y="718" type="line"/>
			<point x="809" y="730" type="line"/>
			<point x="37" y="730" type="line"/>
			<point x="37" y="718" type="line"/>
			<point x="66" y="717" type="line" smooth="yes"/>
			<point x="95" y="716"/>
			<point x="102" y="708"/>
			<point x="102" y="673" type="curve" smooth="yes"/>
			<point x="102" y="70" type="line" smooth="yes"/>
			<point x="102" y="26"/>
			<point x="96" y="15"/>
			<point x="71" y="14" type="curve" smooth="yes"/>
			<point x="37" y="12" type="line"/>
		</contour>
	</outline>
</glyph>
<glyph name="Sigma" format="2">
	<unicode hex="03A3"/>
	<advance width="703"/>
	<outline>
		<contour>
			<point x="36" y="0" type="line"/>
			<point x="649" y="0" type="line"/>
			<point x="673" y="235" type="line"/>
			<point x="657" y="235" type="line"/>
			<point x="619" y="125"/>
			<point x="607" y="115"/>
			<point x="514" y="115" type="curve" smooth="yes"/>
			<point x="128" y="115" type="line"/>
			<point x="155" y="16" type="line"/>
			<point x="435" y="411" type="line"/>
			<point x="435" y="420" type="line"/>
			<point x="270" y="714" type="line"/>
			<point x="461" y="714" type="line" smooth="yes"/>
			<point x="555" y="714"/>
			<point x="571" y="645"/>
			<point x="623" y="516" type="curve"/>
			<point x="638" y="520" type="line"/>
			<point x="610" y="730" type="line"/>
			<point x="20" y="730" type="line"/>
			<point x="20" y="714" type="line"/>
			<point x="263" y="322" type="line"/>
			<point x="36" y="15" type="line"/>
		</contour>
	</outline>
</glyph>
<glyph name="Omega" format="2">
	<unicode hex="03A9"/>
	<advance width="838"/>
	<outline>
		<contour>
			<point x="40" y="0" type="line"/>
			<point x="369" y="0" type="line"/>
			<point x="369" y="219" type="line"/>
			<point x="308" y="243"/>
			<point x="285" y="299"/>
			<point x="285" y="423" type="curve" smooth="yes"/>
			<point x="285" y="629"/>
			<point x="328" y="727"/>
			<point x="419" y="727" type="curve" smooth="yes"/>
			<point x="506" y="727"/>
			<point x="553" y="631"/>
			<point x="553" y="453" type="curve" smooth="yes"/>
			<point x="553" y="300"/>
			<point x="533" y="244"/>
			<point x="469" y="219" type="curve"/>
			<point x="469" y="0" type="line"/>
			<point x="798" y="0" type="line"/>
			<point x="818" y="220" type="line"/>
			<point x="793" y="220" type="line"/>
			<point x="750" y="115"/>
			<point x="740" y="116"/>
			<point x="691" y="116" type="curve" smooth="yes"/>
			<point x="524" y="116" type="line"/>
			<point x="524" y="169" type="line"/>
			<point x="682" y="192"/>
			<point x="788" y="305"/>
			<point x="788" y="450" type="curve" smooth="yes"/>
			<point x="788" y="638"/>
			<point x="654" y="744"/>
			<point x="419" y="744" type="curve" smooth="yes"/>
			<point x="191" y="744"/>
			<point x="50" y="624"/>
			<point x="50" y="430" type="curve" smooth="yes"/>
			<point x="50" y="291"/>
			<point x="149" y="193"/>
			<point x="314" y="169" type="curve"/>
			<point x="314" y="116" type="line"/>
			<point x="188" y="116" type="line" smooth="yes"/>
			<point x="108" y="116"/>
			<point x="89" y="114"/>
			<point x="45" y="220" type="curve"/>
			<point x="20" y="220" type="line"/>
		</contour>
	</outline>
	<anchor name="bottom" x="419" y="-45"/>
	<anchor name="side" x="806" y="217"/>
	<anchor name="topleft" x="30" y="730"/>
</glyph>
<glyph name="gamma" format="2">
	<unicode hex="03B3"/>
	<advance width="663"/>
	<outline>
		<contour>
			<point x="225" y="-190" type="curve"/>
			<point x="285" y="-190"/>
			<point x="360" y="-176"/>
			<point x="374" y="-162" type="curve"/>
			<point x="374" y="-80"/>
			<point x="368" y="-4"/>
			<point x="359" y="27" type="curve"/>
			<point x="528" y="118"/>
			<point x="626" y="267"/>
			<point x="626" y="434" type="curve" smooth="yes"/>
			<point x="626" y="471"/>
			<point x="622" y="503"/>
			<point x="615" y="523" type="curve"/>
			<point x="606" y="531" type="line"/>
			<point x="380" y="516" type="line"/>
			<point x="397" y="475"/>
			<point x="408" y="408"/>
			<point x="408" y="341" type="curve" smooth="yes"/>
			<point x="408" y="234"/>
			<point x="390" y="130"/>
			<point x="359" y="58" type="curve"/>
			<point x="357" y="58" type="line"/>
			<point x="345" y="416"/>
			<point x="296" y="533"/>
			<point x="158" y="533" type="curve" smooth="yes"/>
			<point x="89" y="533"/>
			<point x="25" y="507"/>
			<point x="-10" y="465" type="curve"/>
			<point x="-5" y="457" type="line"/>
			<point x="6" y="462"/>
			<point x="17" y="465"/>
			<point x="29" y="465" type="curve" smooth="yes"/>
			<point x="98" y="465"/>
			<point x="143" y="347"/>
			<point x="201" y="15" type="curve"/>
			<point x="172" y="-52"/>
			<point x="182" y="-138"/>
		</contour>
	</outline>
</glyph>
<glyph name="epsilon" format="2">
	<unicode hex="03B5"/>
	<advance width="584"/>
	<outline>
		<contour>
			<point x="275" y="-14" type="curve" smooth="yes"/>
			<point x="414" y="-14"/>
			<point x="505" y="41"/>
			<point x="564" y="160" type="curve"/>
			<point x="555" y="167" type="line"/>
			<point x="511" y="129"/>
			<point x="410" y="94"/>
			<point x="344" y="94" type="curve" smooth="yes"/>
			<point x="260" y="94"/>
			<point x="213" y="129"/>
			<point x="213" y="192" type="curve" smooth="yes"/>
			<point x="213" y="225"/>
			<point x="233" y="252"/>
			<point x="270" y="269" type="curve"/>
			<point x="291" y="227"/>
			<point x="321" y="203"/>
			<point x="351" y="203" type="curve" smooth="yes"/>
			<point x="386" y="203"/>
			<point x="409" y="232"/>
			<point x="409" y="276" type="curve" smooth="yes"/>
			<point x="409" y="318"/>
			<point x="386" y="346"/>
			<point x="351" y="346" type="curve" smooth="yes"/>
			<point x="324" y="346"/>
			<point x="300" y="329"/>
			<point x="270" y="288" type="curve"/>
			<point x="232" y="312"/>
			<point x="213" y="347"/>
			<point x="213" y="393" type="curve" smooth="yes"/>
			<point x="213" y="470"/>
			<point x="264" y="516"/>
			<point x="350" y="516" type="curve" smooth="yes"/>
			<point x="394" y="516"/>
			<point x="429" y="508"/>
			<point x="455" y="492" type="curve"/>
			<point x="421" y="443"/>
			<point x="402" y="401"/>
			<point x="402" y="376" type="curve" smooth="yes"/>
			<point x="402" y="338"/>
			<point x="430" y="316"/>
			<point x="477" y="316" type="curve" smooth="yes"/>
			<point x="524" y="316"/>
			<point x="560" y="351"/>
			<point x="560" y="396" type="curve" smooth="yes"/>
			<point x="560" y="485"/>
			<point x="470" y="536"/>
			<point x="314" y="536" type="curve" smooth="yes"/>
			<point x="136" y="536"/>
			<point x="40" y="486"/>
			<point x="40" y="392" type="curve" smooth="yes"/>
			<point x="40" y="326"/>
			<point x="84" y="285"/>
			<point x="169" y="272" type="curve"/>
			<point x="169" y="270" type="line"/>
			<point x="85" y="262"/>
			<point x="32" y="213"/>
			<point x="32" y="142" type="curve" smooth="yes"/>
			<point x="32" y="43"/>
			<point x="121" y="-14"/>
		</contour>
	</outline>
	<anchor name="top" x="309" y="550"/>
</glyph>
<glyph name="theta" format="2">
	<unicode hex="03B8"/>
	<advance width="684"/>
	<outline>
		<contour>
			<point x="318" y="-14" type="curve" smooth="yes"/>
			<point x="517" y="-14"/>
			<point x="647" y="143"/>
			<point x="647" y="385" type="curve" smooth="yes"/>
			<point x="647" y="651"/>
			<point x="549" y="782"/>
			<point x="350" y="782" type="curve" smooth="yes"/>
			<point x="154" y="782"/>
			<point x="37" y="635"/>
			<point x="37" y="387" type="curve" smooth="yes"/>
			<point x="37" y="96"/>
			<point x="114" y="-14"/>
		</contour>
		<contour>
			<point x="342" y="3" type="curve" smooth="yes"/>
			<point x="274" y="3"/>
			<point x="255" y="74"/>
			<point x="255" y="324" type="curve"/>
			<point x="428" y="403" type="line"/>
			<point x="428" y="128"/>
			<point x="401" y="3"/>
		</contour>
		<contour>
			<point x="255" y="413" type="line"/>
			<point x="255" y="710"/>
			<point x="268" y="765"/>
			<point x="338" y="765" type="curve" smooth="yes"/>
			<point x="400" y="765"/>
			<point x="426" y="660"/>
			<point x="426" y="413" type="curve"/>
		</contour>
	</outline>
</glyph>
<glyph name="kappa" format="2">
	<unicode hex="03BA"/>
	<advance width="714"/>
	<outline>
		<contour>
			<point x="531" y="-14" type="curve" smooth="yes"/>
			<point x="591" y="-14"/>
			<point x="666" y="17"/>
			<point x="695" y="54" type="curve"/>
			<point x="690" y="62" type="line"/>
			<point x="680" y="57"/>
			<point x="669" y="54"/>
			<point x="660" y="54" type="curve" smooth="yes"/>
			<point x="635" y="54"/>
			<point x="625" y="67"/>
			<point x="552" y="194" type="curve" smooth="yes"/>
			<point x="489" y="305"/>
			<point x="448" y="379"/>
			<point x="437" y="407" type="curve"/>
			<point x="441" y="413" type="line" smooth="yes"/>
			<point x="463" y="447"/>
			<point x="487" y="467"/>
			<point x="513" y="473" type="curve"/>
			<point x="510" y="402"/>
			<point x="544" y="360"/>
			<point x="604" y="360" type="curve" smooth="yes"/>
			<point x="655" y="360"/>
			<point x="689" y="395"/>
			<point x="689" y="449" type="curve" smooth="yes"/>
			<point x="689" y="501"/>
			<point x="651" y="537"/>
			<point x="598" y="537" type="curve" smooth="yes"/>
			<point x="533" y="537"/>
			<point x="492" y="510"/>
			<point x="423" y="422" type="curve" smooth="yes"/>
			<point x="281" y="241" type="line"/>
			<point x="284" y="337"/>
			<point x="292" y="440"/>
			<point x="298" y="523" type="curve"/>
			<point x="290" y="531" type="line"/>
			<point x="54" y="524" type="line"/>
			<point x="65" y="0" type="line"/>
			<point x="275" y="0" type="line"/>
			<point x="280" y="211" type="line"/>
			<point x="305" y="242" type="line"/>
			<point x="321" y="195"/>
			<point x="348" y="142"/>
			<point x="369" y="93" type="curve" smooth="yes"/>
			<point x="401" y="20"/>
			<point x="452" y="-14"/>
		</contour>
	</outline>
</glyph>
<glyph name="nu" format="2">
	<unicode hex="03BD"/>
	<advance width="664"/>
	<outline>
		<contour>
			<point x="345" y="-23" type="line"/>
			<point x="528" y="73"/>
			<point x="627" y="227"/>
			<point x="627" y="414" type="curve" smooth="yes"/>
			<point x="627" y="462"/>
			<point x="625" y="489"/>
			<point x="618" y="515" type="curve"/>
			<point x="609" y="523" type="line"/>
			<point x="381" y="523" type="line"/>
			<point x="400" y="472"/>
			<point x="409" y="411"/>
			<point x="409" y="341" type="curve" smooth="yes"/>
			<point x="409" y="214"/>
			<point x="377" y="66"/>
			<point x="338" y="13" type="curve"/>
			<point x="336" y="13" type="line"/>
			<point x="353" y="419"/>
			<point x="313" y="533"/>
			<point x="152" y="533" type="curve" smooth="yes"/>
			<point x="89" y="533"/>
			<point x="23" y="505"/>
			<point x="-10" y="465" type="curve"/>
			<point x="-5" y="457" type="line"/>
			<point x="6" y="462"/>
			<point x="17" y="465"/>
			<point x="29" y="465" type="curve" smooth="yes"/>
			<point x="100" y="465"/>
			<point x="134" y="345"/>
			<point x="161" y="2" type="curve"/>
		</contour>
	</outline>
</glyph>
<glyph name="xi" format="2">
	<unicode hex="03BE"/>
	<advance width="594"/>
	<outline>
		<contour>
			<point x="400" y="-229" type="line"/>
			<point x="519" y="-170"/>
			<point x="589" y="-79"/>
			<point x="589" y="16" type="curve" smooth="yes"/>
			<point x="589" y="110"/>
			<point x="538" y="156"/>
			<point x="391" y="197" type="curve" smooth="yes"/>
			<point x="222" y="243"/>
			<point x="192" y="256"/>
			<point x="192" y="280" type="curve" smooth="yes"/>
			<point x="192" y="305"/>
			<point x="215" y="319"/>
			<point x="311" y="354" type="curve"/>
			<point x="353" y="311"/>
			<point x="386" y="293"/>
			<point x="423" y="293" type="curve" smooth="yes"/>
			<point x="471" y="293"/>
			<point x="504" y="325"/>
			<point x="504" y="370" type="curve" smooth="yes"/>
			<point x="504" y="412"/>
			<point x="469" y="443"/>
			<point x="423" y="443" type="curve" smooth="yes"/>
			<point x="385" y="443"/>
			<point x="356" y="427"/>
			<point x="311" y="382" type="curve"/>
			<point x="214" y="397"/>
			<point x="139" y="437"/>
			<point x="139" y="474" type="curve" smooth="yes"/>
			<point x="139" y="544"/>
			<point x="262" y="585"/>
			<point x="585" y="623" type="curve"/>
			<point x="585" y="637" type="line"/>
			<point x="497" y="765" type="line"/>
			<point x="404" y="744"/>
			<point x="284" y="691"/>
			<point x="221" y="643" type="curve"/>
			<point x="178" y="641"/>
			<point x="155" y="644"/>
			<point x="138" y="656" type="curve"/>
			<point x="176" y="700"/>
			<point x="185" y="717"/>
			<point x="185" y="737" type="curve" smooth="yes"/>
			<point x="185" y="776"/>
			<point x="150" y="801"/>
			<point x="96" y="801" type="curve" smooth="yes"/>
			<point x="32" y="801"/>
			<point x="-3" y="773"/>
			<point x="-3" y="720" type="curve" smooth="yes"/>
			<point x="-3" y="648"/>
			<point x="60" y="618"/>
			<point x="198" y="623" type="curve"/>
			<point x="144" y="584"/>
			<point x="108" y="530"/>
			<point x="108" y="487" type="curve" smooth="yes"/>
			<point x="108" y="423"/>
			<point x="151" y="391"/>
			<point x="270" y="366" type="curve"/>
			<point x="270" y="364" type="line"/>
			<point x="137" y="326"/>
			<point x="75" y="268"/>
			<point x="75" y="182" type="curve" smooth="yes"/>
			<point x="75" y="97"/>
			<point x="143" y="43"/>
			<point x="307" y="-3" type="curve" smooth="yes"/>
			<point x="416" y="-33"/>
			<point x="443" y="-54"/>
			<point x="443" y="-111" type="curve" smooth="yes"/>
			<point x="443" y="-141"/>
			<point x="422" y="-183"/>
			<point x="389" y="-219" type="curve"/>
		</contour>
	</outline>
</glyph>
<glyph name="omicron" format="2">
	<unicode hex="03BF"/>
	<advance width="661"/>
	<outline>
		<contour>
			<point x="322" y="-14" type="curve" smooth="yes"/>
			<point x="514" y="-14"/>
			<point x="634" y="96"/>
			<point x="634" y="273" type="curve" smooth="yes"/>
			<point x="634" y="441"/>
			<point x="528" y="537"/>
			<point x="342" y="537" type="curve" smooth="yes"/>
			<point x="144" y="537"/>
			<point x="27" y="429"/>
			<point x="27" y="247" type="curve" smooth="yes"/>
			<point x="27" y="79"/>
			<point x="133" y="-14"/>
		</contour>
		<contour>
			<point x="342" y="3" type="curve" smooth="yes"/>
			<point x="287" y="3"/>
			<point x="262" y="91"/>
			<point x="262" y="285" type="curve" smooth="yes"/>
			<point x="262" y="456"/>
			<point x="280" y="520"/>
			<point x="328" y="520" type="curve" smooth="yes"/>
			<point x="374" y="520"/>
			<point x="399" y="430"/>
			<point x="399" y="262" type="curve" smooth="yes"/>
			<point x="399" y="72"/>
			<point x="384" y="3"/>
		</contour>
	</outline>
	<anchor name="top" x="313" y="550"/>
</glyph>
<glyph name="pi" format="2">
	<unicode hex="03C0"/>
	<advance width="747"/>
	<outline>
		<contour>
			<point x="536" y="-14" type="curve" smooth="yes"/>
			<point x="626" y="-14"/>
			<point x="667" y="15"/>
			<point x="718" y="117" type="curve"/>
			<point x="712" y="125" type="line"/>
			<point x="699" y="112"/>
			<point x="668" y="100"/>
			<point x="646" y="100" type="curve" smooth="yes"/>
			<point x="603" y="100"/>
			<point x="583" y="128"/>
			<point x="583" y="190" type="curve" smooth="yes"/>
			<point x="583" y="299"/>
			<point x="583" y="325"/>
			<point x="585" y="374" type="curve"/>
			<point x="719" y="374" type="line"/>
			<point x="728" y="382" type="line"/>
			<point x="728" y="537" type="line"/>
			<point x="267" y="530" type="line" smooth="yes"/>
			<point x="202" y="529"/>
			<point x="36" y="446"/>
			<point x="-10" y="393" type="curve"/>
			<point x="-12" y="374" type="line"/>
			<point x="192" y="374" type="line"/>
			<point x="10" y="8" type="line"/>
			<point x="20" y="0" type="line"/>
			<point x="258" y="0" type="line"/>
			<point x="269" y="374" type="line"/>
			<point x="452" y="374" type="line"/>
			<point x="413" y="245"/>
			<point x="397" y="174"/>
			<point x="397" y="125" type="curve" smooth="yes"/>
			<point x="397" y="41"/>
			<point x="452" y="-14"/>
		</contour>
	</outline>
</glyph>
<glyph name="rho" format="2">
	<unicode hex="03C1"/>
	<advance width="670"/>
	<outline>
		<contour>
			<point x="61" y="-224" type="line"/>
			<point x="283" y="-217" type="line"/>
			<point x="272" y="-131"/>
			<point x="267" y="-60"/>
			<point x="267" y="7" type="curve"/>
			<point x="268" y="7" type="line"/>
			<point x="282" y="2"/>
			<point x="316" y="-14"/>
			<point x="367" y="-14" type="curve" smooth="yes"/>
			<point x="541" y="-14"/>
			<point x="643" y="95"/>
			<point x="643" y="282" type="curve" smooth="yes"/>
			<point x="643" y="441"/>
			<point x="526" y="537"/>
			<point x="334" y="537" type="curve" smooth="yes"/>
			<point x="156" y="537"/>
			<point x="39" y="420"/>
			<point x="39" y="242" type="curve" smooth="yes"/>
			<point x="39" y="29" type="line" smooth="yes"/>
			<point x="39" y="-43"/>
			<point x="42" y="-113"/>
			<point x="51" y="-216" type="curve"/>
		</contour>
		<contour>
			<point x="334" y="4" type="curve" smooth="yes"/>
			<point x="310" y="4"/>
			<point x="272" y="22"/>
			<point x="264" y="37" type="curve"/>
			<point x="264" y="342" type="line" smooth="yes"/>
			<point x="264" y="474"/>
			<point x="281" y="520"/>
			<point x="330" y="520" type="curve" smooth="yes"/>
			<point x="387" y="520"/>
			<point x="408" y="454"/>
			<point x="408" y="277" type="curve" smooth="yes"/>
			<point x="408" y="62"/>
			<point x="392" y="4"/>
		</contour>
	</outline>
	<anchor name="top" x="323" y="550"/>
</glyph>
<glyph name="upsilon" format="2">
	<unicode hex="03C5"/>
	<advance width="665"/>
	<outline>
		<contour>
			<point x="333" y="-14" type="curve" smooth="yes"/>
			<point x="537" y="-14"/>
			<point x="638" y="91"/>
			<point x="638" y="303" type="curve" smooth="yes"/>
			<point x="638" y="386"/>
			<point x="610" y="475"/>
			<point x="569" y="523" type="curve"/>
			<point x="560" y="531" type="line"/>
			<point x="351" y="501" type="line"/>
			<point x="386" y="441"/>
			<point x="411" y="320"/>
			<point x="411" y="204" type="curve" smooth="yes"/>
			<point x="411" y="56"/>
			<point x="393" y="4"/>
			<point x="341" y="4" type="curve" smooth="yes"/>
			<point x="288" y="4"/>
			<point x="277" y="37"/>
			<point x="277" y="193" type="curve" smooth="yes"/>
			<point x="277" y="279"/>
			<point x="284" y="351"/>
			<point x="284" y="399" type="curve" smooth="yes"/>
			<point x="284" y="484"/>
			<point x="234" y="533"/>
			<point x="147" y="533" type="curve" smooth="yes"/>
			<point x="90" y="533"/>
			<point x="35" y="508"/>
			<point x="0" y="465" type="curve"/>
			<point x="5" y="457" type="line"/>
			<point x="10" y="461"/>
			<point x="25" y="465"/>
			<point x="32" y="465" type="curve" smooth="yes"/>
			<point x="56" y="465"/>
			<point x="63" y="453"/>
			<point x="63" y="414" type="curve" smooth="yes"/>
			<point x="63" y="353"/>
			<point x="58" y="283"/>
			<point x="58" y="241" type="curve" smooth="yes"/>
			<point x="58" y="64"/>
			<point x="142" y="-14"/>
		</contour>
	</outline>
	<anchor name="top" x="320" y="550"/>
</glyph>
<glyph name="phi" format="2">
	<unicode hex="03C6"/>
	<advance width="855"/>
	<outline>
		<contour>
			<point x="345" y="-227" type="line"/>
			<point x="501" y="-227" type="line"/>
			<point x="508" y="-8" type="line"/>
			<point x="696" y="11"/>
			<point x="828" y="127"/>
			<point x="828" y="273" type="curve" smooth="yes"/>
			<point x="828" y="415"/>
			<point x="713" y="513"/>
			<point x="522" y="534" type="curve"/>
			<point x="530" y="717" type="line"/>
			<point x="521" y="725" type="line"/>
			<point x="338" y="719" type="line"/>
			<point x="341" y="534" type="line"/>
			<point x="150" y="511"/>
			<point x="27" y="402"/>
			<point x="27" y="255" type="curve" smooth="yes"/>
			<point x="27" y="108"/>
			<point x="141" y="11"/>
			<point x="340" y="-11" type="curve"/>
		</contour>
		<contour>
			<point x="340" y="3" type="line"/>
			<point x="282" y="33"/>
			<point x="258" y="114"/>
			<point x="258" y="279" type="curve" smooth="yes"/>
			<point x="258" y="430"/>
			<point x="287" y="516"/>
			<point x="341" y="523" type="curve"/>
		</contour>
		<contour>
			<point x="508" y="0" type="curve"/>
			<point x="521" y="523" type="line"/>
			<point x="577" y="480"/>
			<point x="597" y="409"/>
			<point x="597" y="254" type="curve" smooth="yes"/>
			<point x="597" y="87"/>
			<point x="573" y="19"/>
		</contour>
	</outline>
</glyph>
<glyph name="chi" format="2">
	<unicode hex="03C7"/>
	<advance width="576"/>
	<outline>
		<contour>
			<point x="481" y="-230" type="curve" smooth="yes"/>
			<point x="547" y="-230"/>
			<point x="599" y="-208"/>
			<point x="629" y="-168" type="curve"/>
			<point x="625" y="-160" type="line"/>
			<point x="616" y="-165"/>
			<point x="604" y="-168"/>
			<point x="593" y="-168" type="curve" smooth="yes"/>
			<point x="572" y="-168"/>
			<point x="559" y="-157"/>
			<point x="544" y="-125" type="curve" smooth="yes"/>
			<point x="388" y="205" type="line"/>
			<point x="631" y="523" type="line"/>
			<point x="623" y="531" type="line"/>
			<point x="415" y="523" type="line"/>
			<point x="374" y="236" type="line"/>
			<point x="372" y="236" type="line"/>
			<point x="322" y="347" type="line" smooth="yes"/>
			<point x="255" y="495"/>
			<point x="218" y="529"/>
			<point x="122" y="529" type="curve" smooth="yes"/>
			<point x="52" y="529"/>
			<point x="0" y="508"/>
			<point x="-30" y="467" type="curve"/>
			<point x="-25" y="459" type="line"/>
			<point x="-17" y="464"/>
			<point x="-5" y="467"/>
			<point x="6" y="467" type="curve" smooth="yes"/>
			<point x="27" y="467"/>
			<point x="39" y="457"/>
			<point x="56" y="424" type="curve" smooth="yes"/>
			<point x="230" y="79" type="line"/>
			<point x="-5" y="-219" type="line"/>
			<point x="3" y="-227" type="line"/>
			<point x="220" y="-216" type="line"/>
			<point x="245" y="53" type="line"/>
			<point x="247" y="53" type="line"/>
			<point x="290" y="-48" type="line" smooth="yes"/>
			<point x="349" y="-187"/>
			<point x="394" y="-230"/>
		</contour>
	</outline>
</glyph>
<glyph name="kaiSymbol" format="2">
	<unicode hex="03D7"/>
	<advance width="701"/>
	<outline>
		<contour>
			<point x="406" y="-232" type="curve" smooth="yes"/>
			<point x="566" y="-232"/>
			<point x="657" y="-163"/>
			<point x="657" y="-40" type="curve" smooth="yes"/>
			<point x="657" y="41"/>
			<point x="634" y="84"/>
			<point x="534" y="188" type="curve" smooth="yes"/>
			<point x="464" y="263"/>
			<point x="437" y="308"/>
			<point x="437" y="349" type="curve" smooth="yes"/>
			<point x="437" y="403"/>
			<point x="468" y="455"/>
			<point x="506" y="465" type="curve"/>
			<point x="503" y="403"/>
			<point x="541" y="360"/>
			<point x="597" y="360" type="curve" smooth="yes"/>
			<point x="649" y="360"/>
			<point x="682" y="395"/>
			<point x="682" y="449" type="curve" smooth="yes"/>
			<point x="682" y="503"/>
			<point x="645" y="537"/>
			<point x="585" y="537" type="curve" smooth="yes"/>
			<point x="499" y="537"/>
			<point x="399" y="445"/>
			<point x="266" y="241" type="curve"/>
			<point x="271" y="335"/>
			<point x="277" y="429"/>
			<point x="282" y="523" type="curve"/>
			<point x="275" y="531" type="line"/>
			<point x="54" y="523" type="line"/>
			<point x="70" y="0" type="line"/>
			<point x="255" y="0" type="line"/>
			<point x="263" y="181" type="line"/>
			<point x="279" y="206"/>
			<point x="300" y="234"/>
			<point x="317" y="252" type="curve"/>
			<point x="312" y="221"/>
			<point x="307" y="189"/>
			<point x="307" y="181" type="curve" smooth="yes"/>
			<point x="307" y="133"/>
			<point x="326" y="96"/>
			<point x="371" y="55" type="curve" smooth="yes"/>
			<point x="443" y="-9"/>
			<point x="455" y="-26"/>
			<point x="455" y="-66" type="curve" smooth="yes"/>
			<point x="455" y="-133"/>
			<point x="408" y="-151"/>
			<point x="229" y="-151" type="curve" smooth="yes"/>
			<point x="220" y="-151" type="line"/>
			<point x="220" y="-172" type="line"/>
			<point x="311" y="-221"/>
			<point x="345" y="-232"/>
		</contour>
	</outline>
</glyph>
<glyph name="digamma" format="2">
	<unicode hex="03DD"/>
	<advance width="440"/>
	<outline>
		<contour>
			<point x="95" y="-8" type="line"/>
			<point x="303" y="0" type="line"/>
			<point x="303" y="507" type="line"/>
			<point x="444" y="507" type="line"/>
			<point x="444" y="523" type="line"/>
			<point x="303" y="523" type="line"/>
			<point x="303" y="663" type="line" smooth="yes"/>
			<point x="303" y="739"/>
			<point x="319" y="766"/>
			<point x="362" y="766" type="curve" smooth="yes"/>
			<point x="383" y="766"/>
			<point x="414" y="758"/>
			<point x="432" y="747" type="curve"/>
			<point x="382" y="679"/>
			<point x="368" y="653"/>
			<point x="368" y="628" type="curve" smooth="yes"/>
			<point x="368" y="593"/>
			<point x="400" y="570"/>
			<point x="449" y="570" type="curve" smooth="yes"/>
			<point x="505" y="570"/>
			<point x="540" y="601"/>
			<point x="540" y="652" type="curve" smooth="yes"/>
			<point x="540" y="731"/>
			<point x="463" y="782"/>
			<point x="344" y="782" type="curve" smooth="yes"/>
			<point x="183" y="782"/>
			<point x="80" y="683"/>
			<point x="80" y="530" type="curve" smooth="yes"/>
			<point x="80" y="523" type="line"/>
			<point x="26" y="517" type="line"/>
			<point x="26" y="507" type="line"/>
			<point x="80" y="507" type="line"/>
			<point x="80" y="2" type="line"/>
		</contour>
	</outline>
</glyph>
<glyph name="E-cy" format="2">
	<unicode hex="0404"/>
	<advance width="689"/>
	<outline>
		<contour>
			<point x="401" y="-14" type="curve" smooth="yes"/>
			<point x="565" y="-14"/>
			<point x="634" y="90"/>
			<point x="668" y="154" type="curve"/>
			<point x="658" y="160" type="line"/>
			<point x="603" y="70"/>
			<point x="528" y="30"/>
			<point x="454" y="30" type="curve" smooth="yes"/>
			<point x="354" y="30"/>
			<point x="283" y="118"/>
			<point x="279" y="361" type="curve"/>
			<point x="572" y="361" type="line"/>
			<point x="572" y="378" type="line"/>
			<point x="279" y="378" type="line"/>
			<point x="280" y="590"/>
			<point x="310" y="727"/>
			<point x="408" y="727" type="curve" smooth="yes"/>
			<point x="474" y="727"/>
			<point x="564" y="665"/>
			<point x="634" y="488" type="curve"/>
			<point x="652" y="494" type="line"/>
			<point x="609" y="744" type="line"/>
			<point x="594" y="744" type="line"/>
			<point x="578" y="674" type="line"/>
			<point x="538" y="709"/>
			<point x="481" y="744"/>
			<point x="393" y="744" type="curve" smooth="yes"/>
			<point x="195" y="744"/>
			<point x="32" y="597"/>
			<point x="32" y="372" type="curve" smooth="yes"/>
			<point x="32" y="118"/>
			<point x="162" y="-14"/>
		</contour>
	</outline>
	<anchor name="top" x="408" y="730"/>
</glyph>
<glyph name="Tshe-cy" format="2">
	<unicode hex="040B"/>
	<advance width="1017"/>
	<outline>
		<contour>
			<point x="190" y="0" type="line"/>
			<point x="549" y="0" type="line"/>
			<point x="549" y="12" type="line"/>
			<point x="522" y="13" type="line" smooth="yes"/>
			<point x="493" y="14"/>
			<point x="489" y="28"/>
			<point x="489" y="57" type="curve" smooth="yes"/>
			<point x="489" y="372" type="line"/>
			<point x="523" y="398"/>
			<point x="569" y="418"/>
			<point x="609" y="418" type="curve" smooth="yes"/>
			<point x="666" y="418"/>
			<point x="693" y="384"/>
			<point x="693" y="326" type="curve" smooth="yes"/>
			<point x="693" y="63" type="line" smooth="yes"/>
			<point x="693" y="26"/>
			<point x="687" y="15"/>
			<point x="662" y="14" type="curve" smooth="yes"/>
			<point x="628" y="12" type="line"/>
			<point x="628" y="0" type="line"/>
			<point x="987" y="0" type="line"/>
			<point x="987" y="12" type="line"/>
			<point x="960" y="13" type="line" smooth="yes"/>
			<point x="931" y="14"/>
			<point x="927" y="28"/>
			<point x="927" y="57" type="curve" smooth="yes"/>
			<point x="927" y="276" type="line" smooth="yes"/>
			<point x="927" y="399"/>
			<point x="833" y="466"/>
			<point x="702" y="466" type="curve" smooth="yes"/>
			<point x="612" y="466"/>
			<point x="546" y="436"/>
			<point x="489" y="392" type="curve"/>
			<point x="489" y="714" type="line"/>
			<point x="544" y="714" type="line" smooth="yes"/>
			<point x="646" y="714"/>
			<point x="700" y="682"/>
			<point x="741" y="552" type="curve"/>
			<point x="754" y="557" type="line"/>
			<point x="735" y="730" type="line"/>
			<point x="46" y="730" type="line"/>
			<point x="25" y="511" type="line"/>
			<point x="38" y="506" type="line"/>
			<point x="90" y="655"/>
			<point x="136" y="714"/>
			<point x="223" y="714" type="curve" smooth="yes"/>
			<point x="255" y="714" type="line"/>
			<point x="255" y="63" type="line" smooth="yes"/>
			<point x="255" y="26"/>
			<point x="249" y="15"/>
			<point x="224" y="14" type="curve" smooth="yes"/>
			<point x="190" y="12" type="line"/>
		</contour>
	</outline>
</glyph>
<glyph name="Dzhe-cy" format="2">
	<unicode hex="040F"/>
	<advance width="856"/>
	<outline>
		<contour>
			<point x="426" y="-166" type="line"/>
			<point x="439" y="-166" type="line"/>
			<point x="479" y="0" type="line"/>
			<point x="819" y="0" type="line"/>
			<point x="819" y="12" type="line"/>
			<point x="787" y="14" type="line" smooth="yes"/>
			<point x="757" y="16"/>
			<point x="754" y="29"/>
			<point x="754" y="66" type="curve" smooth="yes"/>
			<point x="754" y="667" type="line" smooth="yes"/>
			<point x="754" y="704"/>
			<point x="760" y="716"/>
			<point x="785" y="717" type="curve" smooth="yes"/>
			<point x="819" y="718" type="line"/>
			<point x="819" y="730" type="line"/>
			<point x="460" y="730" type="line"/>
			<point x="460" y="718" type="line"/>
			<point x="487" y="717" type="line" smooth="yes"/>
			<point x="516" y="716"/>
			<point x="520" y="702"/>
			<point x="520" y="673" type="curve" smooth="yes"/>
			<point x="520" y="17" type="line"/>
			<point x="336" y="17" type="line"/>
			<point x="336" y="667" type="line" smooth="yes"/>
			<point x="336" y="703"/>
			<point x="344" y="716"/>
			<point x="368" y="717" type="curve" smooth="yes"/>
			<point x="396" y="718" type="line"/>
			<point x="396" y="730" type="line"/>
			<point x="37" y="730" type="line"/>
			<point x="37" y="718" type="line"/>
			<point x="66" y="717" type="line" smooth="yes"/>
			<point x="96" y="716"/>
			<point x="102" y="707"/>
			<point x="102" y="673" type="curve" smooth="yes"/>
			<point x="102" y="70" type="line" smooth="yes"/>
			<point x="102" y="26"/>
			<point x="96" y="15"/>
			<point x="71" y="14" type="curve" smooth="yes"/>
			<point x="37" y="12" type="line"/>
			<point x="37" y="0" type="line"/>
			<point x="377" y="0" type="line"/>
		</contour>
	</outline>
</glyph>
<glyph name="Che-cy" format="2">
	<unicode hex="0427"/>
	<advance width="844"/>
	<outline>
		<contour>
			<point x="448" y="0" type="line"/>
			<point x="807" y="0" type="line"/>
			<point x="807" y="12" type="line"/>
			<point x="775" y="14" type="line" smooth="yes"/>
			<point x="745" y="16"/>
			<point x="742" y="29"/>
			<point x="742" y="66" type="curve" smooth="yes"/>
			<point x="742" y="667" type="line" smooth="yes"/>
			<point x="742" y="704"/>
			<point x="748" y="715"/>
			<point x="773" y="716" type="curve" smooth="yes"/>
			<point x="807" y="718" type="line"/>
			<point x="807" y="730" type="line"/>
			<point x="448" y="730" type="line"/>
			<point x="448" y="718" type="line"/>
			<point x="475" y="717" type="line" smooth="yes"/>
			<point x="504" y="716"/>
			<point x="508" y="702"/>
			<point x="508" y="673" type="curve" smooth="yes"/>
			<point x="508" y="358" type="line"/>
			<point x="474" y="332"/>
			<point x="437" y="312"/>
			<point x="398" y="312" type="curve" smooth="yes"/>
			<point x="351" y="312"/>
			<point x="319" y="342"/>
			<point x="319" y="396" type="curve" smooth="yes"/>
			<point x="319" y="667" type="line" smooth="yes"/>
			<point x="319" y="704"/>
			<point x="325" y="715"/>
			<point x="350" y="716" type="curve" smooth="yes"/>
			<point x="384" y="718" type="line"/>
			<point x="384" y="730" type="line"/>
			<point x="25" y="730" type="line"/>
			<point x="25" y="718" type="line"/>
			<point x="52" y="717" type="line" smooth="yes"/>
			<point x="81" y="716"/>
			<point x="85" y="702"/>
			<point x="85" y="673" type="curve" smooth="yes"/>
			<point x="85" y="454" type="line" smooth="yes"/>
			<point x="85" y="331"/>
			<point x="174" y="264"/>
			<point x="305" y="264" type="curve" smooth="yes"/>
			<point x="395" y="264"/>
			<point x="451" y="294"/>
			<point x="508" y="338" type="curve"/>
			<point x="508" y="70" type="line" smooth="yes"/>
			<point x="508" y="26"/>
			<point x="502" y="16"/>
			<point x="477" y="14" type="curve" smooth="yes"/>
			<point x="448" y="12" type="line"/>
		</contour>
	</outline>
</glyph>
<glyph name="Hardsign-cy" format="2">
	<unicode hex="042A"/>
	<advance width="862"/>
	<outline>
		<contour>
			<point x="190" y="0" type="line"/>
			<point x="545" y="0" type="line" smooth="yes"/>
			<point x="721" y="0"/>
			<point x="837" y="85"/>
			<point x="837" y="223" type="curve" smooth="yes"/>
			<point x="837" y="356"/>
			<point x="727" y="430"/>
			<point x="549" y="430" type="curve" smooth="yes"/>
			<point x="529" y="430"/>
			<point x="506" y="429"/>
			<point x="489" y="427" type="curve"/>
			<point x="489" y="667" type="line" smooth="yes"/>
			<point x="489" y="703"/>
			<point x="497" y="716"/>
			<point x="521" y="717" type="curve" smooth="yes"/>
			<point x="549" y="718" type="line"/>
			<point x="549" y="730" type="line"/>
			<point x="46" y="730" type="line"/>
			<point x="25" y="510" type="line"/>
			<point x="38" y="506" type="line"/>
			<point x="90" y="655"/>
			<point x="136" y="714"/>
			<point x="223" y="714" type="curve" smooth="yes"/>
			<point x="255" y="714" type="line"/>
			<point x="255" y="70" type="line" smooth="yes"/>
			<point x="255" y="26"/>
			<point x="249" y="15"/>
			<point x="224" y="14" type="curve" smooth="yes"/>
			<point x="190" y="12" type="line"/>
		</contour>
		<contour>
			<point x="489" y="22" type="curve"/>
			<point x="489" y="409" type="line"/>
			<point x="498" y="411"/>
			<point x="508" y="411"/>
			<point x="518" y="411" type="curve" smooth="yes"/>
			<point x="562" y="411"/>
			<point x="591" y="362"/>
			<point x="591" y="226" type="curve" smooth="yes"/>
			<point x="591" y="77"/>
			<point x="572" y="18"/>
			<point x="524" y="18" type="curve" smooth="yes"/>
			<point x="511" y="18"/>
			<point x="501" y="19"/>
		</contour>
	</outline>
	<anchor name="top" x="307" y="730"/>
</glyph>
<glyph name="Softsign-cy" format="2">
	<unicode hex="042C"/>
	<advance width="709"/>
	<outline>
		<contour>
			<point x="37" y="0" type="line"/>
			<point x="392" y="0" type="line" smooth="yes"/>
			<point x="568" y="0"/>
			<point x="684" y="85"/>
			<point x="684" y="223" type="curve" smooth="yes"/>
			<point x="684" y="356"/>
			<point x="574" y="430"/>
			<point x="396" y="430" type="curve" smooth="yes"/>
			<point x="376" y="430"/>
			<point x="353" y="429"/>
			<point x="336" y="427" type="curve"/>
			<point x="336" y="667" type="line" smooth="yes"/>
			<point x="336" y="703"/>
			<point x="344" y="716"/>
			<point x="368" y="717" type="curve" smooth="yes"/>
			<point x="396" y="718" type="line"/>
			<point x="396" y="730" type="line"/>
			<point x="37" y="730" type="line"/>
			<point x="37" y="718" type="line"/>
			<point x="66" y="717" type="line" smooth="yes"/>
			<point x="96" y="716"/>
			<point x="102" y="707"/>
			<point x="102" y="673" type="curve" smooth="yes"/>
			<point x="102" y="70" type="line" smooth="yes"/>
			<point x="102" y="26"/>
			<point x="96" y="15"/>
			<point x="71" y="14" type="curve" smooth="yes"/>
			<point x="37" y="12" type="line"/>
		</contour>
		<contour>
			<point x="336" y="22" type="curve"/>
			<point x="336" y="409" type="line"/>
			<point x="345" y="411"/>
			<point x="355" y="411"/>
			<point x="365" y="411" type="curve" smooth="yes"/>
			<point x="409" y="411"/>
			<point x="438" y="362"/>
			<point x="438" y="226" type="curve" smooth="yes"/>
			<point x="438" y="77"/>
			<point x="419" y="18"/>
			<point x="371" y="18" type="curve" smooth="yes"/>
			<point x="358" y="18"/>
			<point x="348" y="19"/>
		</contour>
	</outline>
</glyph>
<glyph name="Ereversed-cy" format="2">
	<unicode hex="042D"/>
	<advance width="714"/>
	<outline>
		<contour>
			<point x="313" y="-14" type="curve" smooth="yes"/>
			<point x="542" y="-14"/>
			<point x="682" y="145"/>
			<point x="682" y="391" type="curve" smooth="yes"/>
			<point x="682" y="627"/>
			<point x="528" y="744"/>
			<point x="331" y="744" type="curve" smooth="yes"/>
			<point x="216" y="744"/>
			<point x="163" y="709"/>
			<point x="123" y="674" type="curve"/>
			<point x="78" y="740" type="line"/>
			<point x="63" y="740" type="line"/>
			<point x="89" y="488" type="line"/>
			<point x="107" y="488" type="line"/>
			<point x="107" y="665"/>
			<point x="193" y="717"/>
			<point x="264" y="717" type="curve" smooth="yes"/>
			<point x="377" y="717"/>
			<point x="434" y="602"/>
			<point x="434" y="370" type="curve"/>
			<point x="124" y="370" type="line"/>
			<point x="124" y="353" type="line"/>
			<point x="434" y="353" type="line"/>
			<point x="426" y="134"/>
			<point x="355" y="28"/>
			<point x="242" y="28" type="curve" smooth="yes"/>
			<point x="154" y="28"/>
			<point x="72" y="84"/>
			<point x="62" y="197" type="curve"/>
			<point x="45" y="194" type="line"/>
			<point x="55" y="71"/>
			<point x="136" y="-14"/>
		</contour>
	</outline>
	<anchor name="top" x="346" y="735"/>
</glyph>
<glyph name="Iu-cy" format="2">
	<unicode hex="042E"/>
	<advance width="1173"/>
	<outline>
		<contour>
			<point x="778" y="-14" type="curve" smooth="yes"/>
			<point x="1019" y="-14"/>
			<point x="1141" y="150"/>
			<point x="1141" y="383" type="curve" smooth="yes"/>
			<point x="1141" y="620"/>
			<point x="999" y="744"/>
			<point x="795" y="744" type="curve" smooth="yes"/>
			<point x="575" y="744"/>
			<point x="434" y="623"/>
			<point x="424" y="382" type="curve"/>
			<point x="336" y="382" type="line"/>
			<point x="336" y="667" type="line" smooth="yes"/>
			<point x="336" y="703"/>
			<point x="344" y="716"/>
			<point x="368" y="717" type="curve" smooth="yes"/>
			<point x="396" y="718" type="line"/>
			<point x="396" y="730" type="line"/>
			<point x="37" y="730" type="line"/>
			<point x="37" y="718" type="line"/>
			<point x="66" y="717" type="line" smooth="yes"/>
			<point x="96" y="716"/>
			<point x="102" y="707"/>
			<point x="102" y="673" type="curve" smooth="yes"/>
			<point x="102" y="70" type="line" smooth="yes"/>
			<point x="102" y="26"/>
			<point x="96" y="15"/>
			<point x="71" y="14" type="curve" smooth="yes"/>
			<point x="37" y="12" type="line"/>
			<point x="37" y="0" type="line"/>
			<point x="396" y="0" type="line"/>
			<point x="396" y="12" type="line"/>
			<point x="370" y="14" type="line" smooth="yes"/>
			<point x="344" y="16"/>
			<point x="336" y="24"/>
			<point x="336" y="66" type="curve" smooth="yes"/>
			<point x="336" y="365" type="line"/>
			<point x="423" y="365" type="line"/>
			<point x="432" y="123"/>
			<point x="553" y="-14"/>
		</contour>
		<contour>
			<point x="796" y="3" type="curve" smooth="yes"/>
			<point x="723" y="3"/>
			<point x="668" y="79"/>
			<point x="668" y="377" type="curve" smooth="yes"/>
			<point x="668" y="658"/>
			<point x="708" y="727"/>
			<point x="776" y="727" type="curve" smooth="yes"/>
			<point x="853" y="727"/>
			<point x="896" y="650"/>
			<point x="896" y="355" type="curve" smooth="yes"/>
			<point x="896" y="68"/>
			<point x="866" y="3"/>
		</contour>
	</outline>
	<anchor name="top" x="770" y="730"/>
</glyph>
<glyph name="Ia-cy" format="2">
	<unicode hex="042F"/>
	<advance width="823"/>
	<outline>
		<contour>
			<point x="187" y="-14" type="curve" smooth="yes"/>
			<point x="275" y="-14"/>
			<point x="345" y="11"/>
			<point x="388" y="168" type="curve" smooth="yes"/>
			<point x="417" y="272"/>
			<point x="433" y="329"/>
			<point x="451" y="333" type="curve" smooth="yes"/>
			<point x="459" y="335"/>
			<point x="465" y="335"/>
			<point x="487" y="335" type="curve"/>
			<point x="487" y="66" type="line" smooth="yes"/>
			<point x="487" y="29"/>
			<point x="484" y="16"/>
			<point x="449" y="14" type="curve" smooth="yes"/>
			<point x="410" y="12" type="line"/>
			<point x="410" y="0" type="line"/>
			<point x="786" y="0" type="line"/>
			<point x="786" y="12" type="line"/>
			<point x="752" y="14" type="line" smooth="yes"/>
			<point x="727" y="15"/>
			<point x="721" y="26"/>
			<point x="721" y="70" type="curve" smooth="yes"/>
			<point x="721" y="673" type="line" smooth="yes"/>
			<point x="721" y="707"/>
			<point x="727" y="716"/>
			<point x="757" y="717" type="curve" smooth="yes"/>
			<point x="786" y="718" type="line"/>
			<point x="786" y="730" type="line"/>
			<point x="450" y="730" type="line" smooth="yes"/>
			<point x="272" y="730"/>
			<point x="137" y="678"/>
			<point x="137" y="539" type="curve" smooth="yes"/>
			<point x="137" y="414"/>
			<point x="248" y="359"/>
			<point x="389" y="345" type="curve"/>
			<point x="389" y="342" type="line"/>
			<point x="269" y="326"/>
			<point x="180" y="273"/>
			<point x="143" y="167" type="curve" smooth="yes"/>
			<point x="110" y="72"/>
			<point x="92" y="66"/>
			<point x="61" y="66" type="curve" smooth="yes"/>
			<point x="42" y="66"/>
			<point x="13" y="76"/>
			<point x="-3" y="87" type="curve"/>
			<point x="-10" y="78" type="line"/>
			<point x="35" y="18"/>
			<point x="93" y="-14"/>
		</contour>
		<contour>
			<point x="459" y="352" type="curve" smooth="yes"/>
			<point x="410" y="352"/>
			<point x="380" y="407"/>
			<point x="380" y="528" type="curve" smooth="yes"/>
			<point x="380" y="629"/>
			<point x="399" y="714"/>
			<point x="461" y="714" type="curve" smooth="yes"/>
			<point x="487" y="714" type="line"/>
			<point x="487" y="353" type="line"/>
			<point x="478" y="352"/>
			<point x="474" y="352"/>
		</contour>
	</outline>
	<anchor name="top" x="489" y="730"/>
</glyph>
<glyph name="be-cy" format="2">
	<unicode hex="0431"/>
	<advance width="649"/>
	<outline>
		<contour>
			<point x="337" y="-14" type="curve" smooth="yes"/>
			<point x="476" y="-14"/>
			<point x="622" y="101"/>
			<point x="622" y="260" type="curve" smooth="yes"/>
			<point x="622" y="394"/>
			<point x="517" y="500"/>
			<point x="350" y="500" type="curve" smooth="yes"/>
			<point x="185" y="500"/>
			<point x="92" y="431"/>
			<point x="51" y="314" type="curve"/>
			<point x="51" y="312" type="line"/>
			<point x="51" y="488"/>
			<point x="187" y="521"/>
			<point x="246" y="530" type="curve" smooth="yes"/>
			<point x="328" y="542"/>
			<point x="428" y="547"/>
			<point x="457" y="555" type="curve" smooth="yes"/>
			<point x="565" y="586"/>
			<point x="593" y="658"/>
			<point x="593" y="776" type="curve"/>
			<point x="577" y="777" type="line"/>
			<point x="576" y="759"/>
			<point x="573" y="744"/>
			<point x="566" y="734" type="curve" smooth="yes"/>
			<point x="558" y="722"/>
			<point x="542" y="717"/>
			<point x="501" y="717" type="curve" smooth="yes"/>
			<point x="459" y="717"/>
			<point x="416" y="720"/>
			<point x="369" y="720" type="curve" smooth="yes"/>
			<point x="159" y="720"/>
			<point x="30" y="574"/>
			<point x="30" y="371" type="curve" smooth="yes"/>
			<point x="30" y="300" type="line" smooth="yes"/>
			<point x="30" y="125"/>
			<point x="119" y="-14"/>
		</contour>
		<contour>
			<point x="337" y="3" type="curve" smooth="yes"/>
			<point x="299" y="3"/>
			<point x="266" y="96"/>
			<point x="266" y="253" type="curve" smooth="yes"/>
			<point x="266" y="409"/>
			<point x="279" y="481"/>
			<point x="318" y="481" type="curve" smooth="yes"/>
			<point x="357" y="481"/>
			<point x="386" y="399"/>
			<point x="386" y="241" type="curve" smooth="yes"/>
			<point x="386" y="83"/>
			<point x="375" y="3"/>
		</contour>
	</outline>
</glyph>
<glyph name="ge-cy" format="2">
	<unicode hex="0433"/>
	<advance width="554"/>
	<outline>
		<contour>
			<point x="25" y="0" type="line"/>
			<point x="383" y="0" type="line"/>
			<point x="383" y="12" type="line"/>
			<point x="327" y="19" type="line" smooth="yes"/>
			<point x="309" y="21"/>
			<point x="302" y="33"/>
			<point x="302" y="58" type="curve" smooth="yes"/>
			<point x="302" y="507" type="line"/>
			<point x="329" y="507" type="line" smooth="yes"/>
			<point x="411" y="507"/>
			<point x="462" y="485"/>
			<point x="498" y="393" type="curve" smooth="yes"/>
			<point x="524" y="327" type="line"/>
			<point x="539" y="331" type="line"/>
			<point x="513" y="523" type="line"/>
			<point x="25" y="523" type="line"/>
			<point x="25" y="511" type="line"/>
			<point x="56" y="509" type="line" smooth="yes"/>
			<point x="73" y="508"/>
			<point x="79" y="501"/>
			<point x="79" y="466" type="curve" smooth="yes"/>
			<point x="79" y="57" type="line" smooth="yes"/>
			<point x="79" y="22"/>
			<point x="73" y="15"/>
			<point x="56" y="14" type="curve" smooth="yes"/>
			<point x="25" y="12" type="line"/>
		</contour>
	</outline>
	<anchor name="top" x="313" y="550"/>
</glyph>
<glyph name="zhe-cy" format="2">
	<unicode hex="0436"/>
	<advance width="989"/>
	<outline>
		<contour>
			<point x="150" y="-14" type="curve" smooth="yes"/>
			<point x="219" y="-14"/>
			<point x="290" y="3"/>
			<point x="322" y="136" type="curve" smooth="yes"/>
			<point x="335" y="190"/>
			<point x="345" y="230"/>
			<point x="356" y="241" type="curve" smooth="yes"/>
			<point x="363" y="248"/>
			<point x="372" y="250"/>
			<point x="383" y="251" type="curve"/>
			<point x="383" y="57" type="line" smooth="yes"/>
			<point x="383" y="22"/>
			<point x="377" y="15"/>
			<point x="360" y="14" type="curve" smooth="yes"/>
			<point x="334" y="12" type="line"/>
			<point x="334" y="0" type="line"/>
			<point x="647" y="0" type="line"/>
			<point x="647" y="12" type="line"/>
			<point x="626" y="14" type="line" smooth="yes"/>
			<point x="609" y="16"/>
			<point x="606" y="23"/>
			<point x="606" y="58" type="curve" smooth="yes"/>
			<point x="606" y="251" type="line"/>
			<point x="622" y="250"/>
			<point x="626" y="248"/>
			<point x="633" y="241" type="curve" smooth="yes"/>
			<point x="644" y="230"/>
			<point x="654" y="190"/>
			<point x="667" y="136" type="curve" smooth="yes"/>
			<point x="699" y="3"/>
			<point x="770" y="-14"/>
			<point x="842" y="-14" type="curve" smooth="yes"/>
			<point x="899" y="-14"/>
			<point x="952" y="5"/>
			<point x="989" y="52" type="curve"/>
			<point x="981" y="63" type="line"/>
			<point x="971" y="55"/>
			<point x="964" y="52"/>
			<point x="950" y="52" type="curve" smooth="yes"/>
			<point x="932" y="52"/>
			<point x="917" y="64"/>
			<point x="889" y="134" type="curve" smooth="yes"/>
			<point x="852" y="226"/>
			<point x="773" y="250"/>
			<point x="671" y="260" type="curve"/>
			<point x="671" y="262" type="line"/>
			<point x="698" y="274"/>
			<point x="720" y="308"/>
			<point x="738" y="364" type="curve" smooth="yes"/>
			<point x="748" y="395"/>
			<point x="758" y="419"/>
			<point x="769" y="432" type="curve"/>
			<point x="791" y="376"/>
			<point x="824" y="335"/>
			<point x="869" y="335" type="curve" smooth="yes"/>
			<point x="914" y="335"/>
			<point x="957" y="375"/>
			<point x="957" y="436" type="curve" smooth="yes"/>
			<point x="957" y="489"/>
			<point x="919" y="532"/>
			<point x="864" y="532" type="curve" smooth="yes"/>
			<point x="783" y="532"/>
			<point x="749" y="461"/>
			<point x="720" y="369" type="curve" smooth="yes"/>
			<point x="694" y="286"/>
			<point x="669" y="277"/>
			<point x="652" y="272" type="curve" smooth="yes"/>
			<point x="636" y="267"/>
			<point x="625" y="267"/>
			<point x="606" y="267" type="curve"/>
			<point x="606" y="465" type="line" smooth="yes"/>
			<point x="606" y="500"/>
			<point x="609" y="507"/>
			<point x="626" y="509" type="curve" smooth="yes"/>
			<point x="647" y="511" type="line"/>
			<point x="647" y="523" type="line"/>
			<point x="334" y="523" type="line"/>
			<point x="334" y="511" type="line"/>
			<point x="360" y="509" type="line" smooth="yes"/>
			<point x="377" y="508"/>
			<point x="383" y="501"/>
			<point x="383" y="466" type="curve" smooth="yes"/>
			<point x="383" y="267" type="line"/>
			<point x="369" y="267"/>
			<point x="353" y="267"/>
			<point x="337" y="272" type="curve" smooth="yes"/>
			<point x="320" y="277"/>
			<point x="295" y="286"/>
			<point x="269" y="369" type="curve" smooth="yes"/>
			<point x="240" y="461"/>
			<point x="206" y="532"/>
			<point x="125" y="532" type="curve" smooth="yes"/>
			<point x="70" y="532"/>
			<point x="32" y="489"/>
			<point x="32" y="436" type="curve" smooth="yes"/>
			<point x="32" y="375"/>
			<point x="75" y="335"/>
			<point x="120" y="335" type="curve" smooth="yes"/>
			<point x="165" y="335"/>
			<point x="198" y="376"/>
			<point x="220" y="432" type="curve"/>
			<point x="231" y="419"/>
			<point x="241" y="395"/>
			<point x="251" y="364" type="curve" smooth="yes"/>
			<point x="269" y="308"/>
			<point x="291" y="274"/>
			<point x="318" y="262" type="curve"/>
			<point x="318" y="260" type="line"/>
			<point x="216" y="250"/>
			<point x="137" y="226"/>
			<point x="100" y="134" type="curve" smooth="yes"/>
			<point x="72" y="64"/>
			<point x="59" y="52"/>
			<point x="41" y="52" type="curve" smooth="yes"/>
			<point x="29" y="52"/>
			<point x="18" y="56"/>
			<point x="8" y="63" type="curve"/>
			<point x="0" y="52" type="line"/>
			<point x="37" y="5"/>
			<point x="90" y="-14"/>
		</contour>
	</outline>
</glyph>
<glyph name="te-cy" format="2">
	<unicode hex="0442"/>
	<advance width="657"/>
	<outline>
		<contour>
			<point x="163" y="0" type="line"/>
			<point x="481" y="0" type="line"/>
			<point x="481" y="12" type="line"/>
			<point x="460" y="14" type="line" smooth="yes"/>
			<point x="443" y="16"/>
			<point x="440" y="23"/>
			<point x="440" y="58" type="curve" smooth="yes"/>
			<point x="440" y="507" type="line"/>
			<point x="447" y="507" type="line" smooth="yes"/>
			<point x="529" y="507"/>
			<point x="555" y="485"/>
			<point x="591" y="393" type="curve" smooth="yes"/>
			<point x="617" y="327" type="line"/>
			<point x="632" y="331" type="line"/>
			<point x="606" y="523" type="line"/>
			<point x="51" y="523" type="line"/>
			<point x="25" y="331" type="line"/>
			<point x="40" y="327" type="line"/>
			<point x="66" y="393" type="line" smooth="yes"/>
			<point x="102" y="485"/>
			<point x="128" y="507"/>
			<point x="210" y="507" type="curve" smooth="yes"/>
			<point x="217" y="507" type="line"/>
			<point x="217" y="57" type="line" smooth="yes"/>
			<point x="217" y="22"/>
			<point x="211" y="15"/>
			<point x="194" y="14" type="curve" smooth="yes"/>
			<point x="163" y="12" type="line"/>
		</contour>
	</outline>
</glyph>
<glyph name="che-cy" format="2">
	<unicode hex="0447"/>
	<advance width="702"/>
	<outline>
		<contour>
			<point x="356" y="0" type="line"/>
			<point x="677" y="0" type="line"/>
			<point x="677" y="12" type="line"/>
			<point x="653" y="14" type="line" smooth="yes"/>
			<point x="629" y="16"/>
			<point x="623" y="23"/>
			<point x="623" y="58" type="curve" smooth="yes"/>
			<point x="623" y="465" type="line" smooth="yes"/>
			<point x="623" y="500"/>
			<point x="629" y="507"/>
			<point x="653" y="509" type="curve" smooth="yes"/>
			<point x="677" y="511" type="line"/>
			<point x="677" y="523" type="line"/>
			<point x="356" y="523" type="line"/>
			<point x="356" y="511" type="line"/>
			<point x="377" y="509" type="line" smooth="yes"/>
			<point x="396" y="507"/>
			<point x="400" y="498"/>
			<point x="400" y="465" type="curve" smooth="yes"/>
			<point x="400" y="243" type="line"/>
			<point x="385" y="233"/>
			<point x="364" y="223"/>
			<point x="337" y="223" type="curve" smooth="yes"/>
			<point x="297" y="223"/>
			<point x="282" y="240"/>
			<point x="282" y="278" type="curve" smooth="yes"/>
			<point x="282" y="465" type="line" smooth="yes"/>
			<point x="282" y="500"/>
			<point x="288" y="507"/>
			<point x="308" y="509" type="curve" smooth="yes"/>
			<point x="332" y="511" type="line"/>
			<point x="332" y="523" type="line"/>
			<point x="15" y="523" type="line"/>
			<point x="15" y="511" type="line"/>
			<point x="36" y="509" type="line" smooth="yes"/>
			<point x="55" y="507"/>
			<point x="59" y="498"/>
			<point x="59" y="465" type="curve" smooth="yes"/>
			<point x="59" y="316" type="line" smooth="yes"/>
			<point x="59" y="223"/>
			<point x="127" y="181"/>
			<point x="241" y="181" type="curve" smooth="yes"/>
			<point x="303" y="181"/>
			<point x="360" y="196"/>
			<point x="400" y="224" type="curve"/>
			<point x="400" y="58" type="line" smooth="yes"/>
			<point x="400" y="25"/>
			<point x="396" y="16"/>
			<point x="377" y="14" type="curve" smooth="yes"/>
			<point x="356" y="12" type="line"/>
		</contour>
	</outline>
</glyph>
<glyph name="shcha-cy" format="2">
	<unicode hex="0449"/>
	<advance width="1085"/>
	<outline>
		<contour>
			<point x="1060" y="-147" type="line"/>
			<point x="1075" y="-143" type="line"/>
			<point x="1075" y="17" type="line"/>
			<point x="980" y="17" type="line"/>
			<point x="980" y="465" type="line" smooth="yes"/>
			<point x="980" y="500"/>
			<point x="986" y="507"/>
			<point x="1010" y="509" type="curve" smooth="yes"/>
			<point x="1034" y="511" type="line"/>
			<point x="1034" y="523" type="line"/>
			<point x="713" y="523" type="line"/>
			<point x="713" y="511" type="line"/>
			<point x="734" y="509" type="line" smooth="yes"/>
			<point x="753" y="507"/>
			<point x="757" y="498"/>
			<point x="757" y="465" type="curve" smooth="yes"/>
			<point x="757" y="17" type="line"/>
			<point x="641" y="17" type="line"/>
			<point x="641" y="465" type="line" smooth="yes"/>
			<point x="641" y="500"/>
			<point x="650" y="507"/>
			<point x="670" y="509" type="curve" smooth="yes"/>
			<point x="687" y="511" type="line"/>
			<point x="687" y="523" type="line"/>
			<point x="376" y="523" type="line"/>
			<point x="376" y="511" type="line"/>
			<point x="395" y="509" type="line" smooth="yes"/>
			<point x="414" y="507"/>
			<point x="418" y="498"/>
			<point x="418" y="465" type="curve" smooth="yes"/>
			<point x="418" y="17" type="line"/>
			<point x="302" y="17" type="line"/>
			<point x="302" y="465" type="line" smooth="yes"/>
			<point x="302" y="500"/>
			<point x="307" y="507"/>
			<point x="324" y="509" type="curve" smooth="yes"/>
			<point x="346" y="511" type="line"/>
			<point x="346" y="523" type="line"/>
			<point x="25" y="523" type="line"/>
			<point x="25" y="511" type="line"/>
			<point x="56" y="509" type="line" smooth="yes"/>
			<point x="73" y="508"/>
			<point x="79" y="501"/>
			<point x="79" y="466" type="curve" smooth="yes"/>
			<point x="79" y="57" type="line" smooth="yes"/>
			<point x="79" y="22"/>
			<point x="73" y="15"/>
			<point x="56" y="14" type="curve" smooth="yes"/>
			<point x="25" y="12" type="line"/>
			<point x="25" y="0" type="line"/>
			<point x="890" y="0" type="line" smooth="yes"/>
			<point x="1001" y="0"/>
			<point x="1030" y="-14"/>
			<point x="1051" y="-107" type="curve" smooth="yes"/>
		</contour>
	</outline>
</glyph>
